<svg width="269" height="244" viewBox="0 0 269 244" fill="none" xmlns="http://www.w3.org/2000/svg">
<path fill-rule="evenodd" clip-rule="evenodd" d="M123.301 23.6152H223.641C223.981 23.6152 224.254 23.8885 224.254 24.2287V133.085C224.254 133.425 223.981 133.698 223.641 133.698H123.301C122.961 133.698 122.688 133.425 122.688 133.085V24.2287C122.688 23.8885 122.961 23.6152 123.301 23.6152Z" fill="#E2EBF1"/>
<path d="M199.379 72.3851C199.364 72.3851 199.354 72.3851 199.338 72.38C199.245 72.3645 199.173 72.3027 199.137 72.215L171.633 0.348945C171.602 0.261303 171.618 0.163351 171.674 0.0963309C171.731 0.0241555 171.824 -0.0119322 171.917 0.00353393L247.912 12.1187C248.005 12.1342 248.077 12.196 248.113 12.2837C248.144 12.3713 248.129 12.4693 248.072 12.5363L199.586 72.2923C199.534 72.3491 199.457 72.3851 199.379 72.3851ZM172.272 0.580937L199.462 71.617L247.386 12.5517L172.272 0.580937Z" fill="#E2EBF1"/>
<path fill-rule="evenodd" clip-rule="evenodd" d="M162.492 120.392H268.296C268.637 120.392 268.91 120.665 268.91 121.006V123.702C268.91 124.042 268.637 124.315 268.296 124.315H162.492C162.152 124.315 161.879 124.042 161.879 123.702V121.006C161.879 120.665 162.152 120.392 162.492 120.392Z" fill="#8088DC"/>
<path d="M168.983 123.733H160.668C160.044 123.733 159.539 123.228 159.539 122.604V119.907C159.539 119.284 160.044 118.778 160.668 118.778H247.283C247.567 118.778 247.799 119.01 247.799 119.294C247.799 119.578 247.567 119.81 247.283 119.81H160.668C160.611 119.81 160.57 119.856 160.57 119.907V122.604C160.57 122.655 160.616 122.702 160.668 122.702H168.983C169.267 122.702 169.499 122.934 169.499 123.217C169.499 123.501 169.267 123.733 168.983 123.733Z" fill="#1B3C87"/>
<path d="M266.477 123.733H179.299C179.015 123.733 178.783 123.501 178.783 123.217C178.783 122.934 179.015 122.702 179.299 122.702H266.477C266.533 122.702 266.575 122.655 266.575 122.604V119.907C266.575 119.856 266.528 119.81 266.477 119.81H256.836C256.552 119.81 256.32 119.578 256.32 119.294C256.32 119.01 256.552 118.778 256.836 118.778H266.477C267.1 118.778 267.606 119.284 267.606 119.907V122.604C267.606 123.228 267.095 123.733 266.477 123.733Z" fill="#1B3C87"/>
<path d="M171.571 238.476C171.288 238.476 171.056 238.244 171.056 237.961V166.131C171.056 165.847 171.288 165.615 171.571 165.615C171.855 165.615 172.087 165.847 172.087 166.131V237.966C172.087 238.244 171.855 238.476 171.571 238.476Z" fill="#1B3C87"/>
<path d="M171.571 152.051C171.288 152.051 171.056 151.819 171.056 151.536V123.542C171.056 123.258 171.288 123.026 171.571 123.026C171.855 123.026 172.087 123.258 172.087 123.542V151.536C172.087 151.819 171.855 152.051 171.571 152.051Z" fill="#1B3C87"/>
<path fill-rule="evenodd" clip-rule="evenodd" d="M156.157 206.167L169.128 221.077L192.94 197.228L171.473 201.785L166.565 196.553" fill="white"/>
<path fill-rule="evenodd" clip-rule="evenodd" d="M90.575 213.586L89.0336 226.578L86.0898 234.11L116.661 243.791L102.159 227.82L105.685 217.499" fill="white"/>
<path d="M73.9539 101.261C73.7528 101.261 73.5621 101.142 73.4796 100.946C73.3713 100.683 73.4951 100.379 73.758 100.271C75.0262 99.7397 84.9555 96.1773 86.2701 95.8886C86.5846 95.8164 86.9661 95.27 87.3373 94.739C88.0332 93.7388 88.9921 92.3623 90.7553 92.2334C91.0388 92.2128 91.2863 92.4242 91.3069 92.7077C91.3275 92.9913 91.1162 93.2387 90.8326 93.2594C89.5592 93.3522 88.8633 94.3575 88.1879 95.3267C87.6827 96.0484 87.2084 96.7341 86.4969 96.8939C85.3215 97.1568 75.516 100.652 74.1601 101.219C74.0879 101.245 74.0158 101.261 73.9539 101.261Z" fill="#1B3C87"/>
<path fill-rule="evenodd" clip-rule="evenodd" d="M87.3684 88.9701H100.185L97.8338 106.627H89.4099L87.3684 88.9701Z" fill="#D7E0FF"/>
<path fill-rule="evenodd" clip-rule="evenodd" d="M85.6413 86.5264H101.912C102.293 86.5264 102.602 86.7532 102.602 87.0264V88.4339C102.602 88.7123 102.293 88.9339 101.912 88.9339H85.6413C85.2598 88.9339 84.9504 88.7071 84.9504 88.4339V87.0264C84.9504 86.748 85.2598 86.5264 85.6413 86.5264Z" fill="#B2C3FB"/>
<path fill-rule="evenodd" clip-rule="evenodd" d="M87.4716 84.5623H100.087C100.468 84.5623 100.778 84.7839 100.778 85.0623V86.0109C100.778 86.2893 100.468 86.511 100.087 86.511H87.4716C87.0901 86.511 86.7808 86.2893 86.7808 86.0109V85.0623C86.7808 84.7891 87.0901 84.5623 87.4716 84.5623Z" fill="#D7E0FF"/>
<path d="M89.6678 82.7836C89.5492 82.7836 89.4306 82.7424 89.3378 82.6599C89.1213 82.4743 89.0904 82.1495 89.276 81.933C90.2194 80.8142 90.2864 78.5717 89.4152 77.0354C89.3636 76.9477 89.3172 76.8601 89.2656 76.7724C88.2964 75.0711 87.0952 72.9523 88.2139 70.9726C88.3531 70.7252 88.6676 70.6375 88.9151 70.7767C89.1625 70.9159 89.2502 71.2304 89.111 71.4778C88.2758 72.9471 89.276 74.7051 90.1627 76.2569C90.2142 76.3445 90.2658 76.4373 90.3122 76.525C90.8226 77.4272 91.0855 78.5459 91.0546 79.6646C91.0236 80.8297 90.6679 81.8711 90.0596 82.5929C89.9565 82.7217 89.8121 82.7836 89.6678 82.7836Z" fill="#1B3C87"/>
<path d="M93.761 82.7836C93.6425 82.7836 93.5239 82.7423 93.4311 82.6598C93.2146 82.4743 93.1836 82.1495 93.3692 81.9329C94.3127 80.8142 94.3797 78.5716 93.5084 77.0405C93.4569 76.9528 93.4105 76.8652 93.3589 76.7776C92.3897 75.0763 91.1885 72.9574 92.3072 70.9777C92.4464 70.7303 92.7609 70.6426 93.0083 70.7818C93.2558 70.921 93.3434 71.2355 93.2042 71.483C92.3691 72.9523 93.3692 74.7102 94.2559 76.262C94.3075 76.3497 94.3591 76.4425 94.4055 76.5301C94.9158 77.4323 95.1788 78.551 95.1478 79.6697C95.1169 80.8348 94.7612 81.8762 94.1528 82.598C94.0497 82.7217 93.9054 82.7836 93.761 82.7836Z" fill="#1B3C87"/>
<path d="M97.8544 82.7836C97.7358 82.7836 97.6172 82.7423 97.5244 82.6598C97.3079 82.4742 97.277 82.1494 97.4626 81.9329C98.406 80.8142 98.473 78.5716 97.6018 77.0405C97.5502 76.9528 97.5038 76.8652 97.4523 76.7775C96.483 75.0763 95.2818 72.9625 96.4057 70.9829C96.5449 70.7354 96.8594 70.6478 97.1068 70.787C97.3543 70.9262 97.4419 71.2406 97.3027 71.4881C96.4676 72.9574 97.4677 74.7154 98.3493 76.2671C98.4008 76.3548 98.4524 76.4476 98.4988 76.5352C99.0092 77.4374 99.2721 78.5561 99.2412 79.6749C99.2102 80.84 98.8545 81.8814 98.2462 82.6031C98.1431 82.7217 97.9987 82.7836 97.8544 82.7836Z" fill="#1B3C87"/>
<path fill-rule="evenodd" clip-rule="evenodd" d="M13.0998 160.743H80.2229C80.5632 160.743 80.8364 161.017 80.8364 161.357V233.285C80.8364 233.625 80.5632 233.898 80.2229 233.898H13.0998C12.7596 233.898 12.4863 233.625 12.4863 233.285V161.357C12.4863 161.017 12.7596 160.743 13.0998 160.743Z" fill="#A9C3D7"/>
<path d="M177.649 209.451C177.515 209.451 177.386 209.4 177.283 209.302C177.082 209.101 177.082 208.776 177.283 208.575L189.46 196.377L169.695 200.574C169.519 200.61 169.334 200.553 169.21 200.424L164.302 195.192C164.106 194.985 164.116 194.655 164.328 194.465C164.534 194.269 164.864 194.279 165.055 194.491L169.762 199.512L190.945 195.011C191.167 194.965 191.399 195.068 191.507 195.269C191.615 195.47 191.579 195.717 191.419 195.877L178.015 209.302C177.917 209.4 177.783 209.451 177.649 209.451Z" fill="#1B3C87"/>
<path d="M167.246 219.876C167.241 219.876 167.235 219.876 167.23 219.876C167.086 219.871 166.952 219.809 166.859 219.7L153.888 204.791C153.703 204.574 153.723 204.25 153.94 204.064C154.156 203.879 154.481 203.899 154.667 204.116L167.277 218.607L173.319 212.56C173.52 212.359 173.845 212.359 174.046 212.56C174.247 212.761 174.247 213.086 174.046 213.287L167.617 219.726C167.514 219.824 167.38 219.876 167.246 219.876Z" fill="#1B3C87"/>
<path fill-rule="evenodd" clip-rule="evenodd" d="M119.089 182.071C123.126 184.639 152.548 205.446 154.296 206.843C156.523 204.951 162.9 199.053 164.807 197.006C163.06 194.645 128.859 155.933 126.869 154.82C124.874 153.711 115.053 179.504 119.089 182.071Z" fill="#3C3744"/>
<path d="M150.264 204.915C150.125 204.915 149.986 204.858 149.883 204.75C149.692 204.538 149.702 204.214 149.913 204.023L163.957 191.062C164.168 190.871 164.493 190.882 164.684 191.093C164.874 191.304 164.864 191.629 164.653 191.82L150.609 204.781C150.517 204.868 150.393 204.915 150.264 204.915Z" fill="#1B3C87"/>
<path d="M151.873 206.905C151.733 206.905 151.594 206.848 151.491 206.735C151.3 206.523 151.316 206.198 151.527 206.008L165.864 192.954C166.076 192.763 166.4 192.779 166.591 192.99C166.782 193.202 166.766 193.526 166.555 193.717L152.218 206.771C152.12 206.858 151.996 206.905 151.873 206.905Z" fill="#1B3C87"/>
<path d="M152.079 203.131C151.965 203.131 151.852 203.095 151.754 203.018C149.862 201.502 120.42 180.71 116.594 178.277C115.63 177.663 115.254 176.168 115.439 173.704C115.584 171.755 116.099 169.172 116.924 166.224C118.404 160.939 120.765 154.954 122.538 151.984C122.93 151.33 123.281 150.84 123.59 150.531C124.183 149.933 124.631 149.989 124.905 150.139C125.116 150.257 125.668 150.567 131.555 156.97C134.782 160.486 139.123 165.29 144.098 170.874C153.094 180.963 162.106 191.258 163.008 192.47C163.158 192.671 163.142 192.944 162.972 193.129C161.08 195.166 154.687 201.079 152.419 203.007C152.316 203.09 152.197 203.131 152.079 203.131ZM117.151 177.406C120.837 179.751 148.259 199.105 152.063 201.95C154.414 199.914 159.832 194.898 161.91 192.748C160.137 190.578 151.599 180.834 143.356 171.59C130.833 157.547 125.441 151.84 124.492 151.108C124.322 151.227 123.827 151.696 122.884 153.485C122.105 154.964 121.203 157.006 120.342 159.238C118.378 164.337 116.965 169.456 116.553 172.936C116.419 174.08 116.208 176.808 117.151 177.406Z" fill="#1B3C87"/>
<path d="M105.623 216.122C105.577 216.122 105.531 216.117 105.484 216.102L87.1928 210.921C86.9196 210.843 86.7598 210.56 86.8371 210.287C86.9144 210.013 87.198 209.854 87.4712 209.931L105.763 215.112C106.036 215.189 106.196 215.473 106.118 215.746C106.056 215.973 105.845 216.122 105.623 216.122Z" fill="#1B3C87"/>
<path d="M106.778 212.983C106.732 212.983 106.691 212.978 106.644 212.967L87.8993 207.987C87.6261 207.915 87.4611 207.632 87.5333 207.358C87.6055 207.085 87.889 206.92 88.1623 206.992L106.907 211.972C107.18 212.045 107.345 212.328 107.273 212.601C107.211 212.833 107.005 212.983 106.778 212.983Z" fill="#1B3C87"/>
<path d="M105.149 230.728C105.01 230.728 104.871 230.671 104.768 230.558L100.576 225.943C100.453 225.804 100.411 225.608 100.468 225.428L103.994 215.107C104.087 214.839 104.381 214.694 104.649 214.787C104.917 214.88 105.062 215.174 104.969 215.442L101.54 225.479L105.526 229.867C105.716 230.078 105.701 230.403 105.489 230.594C105.397 230.681 105.273 230.728 105.149 230.728Z" fill="#1B3C87"/>
<path d="M115.46 242.085C115.408 242.085 115.357 242.075 115.305 242.059L84.7337 232.377C84.5997 232.336 84.4863 232.238 84.4244 232.109C84.3625 231.98 84.3574 231.831 84.4089 231.697L87.332 224.227L88.8632 211.297C88.8993 211.013 89.1519 210.812 89.4354 210.843C89.719 210.879 89.92 211.132 89.8891 211.416L88.3476 224.412C88.3425 224.454 88.3322 224.5 88.3167 224.541L85.574 231.563L113.8 240.502L108.402 234.558C108.211 234.347 108.227 234.022 108.438 233.831C108.65 233.64 108.974 233.656 109.165 233.867L115.841 241.219C115.996 241.389 116.022 241.647 115.893 241.843C115.8 241.997 115.635 242.085 115.46 242.085Z" fill="#1B3C87"/>
<path fill-rule="evenodd" clip-rule="evenodd" d="M32.6181 139.039C26.478 173.457 87.8683 172.879 96.0963 172.487C95.9004 177.091 91.5699 206.533 91.6782 210.632C95.2921 211.421 104.598 213.968 106.964 214.705C108.768 211.318 130.148 164.878 128.075 151.876C127.292 146.963 74.4746 132.61 70.1596 132.724C65.8394 132.842 32.9377 137.25 32.6181 139.039Z" fill="#3C3744"/>
<path d="M104.876 212.57C104.824 212.57 104.773 212.565 104.721 212.545C102.278 211.787 93.0133 209.25 89.4819 208.482C89.2499 208.431 89.0849 208.23 89.0746 207.992C89.0436 206.863 89.322 203.909 89.951 198.692C89.9871 198.409 90.2397 198.208 90.5232 198.244C90.8068 198.28 91.0078 198.532 90.9718 198.816C90.4201 203.373 90.1366 206.25 90.1005 207.565C93.7144 208.384 101.762 210.58 104.603 211.431C105.861 208.905 111.227 197.347 116.393 184.056C123.172 166.62 126.312 154.603 125.466 149.304C125.441 149.154 125.214 148.592 123.26 147.479C121.863 146.685 119.852 145.757 117.269 144.726C112.733 142.911 106.376 140.751 98.8956 138.472C98.6224 138.39 98.4677 138.101 98.5502 137.828C98.6327 137.554 98.9214 137.4 99.1946 137.482C106.706 139.771 113.088 141.942 117.651 143.767C125.198 146.783 126.333 148.226 126.482 149.144C126.967 152.196 126.235 157.258 124.301 164.187C122.739 169.781 120.404 176.591 117.352 184.427C112.129 197.857 106.355 210.343 105.319 212.292C105.237 212.467 105.061 212.57 104.876 212.57Z" fill="#1B3C87"/>
<path d="M91.9617 187.464C91.941 187.464 91.9152 187.464 91.8946 187.458C91.6111 187.422 91.4152 187.165 91.4513 186.881L91.5441 186.149C92.4256 179.365 93.2608 172.92 93.4567 170.379C88.4766 170.569 77.9802 170.446 67.3756 168.832C60.4468 167.775 54.3325 166.234 49.2029 164.249C42.9236 161.816 38.0776 158.691 34.8039 154.969C30.329 149.876 28.7154 143.591 30.0197 136.302C30.1022 135.843 30.6126 135.518 31.9014 135.121C32.8139 134.837 34.1285 134.513 35.8143 134.162C38.7426 133.549 42.8566 132.837 47.7181 132.095C56.7968 130.713 65.9373 129.615 68.0458 129.558C69.7626 129.512 78.5731 131.595 88.9973 134.508C89.2705 134.585 89.4304 134.868 89.353 135.142C89.2757 135.415 88.9921 135.575 88.7189 135.497C78.6504 132.683 69.8502 130.584 68.1231 130.584C68.1077 130.584 68.0871 130.584 68.0716 130.584C66.0868 130.636 57.2917 131.688 48.5069 133.012C43.7846 133.724 39.7118 134.42 36.7268 135.018C32.1901 135.93 31.2157 136.425 31.0147 136.575C30.3857 140.158 30.494 143.509 31.324 146.53C32.1025 149.345 33.5305 151.953 35.572 154.278C38.7374 157.877 43.4443 160.908 49.5689 163.28C54.6263 165.239 60.6685 166.76 67.5251 167.806C81.2384 169.894 93.4619 169.342 93.9774 169.317C94.1218 169.312 94.261 169.363 94.3641 169.466C94.4672 169.569 94.5239 169.709 94.5136 169.853C94.4259 171.915 93.5186 178.89 92.5597 186.273L92.4669 187.005C92.4411 187.273 92.2194 187.464 91.9617 187.464Z" fill="#1B3C87"/>
<path fill-rule="evenodd" clip-rule="evenodd" d="M75.444 36.0912C75.6399 31.4308 69.3761 24.9504 60.514 24.9504C42.5475 24.9504 39.0625 43.3913 25.2924 68.4567C21.4671 75.4165 1.97461 90.3156 1.97461 108.452C1.97461 126.594 16.3478 131.043 29.9065 131.043C43.4703 131.043 73.0622 103.513 73.0622 95.7442C73.0622 87.975 67.9481 77.2673 67.9481 66.3482C67.9481 55.4291 69.4534 49.2632 69.4534 46.3865C69.4534 43.5047 75.3564 44.5306 75.444 36.0912Z" fill="#121212"/>
<path d="M28.4474 130.662C20.3689 130.662 13.868 129.125 9.11988 126.089C3.06745 122.222 0 115.984 0 107.56C0 101.663 1.97967 95.6307 6.05242 89.1195C9.50653 83.5981 13.8835 78.6902 17.3994 74.7463C18.2965 73.741 19.1471 72.7872 19.9153 71.8954C20.1008 71.6788 20.4256 71.6582 20.6422 71.8438C20.8587 72.0294 20.8793 72.3542 20.6937 72.5707C19.9204 73.4677 19.0646 74.4215 18.1676 75.4319C14.6774 79.3449 10.3365 84.2167 6.92884 89.666C2.95919 96.0071 1.03108 101.858 1.03108 107.56C1.03108 111.793 1.84047 115.474 3.42833 118.5C4.86153 121.227 6.95977 123.485 9.6715 125.223C14.2495 128.151 20.57 129.636 28.4474 129.636C31.4994 129.636 35.7217 128.13 40.6554 125.279C45.0787 122.722 49.966 119.181 54.776 115.02C59.2715 111.138 63.3906 106.978 66.3704 103.312C69.4121 99.5695 71.0928 96.5587 71.0928 94.842C71.0928 91.3518 70.0153 87.1553 68.8759 82.7217C67.5149 77.4322 65.9786 71.4365 65.9786 65.446C65.9786 58.1923 66.6437 52.9854 67.087 49.5364C67.3087 47.7991 67.484 46.4277 67.484 45.4843C67.484 44.1439 68.4841 43.484 69.541 42.788C71.2681 41.6487 73.4178 40.2361 73.4745 35.189C73.4745 35.1839 73.4745 35.1787 73.4745 35.1735C73.5519 33.3588 72.5569 31.2348 70.7474 29.348C69.4121 27.956 67.7108 26.7857 65.824 25.966C63.6999 25.0381 61.4264 24.5689 59.0549 24.5689C55.771 24.5689 52.9303 25.1927 50.3681 26.4713C47.9966 27.657 45.8365 29.4201 43.7641 31.8689C39.779 36.5861 36.428 43.515 32.5459 51.5367L32.2108 52.2327C32.0871 52.4905 31.7778 52.5987 31.52 52.4699C31.2623 52.3461 31.154 52.0368 31.2829 51.779L31.618 51.0831C35.5206 43.0046 38.9025 36.019 42.9701 31.2039C45.1354 28.6468 47.4038 26.796 49.9041 25.5484C52.6159 24.1977 55.606 23.5378 59.0549 23.5378C61.5656 23.5378 63.9835 24.0379 66.2364 25.0174C68.247 25.8939 70.0617 27.1415 71.4897 28.6314C73.49 30.7141 74.5881 33.1114 74.5056 35.2045C74.4799 37.6636 73.9746 39.5814 72.9642 41.061C72.0878 42.3447 70.9897 43.0664 70.1081 43.649C69.0615 44.3398 68.5151 44.7316 68.5151 45.4843C68.5151 46.4948 68.3449 47.8249 68.1078 49.6653C67.6696 53.0885 67.0097 58.2594 67.0097 65.446C67.0097 71.3076 68.5305 77.2363 69.8761 82.4639C71.0309 86.9697 72.1238 91.2229 72.1238 94.842C72.1238 97.3475 69.4327 101.183 67.1747 103.962C64.1588 107.674 59.9984 111.875 55.4565 115.799C50.5949 119.995 45.6612 123.583 41.1761 126.166C36.0052 129.151 31.7262 130.662 28.4474 130.662Z" fill="#1B3C87"/>
<path fill-rule="evenodd" clip-rule="evenodd" d="M68.1957 71.8645C74.5059 70.4056 79.3932 87.8772 78.558 91.1611C76.2587 92.0015 73.4851 92.1097 72.9747 91.3055C72.4643 90.5064 64.4116 72.7409 68.1957 71.8645Z" fill="#709CBC"/>
<path d="M73.1706 90.862C72.1086 90.862 71.2167 90.6403 70.8609 90.0784C70.5722 89.6247 68.7833 85.7066 67.3089 81.6803C66.4325 79.283 65.7932 77.2106 65.4117 75.5196C64.9168 73.3337 64.8652 71.8232 65.2416 70.9004C65.5303 70.1889 66.0355 69.9415 66.4015 69.8538C67.9533 69.493 69.4999 70.091 70.995 71.6273C72.8715 73.5451 74.712 77.0817 76.0473 81.3194C77.2021 84.9849 77.7331 88.3874 77.3774 89.7845C77.3361 89.9495 77.2124 90.0836 77.0526 90.1403C75.9184 90.5527 74.4285 90.862 73.1706 90.862ZM66.6335 70.8591C66.4995 70.8901 66.3242 70.9674 66.1953 71.287C65.8808 72.05 65.7313 74.3751 68.2729 81.3143C69.8299 85.5623 71.5569 89.2484 71.7322 89.5216C71.7889 89.6144 72.222 89.8619 73.4026 89.8258C74.3511 89.7949 75.4389 89.5938 76.4288 89.2639C76.5009 88.671 76.4391 87.6915 76.2535 86.5057C76.0215 85.0468 75.5987 83.3094 75.0677 81.6236C73.7789 77.5354 72.0312 74.1483 70.2629 72.3439C69.0308 71.086 67.809 70.5859 66.6335 70.8591Z" fill="#1B3C87"/>
<path fill-rule="evenodd" clip-rule="evenodd" d="M57.3536 66.1678C84.9658 66.1678 75.8872 127.295 71.2731 132.286C66.6591 137.276 34.0513 143.256 31.1797 140.529C28.303 137.812 31.1024 66.0905 57.3536 66.1678Z" fill="#709CBC"/>
<path d="M33.7676 140.07C33.4635 140.07 33.1696 140.065 32.8964 140.055C31.1229 139.993 30.0558 139.735 29.5402 139.245C29.3031 139.024 29.0041 138.539 28.7772 136.781C28.6174 135.564 28.5246 133.966 28.4885 132.023C28.4163 127.811 28.6535 122.516 29.1639 117.113C29.1897 116.83 29.4423 116.623 29.7258 116.649C30.0094 116.675 30.2156 116.928 30.1898 117.211C29.6897 122.532 29.4474 127.759 29.5144 131.92C29.5918 136.58 30.0248 138.261 30.2465 138.498C30.3857 138.632 30.9322 138.951 32.9325 139.024C34.4017 139.075 36.3247 138.982 38.6498 138.745C43.1814 138.286 48.7853 137.322 54.0231 136.101C54.3015 136.034 54.5799 136.209 54.6418 136.487C54.7088 136.766 54.5335 137.044 54.2551 137.106C48.9812 138.338 43.3309 139.307 38.7529 139.771C36.8145 139.972 35.1441 140.07 33.7676 140.07Z" fill="#1B3C87"/>
<path d="M63.6742 134.415C63.4628 134.415 63.2618 134.281 63.1896 134.069C63.0968 133.801 63.236 133.507 63.5041 133.41C67.4531 132.007 69.0049 130.93 69.6132 130.275C70.1597 129.682 70.8505 128.017 71.5001 125.707C72.2012 123.212 72.8508 120.067 73.3767 116.613C74.1036 111.814 75.2017 102.256 74.3974 92.1252C74.3768 91.8416 74.5882 91.5942 74.8717 91.5684C75.1553 91.5478 75.4027 91.7592 75.4285 92.0427C76.2379 102.276 75.1346 111.927 74.4026 116.768C73.3199 123.924 71.7424 129.497 70.3814 130.971C69.3812 132.054 67.1902 133.198 63.8598 134.379C63.7876 134.405 63.7309 134.415 63.6742 134.415Z" fill="#1B3C87"/>
<path d="M30.5198 110.406C30.494 110.406 30.4734 110.406 30.4476 110.401C30.164 110.365 29.9681 110.102 30.0094 109.818C31.19 101.193 33.5615 88.8618 38.1446 79.1181C40.3511 74.4216 42.8824 70.7664 45.656 68.2506C48.7801 65.4203 52.2703 63.9871 56.0286 63.9871C56.0441 63.9871 56.0595 63.9871 56.0699 63.9871C61.2149 63.9871 65.4475 66.0647 68.6438 70.1581C71.3762 73.6586 73.3507 78.6335 74.5055 84.9385C74.5571 85.2169 74.3715 85.485 74.0931 85.5366C73.8147 85.5881 73.5466 85.4025 73.4951 85.1241C72.3712 78.9841 70.4637 74.1638 67.8345 70.7922C66.3909 68.9414 64.7051 67.5185 62.8337 66.5596C60.8334 65.5388 58.5548 65.0181 56.0699 65.0181C56.0544 65.0181 56.0441 65.0181 56.0286 65.0181C49.3163 65.0181 43.6145 69.9106 39.0726 79.5563C34.5461 89.1866 32.2004 101.405 31.0302 109.963C30.9941 110.221 30.7724 110.406 30.5198 110.406Z" fill="#1B3C87"/>
<path fill-rule="evenodd" clip-rule="evenodd" d="M40.4232 100.73C41.2893 103.147 49.9194 126.305 53.9561 127.95C62.0243 131.234 88.8477 106.524 91.7554 105.307C95.0136 103.993 94.596 105.287 97.4057 105.287C100.215 105.287 102.747 102.024 102.747 99.7139C102.747 97.4043 99.9679 93.9089 97.5397 93.9089C95.1115 93.9089 90.1108 98.6519 88.2342 99.4613C86.3577 100.271 64.7669 110.937 63.6637 111.231C63.0399 108.437 60.2766 99.4974 58.7351 95.9299C57.1937 92.3623 39.5571 98.3065 40.4232 100.73Z" fill="white"/>
<path d="M54.0128 127.78C53.291 127.78 52.6569 127.666 52.1002 127.439C50.2494 126.687 47.5583 122.243 43.867 113.85C40.7686 106.808 38.2992 99.9819 38.2786 99.9149C37.9074 98.8786 39.2787 97.9558 39.7324 97.6517C40.6604 97.0279 42.0162 96.3525 43.6453 95.7132C46.3725 94.6358 49.4709 93.7954 51.93 93.4655C55.1109 93.0428 56.9978 93.4655 57.5442 94.7286C58.9774 98.0332 61.5293 106.194 62.3645 109.535C64.4009 108.638 71.7989 105.039 77.3615 102.333C80.0166 101.039 82.5221 99.8221 84.213 99.0075C84.4708 98.8838 84.7801 98.9921 84.8987 99.2498C85.0224 99.5076 84.9142 99.8169 84.6564 99.9355C82.9706 100.745 80.4651 101.967 77.8101 103.261C69.0459 107.524 62.7924 110.556 62.1274 110.736C61.9933 110.772 61.849 110.751 61.7253 110.679C61.6067 110.607 61.519 110.489 61.4881 110.349C60.8591 107.529 58.0959 98.6157 56.5905 95.141C56.2709 94.3986 54.5747 94.1512 52.0589 94.4914C49.6771 94.8111 46.6715 95.6256 44.0165 96.6721C39.8664 98.3116 39.1962 99.4303 39.2478 99.5643C39.2736 99.6313 41.7275 106.416 44.8104 113.432C49.44 123.949 51.6052 126.12 52.4868 126.481C53.9252 127.068 56.2141 126.676 59.2868 125.315C59.5497 125.202 59.8538 125.315 59.9673 125.578C60.0807 125.841 59.9673 126.145 59.7043 126.259C57.4102 127.28 55.5285 127.78 54.0128 127.78Z" fill="#1B3C87"/>
<path d="M67.7779 121.588C67.6129 121.588 67.4479 121.506 67.35 121.356C67.1953 121.119 67.2572 120.799 67.4943 120.64C73.2684 116.819 79.295 112.004 83.6925 108.488C87.2395 105.653 89.1263 104.158 89.8945 103.838H89.8996C91.1575 103.328 91.8948 103.106 92.4412 103.07C93.065 103.029 93.4362 103.225 93.8332 103.436C94.0549 103.555 94.3075 103.689 94.6684 103.823C95.8232 103.792 97.3028 103.101 98.5504 102.008C99.798 100.915 100.571 99.6572 100.571 98.7189C100.571 96.6774 98.0091 93.4295 95.8799 93.4295C94.5189 93.4295 91.8329 95.4195 90.3894 96.4867C90.1626 96.6568 89.8378 96.6104 89.6676 96.3784C89.4975 96.1516 89.5439 95.8268 89.7759 95.6566C92.003 94.0069 94.3075 92.3984 95.8747 92.3984C97.1481 92.3984 98.571 93.2078 99.7825 94.6153C100.906 95.9196 101.602 97.492 101.602 98.7189C101.602 99.9614 100.716 101.482 99.2257 102.781C97.7461 104.081 96.0088 104.854 94.5807 104.854C94.524 104.854 94.4673 104.844 94.4106 104.828C93.926 104.663 93.6063 104.488 93.3434 104.349C92.9929 104.163 92.8382 104.075 92.5083 104.101C92.0855 104.132 91.4205 104.338 90.2863 104.797C89.6161 105.081 87.1673 107.035 84.337 109.298C79.924 112.824 73.8767 117.655 68.0666 121.501C67.9789 121.562 67.8758 121.588 67.7779 121.588Z" fill="#1B3C87"/>
<path fill-rule="evenodd" clip-rule="evenodd" d="M41.5525 71.5036C50.8786 67.5185 61.6069 92.9655 59.8489 96.9506C58.091 100.941 41.2019 105.158 38.6191 103.168C36.0414 101.173 32.8708 75.2155 41.5525 71.5036Z" fill="#709CBC"/>
<path d="M40.2945 103.22C38.918 103.22 37.9797 103.018 37.4435 102.601C37.0259 102.281 36.6393 101.585 36.263 100.477C35.9279 99.4922 35.6082 98.1879 35.3401 96.7134C35.2886 96.435 35.4742 96.167 35.7577 96.1154C36.0361 96.0639 36.3042 96.2494 36.3557 96.533C36.928 99.6932 37.6291 101.451 38.0725 101.791C38.6654 102.25 40.9131 102.472 45.2952 101.606C49.0122 100.869 52.9045 99.585 55.4513 98.2549C55.7039 98.1208 56.0132 98.2188 56.1473 98.4714C56.2813 98.724 56.1834 99.0334 55.9307 99.1674C53.3015 100.539 49.3061 101.859 45.4962 102.616C43.6506 102.982 41.97 103.194 40.6296 103.22C40.5161 103.22 40.4027 103.22 40.2945 103.22Z" fill="#1B3C87"/>
<path d="M58.5702 91.6045C58.3434 91.6045 58.132 91.4549 58.0702 91.223C57.1216 87.6709 55.2656 83.3919 53.1107 79.7728C51.3115 76.7518 48.4966 72.8285 45.2848 71.2665C43.7279 70.5086 42.2483 70.421 40.8873 71.0035C39.418 71.6325 38.2219 73.0193 37.3249 75.133C36.5207 77.0405 35.9742 79.4893 35.7009 82.4227C35.6752 82.7063 35.4226 82.9125 35.139 82.8867C34.8555 82.8609 34.6492 82.6083 34.675 82.3248C35.1029 77.6746 36.4639 71.7768 40.48 70.0549C42.1246 69.3487 43.8929 69.4466 45.7333 70.3385C47.6305 71.2613 50.6052 73.5554 53.9923 79.2418C56.1936 82.9382 58.0856 87.3152 59.06 90.9549C59.1322 91.2281 58.9724 91.5117 58.694 91.5838C58.6579 91.5993 58.6166 91.6045 58.5702 91.6045Z" fill="#1B3C87"/>
<path fill-rule="evenodd" clip-rule="evenodd" d="M54.4462 53.8877C54.7813 56.4035 54.6782 66.2194 53.843 69.5343C55.0855 70.8386 60.9832 72.3131 64.4012 71.0397C64.2002 68.8641 64.4683 63.3633 64.9374 61.4558C65.4014 59.5535 54.1111 51.377 54.4462 53.8877Z" fill="white"/>
<path d="M57.6528 70.4931C57.627 70.4931 57.5961 70.4931 57.5703 70.488C55.2555 70.1168 53.1934 69.3383 52.4407 68.5495C52.317 68.4207 52.2706 68.2402 52.317 68.0701C53.1264 64.8635 53.2398 55.1043 52.9098 52.6143C52.8325 52.0317 53.1624 51.7688 53.3068 51.6863C53.6367 51.4955 54.2296 51.3873 55.9309 52.2895C56.9413 52.8256 58.1889 53.635 59.4417 54.5681C60.813 55.5889 62.0606 56.6561 62.9422 57.5686C64.4579 59.141 64.5095 59.8473 64.4115 60.2391C63.9424 62.1517 63.6949 67.5649 63.8856 69.6528C63.9114 69.9363 63.7052 70.189 63.4217 70.2147C63.1381 70.2405 62.8855 70.0343 62.8597 69.7508C62.6587 67.5906 62.9216 61.9867 63.4062 59.9968C63.4268 59.8266 63.0608 58.9966 61.1481 57.285C59.849 56.1199 58.1889 54.8723 56.7094 53.9392C55.0081 52.8669 54.2348 52.64 53.9461 52.5988C54.2657 55.3002 54.1626 64.4459 53.3893 68.0185C54.2141 68.6475 56.168 69.2249 57.7353 69.4775C58.0188 69.5239 58.2096 69.7868 58.1632 70.0704C58.1219 70.3127 57.9003 70.4931 57.6528 70.4931Z" fill="#1B3C87"/>
<path fill-rule="evenodd" clip-rule="evenodd" d="M51.8529 48.0208C50.8269 39.3752 54.9822 31.8174 61.1274 31.1317C67.2726 30.4512 73.0879 36.9058 74.1138 45.5514C75.1397 54.1969 70.9845 61.7547 64.8393 62.4404C58.6941 63.1209 52.8788 56.6664 51.8529 48.0208Z" fill="white"/>
<path d="M62.6944 61.6722C59.8744 61.6722 57.106 60.3009 54.8015 57.7387C52.2806 54.9393 50.6102 51.0315 50.0998 46.7474C49.7905 44.1439 49.94 41.5095 50.5277 39.1226C51.1 36.8027 52.0898 34.7096 53.3838 33.0753C55.1366 30.8688 57.3638 29.5593 59.828 29.2861C66.0403 28.5953 71.9432 34.7714 73.2733 43.3397C73.3145 43.6232 73.1238 43.8862 72.8454 43.9274C72.5618 43.9686 72.2989 43.7779 72.2577 43.4995C71.6545 39.6072 70.0409 36.1015 67.7055 33.6269C65.4113 31.1884 62.6532 30.013 59.9466 30.312C57.7607 30.5543 55.7707 31.7349 54.1932 33.7197C51.6877 36.8748 50.538 41.7003 51.1257 46.6288C52.1156 54.9805 57.6886 61.2443 63.5451 60.5948C65.8134 60.3421 67.8601 59.0945 69.4583 56.9757C71.0358 54.8929 72.0824 52.0471 72.402 48.9642C72.433 48.6807 72.6856 48.4745 72.9691 48.5054C73.2527 48.5363 73.4589 48.7889 73.4279 49.0725C73.0825 52.3874 71.9947 55.3363 70.278 57.5995C68.4994 59.9452 66.2104 61.3371 63.6533 61.6207C63.3337 61.6516 63.0141 61.6722 62.6944 61.6722Z" fill="#1B3C87"/>
<path fill-rule="evenodd" clip-rule="evenodd" d="M73.2271 40.5558C72.0362 40.5558 68.9223 39.4835 68.0975 36.8336C67.1953 39.3391 60.0963 47.6341 55.6678 49.0931C56.0338 50.7738 56.3483 56.8056 51.8992 59.9658C47.4501 63.1261 44.0888 42.6695 46.2077 39.0453C48.3214 35.421 57.3227 28.3685 59.9519 28.3891C62.5709 28.42 73.6653 28.4716 73.2271 40.5558Z" fill="#121212"/>
<path d="M53.4149 56.6819C53.3273 56.6819 53.2345 56.6562 53.152 56.6098C52.9097 56.4654 52.8272 56.1458 52.9767 55.9035C54.7811 52.8876 54.5233 49.1963 54.2656 48.0312C54.2089 47.7734 54.3584 47.5157 54.6058 47.4332C56.1988 46.9073 58.4054 45.3195 60.8181 42.9583C61.0191 42.7572 61.3491 42.7624 61.545 42.9686C61.746 43.1697 61.7409 43.4996 61.5347 43.6955C58.6477 46.5207 56.6216 47.7373 55.3482 48.2529C55.4616 49.021 55.5235 50.1449 55.4101 51.3925C55.2348 53.3 54.7141 54.9961 53.8531 56.4293C53.7604 56.5891 53.5902 56.6819 53.4149 56.6819Z" fill="#1B3C87"/>
<path d="M64.6227 40.061C64.5093 40.061 64.3959 40.0249 64.298 39.9475C64.0763 39.7671 64.0453 39.4423 64.2206 39.2206C65.5095 37.6328 66.4374 36.2357 66.7107 35.483C66.788 35.2768 66.9839 35.1376 67.2056 35.1427C67.4273 35.1479 67.6232 35.2922 67.685 35.5036C68.0923 36.8028 69.1028 37.6121 69.8812 38.0658C70.8247 38.6123 71.8094 38.8649 72.3249 38.8649C72.6084 38.8649 72.8404 39.0969 72.8404 39.3804C72.8404 39.664 72.6084 39.896 72.3249 39.896C71.0515 39.896 68.4274 38.968 67.1695 36.8646C66.6901 37.6895 65.9477 38.7309 65.0197 39.8702C64.9218 39.9939 64.7774 40.061 64.6227 40.061Z" fill="#1B3C87"/>
<path fill-rule="evenodd" clip-rule="evenodd" d="M51.8835 49.9798C51.8835 48.4281 53.1415 47.1753 54.6881 47.1753C56.2347 47.1753 57.4926 48.4281 57.4926 49.9798C57.4926 51.5264 56.2347 52.7844 54.6881 52.7844C53.1415 52.7844 51.8835 51.5316 51.8835 49.9798Z" fill="white"/>
<path d="M53.9048 52.4905C52.0746 52.4905 50.5847 51.0006 50.5847 49.1704C50.5847 47.3402 52.0746 45.8503 53.9048 45.8503C54.4203 45.8503 54.9204 45.9689 55.3792 46.1958C55.6318 46.3246 55.7401 46.634 55.6112 46.8866C55.4823 47.1392 55.173 47.2474 54.9204 47.1186C54.6008 46.9587 54.2605 46.8814 53.9048 46.8814C52.6417 46.8814 51.6158 47.9073 51.6158 49.1704C51.6158 50.4335 52.6417 51.4594 53.9048 51.4594C54.1883 51.4594 54.4203 51.6914 54.4203 51.9749C54.4203 52.2585 54.1883 52.4905 53.9048 52.4905Z" fill="#1B3C87"/>
<path d="M69.3297 53.2432C69.1905 53.2432 69.0513 53.1865 68.9482 53.0782C68.0975 52.1503 67.1902 50.1294 67.1902 48.5931C67.1902 48.3095 67.4222 48.0775 67.7057 48.0775C67.9893 48.0775 68.2213 48.3095 68.2213 48.5931C68.2213 49.8149 69.0203 51.6296 69.706 52.3823C69.8968 52.5936 69.8864 52.9184 69.6751 53.1092C69.5823 53.1968 69.4534 53.2432 69.3297 53.2432Z" fill="#1B3C87"/>
<path fill-rule="evenodd" clip-rule="evenodd" d="M63.2515 46.2371C63.2515 45.4638 63.602 44.8348 64.0351 44.8348C64.4681 44.8348 64.8135 45.4638 64.8135 46.2371C64.8135 47.0104 64.463 47.6394 64.0351 47.6394C63.6072 47.6394 63.2515 47.0104 63.2515 46.2371Z" fill="#1B3C87"/>
<path fill-rule="evenodd" clip-rule="evenodd" d="M70 46.4023C70 45.629 70.3506 45 70.7836 45C71.2167 45 71.5621 45.629 71.5621 46.4023C71.5621 47.1756 71.2115 47.8045 70.7836 47.8045C70.3557 47.8045 70 47.1756 70 46.4023Z" fill="#1B3C87"/>
<path d="M64.7929 56.285C64.7826 56.285 64.7671 56.285 64.7568 56.285C63.303 56.187 62.2049 55.3828 61.6584 54.0218C61.5502 53.7588 61.6791 53.4598 61.9471 53.3516C62.2101 53.2433 62.5091 53.3722 62.6173 53.6403C63.0195 54.6404 63.7618 55.1869 64.829 55.259C65.1126 55.2797 65.3291 55.5271 65.3085 55.8107C65.2878 56.0788 65.061 56.285 64.7929 56.285Z" fill="#1B3C87"/>
<path d="M254.697 238.476C254.413 238.476 254.181 238.244 254.181 237.961V218.814C254.181 218.53 254.413 218.298 254.697 218.298C254.98 218.298 255.212 218.53 255.212 218.814V237.961C255.212 238.244 254.98 238.476 254.697 238.476Z" fill="#1B3C87"/>
<path d="M254.697 203.951C254.413 203.951 254.181 203.719 254.181 203.435V123.542C254.181 123.258 254.413 123.026 254.697 123.026C254.98 123.026 255.212 123.258 255.212 123.542V203.43C255.212 203.719 254.98 203.951 254.697 203.951Z" fill="#1B3C87"/>
<path d="M177.33 108.086C177.046 108.086 176.814 107.854 176.814 107.571V97.693C176.814 97.4095 177.046 97.1775 177.33 97.1775C177.613 97.1775 177.845 97.4095 177.845 97.693V107.571C177.845 107.854 177.613 108.086 177.33 108.086Z" fill="#1B3C87"/>
<path d="M184.31 119.794H180.918C178.655 119.794 176.814 117.954 176.814 115.69V112.211C176.814 111.927 177.046 111.695 177.33 111.695C177.613 111.695 177.845 111.927 177.845 112.211V115.69C177.845 117.387 179.222 118.763 180.918 118.763H184.31C186.006 118.763 187.383 117.387 187.383 115.69V97.4867C187.383 97.2032 187.615 96.9712 187.898 96.9712C188.182 96.9712 188.414 97.2032 188.414 97.4867V115.69C188.414 117.954 186.573 119.794 184.31 119.794Z" fill="#1B3C87"/>
<path d="M177.34 98.0796C177.056 98.0796 176.824 97.8476 176.824 97.564C176.824 95.8782 177.66 94.4141 178.469 93.0015C179.242 91.6456 179.974 90.3671 179.974 88.9494C179.974 88.6658 180.206 88.4338 180.49 88.4338C180.773 88.4338 181.005 88.6658 181.005 88.9494C181.005 90.6352 180.17 92.0993 179.361 93.5119C178.588 94.8678 177.856 96.1463 177.856 97.564C177.856 97.8476 177.629 98.0796 177.34 98.0796Z" fill="#1B3C87"/>
<path d="M187.878 98.0177C187.594 98.0177 187.362 97.7857 187.362 97.5022C187.362 96.0896 186.641 94.8214 185.878 93.481C185.084 92.0839 184.259 90.6403 184.259 88.9494C184.259 88.6658 184.491 88.4338 184.774 88.4338C185.058 88.4338 185.29 88.6658 185.29 88.9494C185.29 90.362 186.012 91.6302 186.775 92.9706C187.569 94.3677 188.393 95.8112 188.393 97.5022C188.393 97.7857 188.161 98.0177 187.878 98.0177Z" fill="#1B3C87"/>
<path d="M185.63 88.7123H179.598C178.877 88.7123 178.284 88.1246 178.284 87.3977V86.8151C178.284 86.0934 178.871 85.5005 179.598 85.5005H185.63C186.352 85.5005 186.945 86.0882 186.945 86.8151V87.4028C186.945 88.1246 186.352 88.7123 185.63 88.7123ZM179.598 86.5316C179.444 86.5316 179.315 86.6553 179.315 86.8151V87.4028C179.315 87.5575 179.444 87.6864 179.598 87.6864H185.63C185.785 87.6864 185.914 87.5575 185.914 87.4028V86.8151C185.914 86.6604 185.785 86.5316 185.63 86.5316H179.598Z" fill="#1B3C87"/>
<path d="M212.412 119.737H205.339C203.612 119.737 201.998 118.913 200.792 117.412C199.611 115.943 198.961 113.999 198.961 111.932C198.961 111.912 198.961 111.891 198.967 111.875L200.317 100.142C200.348 99.884 200.565 99.6881 200.823 99.683C201.472 99.6727 202.292 99.6675 203.328 99.6727C203.612 99.6727 203.844 99.9047 203.844 100.188C203.844 100.472 203.612 100.704 203.328 100.704C202.529 100.704 201.854 100.704 201.292 100.709L199.998 111.958C200.008 115.68 202.405 118.701 205.349 118.701H212.422C215.361 118.701 217.758 115.68 217.773 111.963L216.237 100.827C215.484 100.822 214.268 100.807 212.804 100.791C211.195 100.771 209.365 100.75 207.535 100.73C207.251 100.724 207.019 100.492 207.024 100.209C207.03 99.9253 207.256 99.6985 207.54 99.6985H207.545C209.38 99.7139 211.205 99.7397 212.819 99.7603C214.623 99.7809 216.052 99.8016 216.691 99.8016C216.949 99.8016 217.165 99.9923 217.201 100.245L218.805 111.86C218.81 111.886 218.81 111.906 218.81 111.932C218.81 113.994 218.16 115.943 216.979 117.412C215.753 118.913 214.139 119.737 212.412 119.737Z" fill="#1B3C87"/>
<path d="M218.542 112.339C218.325 112.339 218.124 112.205 218.052 111.989C217.959 111.721 218.109 111.427 218.377 111.334C220.243 110.705 221.496 108.963 221.496 106.993C221.496 104.467 219.444 102.415 216.918 102.415C216.634 102.415 216.402 102.183 216.402 101.9C216.402 101.616 216.634 101.384 216.918 101.384C220.011 101.384 222.527 103.9 222.527 106.993C222.527 109.406 220.991 111.546 218.702 112.314C218.65 112.329 218.599 112.339 218.542 112.339Z" fill="#1B3C87"/>
<path d="M199.684 108.756C199.488 108.756 199.297 108.643 199.215 108.452C199.194 108.406 197.147 103.848 195.611 100.4C195.539 100.24 195.554 100.054 195.647 99.9098C195.74 99.7654 195.905 99.6726 196.08 99.6726H200.689C200.973 99.6726 201.205 99.9046 201.205 100.188C201.205 100.472 200.973 100.704 200.689 100.704H196.874C198.359 104.034 200.137 107.988 200.153 108.029C200.271 108.287 200.153 108.597 199.895 108.71C199.823 108.741 199.751 108.756 199.684 108.756Z" fill="#1B3C87"/>
<path d="M247.448 119.505H236.302C236.019 119.505 235.787 119.273 235.787 118.99V97.3991C235.787 97.1155 236.019 96.8835 236.302 96.8835H247.448C247.732 96.8835 247.964 97.1155 247.964 97.3991V100.992C247.964 101.276 247.732 101.508 247.448 101.508C247.165 101.508 246.933 101.276 246.933 100.992V97.9146H236.818V118.474H246.933V106.318C246.933 106.034 247.165 105.802 247.448 105.802C247.732 105.802 247.964 106.034 247.964 106.318V118.99C247.964 119.273 247.732 119.505 247.448 119.505Z" fill="#1B3C87"/>
<path d="M247.448 97.9507H236.302C236.111 97.9507 235.936 97.8425 235.843 97.6723L232.554 91.3931C232.472 91.2333 232.477 91.0425 232.57 90.8878C232.662 90.7332 232.832 90.6404 233.013 90.6404H244.159C244.35 90.6404 244.525 90.7486 244.618 90.9188L247.907 97.198C247.989 97.3579 247.984 97.5486 247.891 97.7033C247.799 97.8579 247.628 97.9507 247.448 97.9507ZM236.611 96.9196H246.597L243.85 91.6715H233.864L236.611 96.9196Z" fill="#1B3C87"/>
<path d="M243.984 91.5633H232.941C232.657 91.5633 232.425 91.3313 232.425 91.0477V88.0679C232.425 87.7844 232.657 87.5524 232.941 87.5524H243.984C244.267 87.5524 244.499 87.7844 244.499 88.0679V91.0477C244.499 91.3313 244.267 91.5633 243.984 91.5633ZM233.456 90.5322H243.468V88.5834H233.456V90.5322Z" fill="#1B3C87"/>
<path d="M236.204 97.9508H229.693C229.513 97.9508 229.348 97.858 229.25 97.7033C229.152 97.5487 229.152 97.3579 229.234 97.1981L232.524 90.9188C232.658 90.6662 232.967 90.5683 233.219 90.7023C233.472 90.8364 233.57 91.1457 233.436 91.3983L230.544 96.9249H236.199C236.483 96.9249 236.715 97.1569 236.715 97.4404C236.715 97.7239 236.488 97.9508 236.204 97.9508Z" fill="#1B3C87"/>
<path d="M236.225 119.505H229.704C229.42 119.505 229.188 119.273 229.188 118.99V97.3991C229.188 97.1155 229.42 96.8835 229.704 96.8835H236.225C236.509 96.8835 236.741 97.1155 236.741 97.3991V118.99C236.741 119.273 236.514 119.505 236.225 119.505ZM230.219 118.474H235.71V97.9146H230.219V118.474Z" fill="#1B3C87"/>
<path d="M184.81 99.6005C184.094 99.6005 183.413 99.1675 182.692 98.7138C182.026 98.291 181.341 97.858 180.727 97.858C179.691 97.858 178.335 98.1054 177.778 99.2809C177.655 99.5386 177.351 99.6469 177.093 99.5283C176.835 99.4046 176.727 99.1004 176.845 98.8427C177.459 97.5435 178.835 96.8269 180.727 96.8269C181.64 96.8269 182.49 97.3682 183.243 97.8425C183.81 98.1982 184.393 98.5694 184.81 98.5694C185.97 98.5694 187.393 97.9611 187.393 97.4662C187.393 97.1826 187.625 96.9506 187.909 96.9506C188.192 96.9506 188.424 97.1826 188.424 97.4662C188.429 98.9561 186.032 99.6005 184.81 99.6005Z" fill="#1B3C87"/>
</svg>
