<svg width="202" height="252" viewBox="0 0 202 252" fill="none" xmlns="http://www.w3.org/2000/svg">
<path d="M173.248 53.2785C189.413 63.663 196.772 87.76 198.681 111.056C200.621 134.321 197.173 156.754 188.828 181.19C180.484 205.626 167.306 232.034 146.553 241.063C125.738 250.153 97.3801 241.802 76.073 228.028C54.7967 214.254 40.5098 194.995 27.1775 174.133C13.8451 153.272 1.37491 130.716 0.11249 105.355C-1.18072 79.9947 8.70308 51.7685 28.3783 42.0003C48.0843 32.2321 77.551 41.0143 104.801 43.6643C132.081 46.3452 157.083 42.8939 173.248 53.2785Z" fill="#E2EBF1"/>
<path d="M123.152 251.601C131.804 229.754 148.708 218.568 149.632 191.759C149.663 189.787 116.994 168.679 101.752 169.049C86.5109 169.419 66.5586 251.601 66.5586 251.601C72.8707 251.601 123.152 251.601 123.152 251.601Z" fill="white"/>
<path d="M154.404 15.9004H56.644V190.219H154.404V15.9004Z" fill="#EEEEEF"/>
<path d="M144.644 92.228H66.374V122.55H144.644V92.228Z" fill="white"/>
<path d="M134.021 101.719H98.2424C97.8421 101.719 97.5034 101.38 97.5034 100.979C97.5034 100.579 97.8421 100.24 98.2424 100.24H134.021C134.421 100.24 134.76 100.579 134.76 100.979C134.76 101.38 134.421 101.719 134.021 101.719Z" fill="#E2EBF1"/>
<path d="M112.776 111.087H98.2424C97.8421 111.087 97.5034 110.748 97.5034 110.347C97.5034 109.947 97.8421 109.608 98.2424 109.608H112.776C113.176 109.608 113.515 109.947 113.515 110.347C113.515 110.748 113.176 111.087 112.776 111.087Z" fill="#E2EBF1"/>
<path d="M81.9848 115.647C86.5422 115.647 90.2367 111.95 90.2367 107.389C90.2367 102.828 86.5422 99.1305 81.9848 99.1305C77.4274 99.1305 73.7329 102.828 73.7329 107.389C73.7329 111.95 77.4274 115.647 81.9848 115.647Z" fill="#F1B257"/>
<path d="M135.222 226.765C135.099 226.765 134.945 226.734 134.822 226.641C134.483 226.426 134.391 225.963 134.606 225.624C141.041 215.64 146.83 205.441 147.354 190.188C147.354 189.787 147.723 189.448 148.123 189.479C148.524 189.479 148.862 189.849 148.831 190.249C148.308 205.872 142.396 216.288 135.838 226.426C135.715 226.672 135.468 226.765 135.222 226.765Z" fill="#1B3C87"/>
<path d="M121.612 250.8C121.52 250.8 121.428 250.769 121.335 250.738C120.966 250.584 120.781 250.153 120.935 249.783C122.629 245.561 124.722 241.371 127.586 236.594C127.801 236.255 128.263 236.132 128.602 236.348C128.941 236.564 129.064 237.026 128.848 237.365C126.016 242.049 123.953 246.178 122.29 250.338C122.197 250.615 121.92 250.8 121.612 250.8Z" fill="#1B3C87"/>
<path d="M144.644 47.701H66.374V78.0226H144.644V47.701Z" fill="white"/>
<path d="M154.404 15.9004H56.644V33.8653H154.404V15.9004Z" fill="#696A6B"/>
<path d="M154.404 172.284H56.644V190.249H154.404V172.284Z" fill="#696A6B"/>
<path d="M112.776 25.6069H98.2424C97.8421 25.6069 97.5034 25.2679 97.5034 24.8674C97.5034 24.4668 97.8421 24.1278 98.2424 24.1278H112.776C113.176 24.1278 113.515 24.4668 113.515 24.8674C113.515 25.2679 113.176 25.6069 112.776 25.6069Z" fill="#1B3C87"/>
<path d="M105.509 185.565C107.89 185.565 109.82 183.634 109.82 181.251C109.82 178.869 107.89 176.937 105.509 176.937C103.128 176.937 101.198 178.869 101.198 181.251C101.198 183.634 103.128 185.565 105.509 185.565Z" fill="#9B9B9D"/>
<path d="M42.3267 251.601C46.9453 234.037 47.869 166.861 42.3267 151.454C50.3322 145.599 83.2782 120.639 88.2047 116.633C92.8233 119.715 90.668 145.291 75.5806 156.384C75.5806 159.157 75.5806 164.088 75.5806 164.088C83.5861 164.088 95.5945 190.896 88.8205 219.246C84.9101 231.664 97.0109 251.601 97.0109 251.601C87.6813 251.601 42.3267 251.601 42.3267 251.601Z" fill="white"/>
<path d="M87.2808 218.445C87.2193 218.445 87.1577 218.445 87.0961 218.414C86.6958 218.321 86.4495 217.921 86.5419 217.52C91.1605 198.23 86.9114 179.064 80.9996 169.388C80.784 169.049 80.9072 168.587 81.2459 168.371C81.5846 168.155 82.0464 168.278 82.262 168.617C85.495 173.948 87.9582 181.313 89.1591 189.386C90.5754 198.846 90.1752 208.707 87.9582 217.859C87.8967 218.229 87.6195 218.445 87.2808 218.445Z" fill="#1B3C87"/>
<path d="M74.0407 161.191C73.6405 161.191 73.3018 160.852 73.3018 160.452V154.843C73.3018 154.597 73.4249 154.381 73.6097 154.258C84.5711 146.184 88.266 130.716 88.0813 122.303C87.9889 118.914 87.3423 116.941 86.6341 116.079C85.7412 116.787 84.3248 117.897 82.4158 119.345C82.1079 119.591 81.646 119.53 81.3689 119.222C81.1226 118.914 81.1842 118.451 81.4921 118.174C83.8014 116.387 85.3717 115.185 86.1722 114.507C86.4186 114.291 86.7881 114.291 87.0344 114.476C89.0666 115.832 89.4668 119.93 89.5284 122.242C89.7132 130.9 85.9567 146.739 74.7489 155.213V160.452C74.7797 160.852 74.441 161.191 74.0407 161.191Z" fill="#1B3C87"/>
<path d="M45.4057 147.232C45.1902 147.232 44.9747 147.14 44.8207 146.924C44.5744 146.585 44.636 146.123 44.9747 145.907C51.841 140.792 63.1104 132.256 72.3476 125.2C72.6863 124.953 73.1173 125.015 73.3944 125.354C73.6408 125.662 73.5792 126.124 73.2405 126.371C63.9725 133.427 52.7031 141.932 45.8368 147.078C45.7137 147.17 45.5597 147.232 45.4057 147.232Z" fill="#1B3C87"/>
<path d="M40.787 250.8C40.7254 250.8 40.6639 250.8 40.6023 250.769C40.202 250.677 39.9865 250.276 40.0788 249.876C43.6198 236.41 45.0361 191.636 42.7268 165.813C42.696 165.413 43.0039 165.043 43.4042 165.012C43.8045 164.981 44.174 165.289 44.2048 165.69C46.5757 192.129 45.1593 236.41 41.4952 250.276C41.4028 250.584 41.0949 250.8 40.787 250.8Z" fill="#1B3C87"/>
<path d="M134.021 57.1919H127.247C126.847 57.1919 126.508 56.8529 126.508 56.4523C126.508 56.0517 126.847 55.7128 127.247 55.7128H134.021C134.421 55.7128 134.76 56.0517 134.76 56.4523C134.76 56.8529 134.421 57.1919 134.021 57.1919Z" fill="#E2EBF1"/>
<path d="M120.473 57.1919H98.2424C97.8421 57.1919 97.5034 56.8529 97.5034 56.4523C97.5034 56.0517 97.8421 55.7128 98.2424 55.7128H120.473C120.874 55.7128 121.212 56.0517 121.212 56.4523C121.212 56.8529 120.874 57.1919 120.473 57.1919Z" fill="#E2EBF1"/>
<path d="M112.776 66.5595H98.2424C97.8421 66.5595 97.5034 66.2206 97.5034 65.82C97.5034 65.4194 97.8421 65.0804 98.2424 65.0804H112.776C113.176 65.0804 113.515 65.4194 113.515 65.82C113.515 66.2206 113.176 66.5595 112.776 66.5595Z" fill="#E2EBF1"/>
<path d="M81.9848 71.1201C86.5422 71.1201 90.2367 67.4228 90.2367 62.8618C90.2367 58.3009 86.5422 54.6035 81.9848 54.6035C77.4274 54.6035 73.7329 58.3009 73.7329 62.8618C73.7329 67.4228 77.4274 71.1201 81.9848 71.1201Z" fill="#709CBC"/>
<path d="M164.627 145.198C187.35 160.39 150.556 189.263 140.733 197.244C138.178 195.395 136.423 170.651 164.627 145.198Z" fill="white"/>
<path d="M139.194 196.443C139.071 196.443 138.948 196.412 138.855 196.351C137.993 195.888 137.377 194.933 137.008 193.546C136.3 190.773 136.7 186.367 138.085 181.436C139.687 175.705 142.519 169.603 146.276 163.779C146.491 163.441 146.953 163.348 147.292 163.564C147.631 163.779 147.723 164.242 147.507 164.581C138.917 177.985 137.377 189.017 138.424 193.177C138.609 193.885 138.855 194.409 139.163 194.779L139.563 194.471C141.411 192.992 143.936 190.927 146.738 188.524C147.046 188.246 147.507 188.277 147.785 188.585C148.062 188.893 148.031 189.356 147.723 189.633C144.89 192.067 142.365 194.132 140.518 195.611L139.687 196.289C139.533 196.381 139.348 196.443 139.194 196.443Z" fill="#1B3C87"/>
<path d="M161.086 175.951C160.932 175.951 160.747 175.89 160.624 175.766C160.316 175.52 160.286 175.027 160.532 174.719C167.306 166.584 170.323 159.62 169.523 153.95C168.969 150.16 166.69 146.893 162.687 144.243C162.349 144.027 162.256 143.565 162.472 143.226C162.687 142.887 163.149 142.795 163.488 143.011C167.829 145.907 170.354 149.543 170.97 153.734C171.832 159.835 168.722 167.2 161.671 175.674C161.517 175.859 161.302 175.951 161.086 175.951Z" fill="#1B3C87"/>
<path d="M174.449 38.6415C171.801 38.6415 169.646 36.4845 169.646 33.8344C169.646 31.1844 171.801 29.0273 174.449 29.0273C177.097 29.0273 179.252 31.1844 179.252 33.8344C179.283 36.4845 177.128 38.6415 174.449 38.6415ZM174.449 30.5064C172.602 30.5064 171.093 32.0164 171.093 33.8652C171.093 35.7141 172.602 37.224 174.449 37.224C176.296 37.224 177.805 35.7141 177.805 33.8652C177.805 31.9855 176.296 30.5064 174.449 30.5064Z" fill="#C5D7E4"/>
<path d="M170.662 19.8138C168.691 19.8138 166.751 19.2283 165.12 18.119C164.781 17.9033 164.689 17.4411 164.935 17.1021C165.15 16.7631 165.612 16.6707 165.951 16.9172C167.337 17.8725 168.968 18.3655 170.662 18.3655C175.311 18.3655 179.099 14.5753 179.099 9.9223C179.099 5.26929 175.311 1.4791 170.662 1.4791C166.013 1.4791 162.225 5.26929 162.225 9.9223C162.225 10.0456 162.225 10.1688 162.225 10.2921C162.256 10.6927 161.917 11.0316 161.517 11.0624C161.117 11.0624 160.778 10.7543 160.747 10.3537C160.747 10.2304 160.747 10.0764 160.747 9.9223C160.747 4.46811 165.181 0 170.662 0C176.143 0 180.577 4.4373 180.577 9.9223C180.577 15.4073 176.112 19.8138 170.662 19.8138Z" fill="#C5D7E4"/>
<path d="M192.369 23.3574C192.308 23.3574 192.215 23.3574 192.154 23.3266C189.105 22.433 187.012 19.5673 187.012 16.3933C187.012 12.4183 190.245 9.18274 194.217 9.18274C198.189 9.18274 201.422 12.4183 201.422 16.3933C201.422 17.9341 200.929 19.4132 200.036 20.6766C199.79 21.0155 199.328 21.0772 199.02 20.8306C198.681 20.5841 198.62 20.1219 198.866 19.8138C199.605 18.8277 199.975 17.6567 199.975 16.4242C199.975 13.2503 197.388 10.6618 194.217 10.6618C191.045 10.6618 188.459 13.2503 188.459 16.4242C188.459 18.951 190.152 21.2004 192.554 21.94C192.954 22.0632 193.17 22.4638 193.047 22.8644C192.985 23.1417 192.677 23.3574 192.369 23.3574Z" fill="#C5D7E4"/>
<path d="M156.56 131.424C132.543 145.907 129.772 177.338 132.851 179.187C141.472 175.797 173.495 140.36 173.495 124.029C173.495 120.331 162.779 113.336 160.316 112.35C158.931 111.795 160.409 109.546 155.482 114.076C155.513 118.605 155.174 127.018 156.56 131.424Z" fill="white"/>
<path d="M166.967 137.988C166.844 137.988 166.721 137.957 166.628 137.895C166.259 137.71 166.136 137.248 166.351 136.909C169.584 130.993 171.247 126.124 171.247 122.519C171.247 119.499 161.394 112.658 158.53 111.518C158.161 111.364 157.976 110.933 158.13 110.563C158.284 110.193 158.715 110.008 159.085 110.162C161.209 111.025 172.725 118.174 172.725 122.55C172.725 126.432 171.031 131.517 167.644 137.649C167.46 137.834 167.213 137.988 166.967 137.988Z" fill="#1B3C87"/>
<path d="M131.311 178.386C131.188 178.386 131.034 178.355 130.942 178.293C130.018 177.739 129.556 176.013 129.556 173.147C129.556 168.402 130.942 160.328 134.852 151.916C138.024 145.106 143.997 135.677 154.651 129.236C154.989 129.021 155.451 129.144 155.667 129.483C155.882 129.822 155.759 130.284 155.421 130.5C147.446 135.307 140.887 142.702 136.484 151.885C131.712 161.838 131.096 170.066 131.034 172.346C130.973 174.811 131.25 176.198 131.527 176.752C136.053 174.595 145.875 164.981 154.374 154.381C154.62 154.073 155.082 154.011 155.421 154.258C155.728 154.504 155.79 154.967 155.544 155.305C146.46 166.645 136.176 176.537 131.619 178.324C131.496 178.386 131.404 178.386 131.311 178.386Z" fill="#1B3C87"/>
<path d="M155.944 92.2897C160.871 88.592 178.113 71.9521 179.961 69.4869C183.964 68.2543 191.045 87.6675 155.944 116.017" fill="white"/>
<path d="M154.404 115.216C154.189 115.216 153.973 115.123 153.819 114.938C153.573 114.63 153.604 114.168 153.942 113.891C159.3 109.577 163.98 105.201 167.829 100.918C168.106 100.61 168.568 100.579 168.876 100.856C169.184 101.133 169.215 101.596 168.938 101.904C165.027 106.249 160.316 110.655 154.897 115.031C154.712 115.154 154.558 115.216 154.404 115.216Z" fill="#1B3C87"/>
<path d="M175.465 92.9676C175.342 92.9676 175.188 92.9368 175.065 92.8443C174.726 92.6286 174.634 92.1664 174.849 91.8275C182.27 80.3644 181.87 72.1061 179.776 69.3328C179.437 68.9014 179.098 68.6549 178.791 68.6241C176.204 71.7055 159.762 87.6059 154.805 91.3344C154.466 91.5809 154.004 91.5193 153.788 91.1803C153.542 90.8414 153.604 90.3792 153.942 90.1635C158.992 86.3733 176.05 69.8567 177.805 67.5147C177.898 67.3915 178.021 67.299 178.175 67.2374C179.129 66.9293 180.145 67.3915 180.946 68.4392C182.947 71.0892 184.518 79.5633 176.081 92.6286C175.958 92.8443 175.711 92.9676 175.465 92.9676Z" fill="#1B3C87"/>
</svg>
