<svg width="219" height="237" viewBox="0 0 219 237" fill="none" xmlns="http://www.w3.org/2000/svg">
<path d="M118.994 160.978L35.6672 109.637L62.7686 64.3334L146.095 115.675L118.994 160.978ZM36.6666 109.396L118.756 159.964L145.12 115.916L63.0303 65.3476L36.6666 109.396Z" fill="#C5D7E4"/>
<path d="M219 233.402H28.5767V235.817H219V233.402Z" fill="#EEEEEF"/>
<path d="M162.18 0H131.771V233.402H162.18V0Z" fill="#EEEEEF"/>
<path d="M108.406 107.681C107.264 112.294 100.911 165.929 101.029 170.541C102.291 174.357 136.149 217.729 136.149 217.729L142.407 209.663L120.136 162.717L123.872 110.362L108.406 107.681Z" fill="#1E2020"/>
<path d="M134.959 216.908C134.84 216.908 134.745 216.86 134.674 216.763C133.294 215 100.744 173.294 99.4826 169.479C99.4826 169.431 99.4588 169.406 99.4588 169.358C99.435 168.465 99.6492 165.808 100.077 161.461C100.101 161.244 100.292 161.099 100.482 161.123C100.696 161.147 100.839 161.341 100.815 161.534C100.292 166.75 100.196 168.609 100.196 169.262C101.386 172.473 123.229 200.873 134.936 215.894L140.741 208.383L118.565 161.655C118.542 161.582 118.518 161.534 118.518 161.461L122.253 109.468L107.501 106.908C106.692 110.845 104.075 131.806 102.171 148.807C102.148 149.025 101.957 149.169 101.743 149.145C101.529 149.121 101.386 148.928 101.41 148.711C103.385 131.082 106.121 109.227 106.835 106.353C106.883 106.16 107.073 106.039 107.263 106.063L122.729 108.744C122.92 108.768 123.062 108.961 123.039 109.154L119.303 161.389L141.527 208.238C141.598 208.359 141.574 208.528 141.479 208.649L135.221 216.715C135.174 216.86 135.078 216.908 134.959 216.908Z" fill="#1B3C87"/>
<path d="M116.281 217.053L121.064 112.656C121.064 112.656 149.331 116.133 149.331 117.969C149.331 119.828 126.965 217.029 126.965 217.029H116.281V217.053Z" fill="#1E2020"/>
<path d="M90.8931 75.8284C91.3927 77.4464 99.1496 98.9633 101.529 100.944C103.908 102.9 111.38 101.789 111.713 101.33C112.046 100.871 114.378 80.1028 114.378 80.1028L106.074 79.5474C105.074 82.083 104.146 85.3432 103.861 86.2367C103.147 84.2806 96.3181 73.3652 96.0564 72.5924" fill="white"/>
<path d="M0 179.066L23.0088 202.901L31.8364 170.759L0 179.066Z" fill="#FCEFDB"/>
<path d="M101.814 83.701C101.672 83.701 101.553 83.6286 101.481 83.5078C100.434 81.5759 98.6022 78.5089 97.127 76.0457C95.4852 73.2927 94.6048 71.8196 94.4858 71.5057C94.4145 71.3125 94.5096 71.0951 94.7238 71.0227C94.9141 70.9502 95.1283 71.0468 95.1997 71.2642C95.2948 71.554 96.5559 73.6308 97.7694 75.6835C99.2446 78.1467 101.077 81.2136 102.147 83.1697C102.243 83.3629 102.171 83.5803 102.005 83.701C101.933 83.6769 101.862 83.701 101.814 83.701Z" fill="#1B3C87"/>
<path d="M102.053 100.606C101.22 100.606 100.554 100.412 100.078 100.026C99.3638 99.4222 98.1979 97.2971 96.5561 93.5057C96.461 93.3125 96.5561 93.0951 96.7465 92.9985C96.9368 92.9019 97.151 92.9985 97.2462 93.1917C99.2211 97.7076 100.125 99.06 100.554 99.4222C102.552 101.064 109.69 97.2729 110.499 96.5485C110.785 95.5825 111.951 85.8987 112.712 79.2335L105.074 78.7264C104.575 80.0304 104.027 81.6484 103.409 83.6769C103.337 83.8701 103.123 83.9909 102.933 83.9426C102.743 83.8701 102.624 83.6528 102.671 83.4596C103.337 81.262 103.932 79.5233 104.456 78.1709C104.527 78.026 104.67 77.9294 104.836 77.9294L113.141 78.4849C113.236 78.4849 113.331 78.5332 113.402 78.6298C113.474 78.7264 113.497 78.823 113.497 78.9196C112.593 86.9129 111.427 96.5485 111.094 96.9831C110.737 97.4903 106.002 100.147 102.79 100.533C102.576 100.581 102.29 100.606 102.053 100.606Z" fill="#1B3C87"/>
<path d="M94.6525 88.2894C94.5097 88.2894 94.367 88.1928 94.2956 88.0479C91.8686 81.9382 89.6082 75.6352 89.3464 74.7417C89.2751 74.5485 89.394 74.3312 89.6082 74.2587C89.7985 74.1863 90.0127 74.307 90.0841 74.5244C90.3458 75.4179 92.6062 81.6967 95.0094 87.7823C95.0808 87.9755 94.9856 88.1928 94.7953 88.2894C94.7477 88.2653 94.7001 88.2894 94.6525 88.2894Z" fill="#1B3C87"/>
<path d="M125.513 215.99H114.83C114.735 215.99 114.616 215.942 114.544 215.869C114.473 215.797 114.425 215.7 114.449 215.58L117.304 153.54C117.304 153.323 117.495 153.154 117.709 153.178C117.923 153.178 118.09 153.371 118.066 153.589L115.258 215.217H125.252C125.585 213.817 127.012 207.562 129.011 198.844C129.059 198.627 129.273 198.506 129.463 198.555C129.677 198.603 129.796 198.82 129.749 199.013C127.464 208.963 125.918 215.676 125.918 215.676C125.846 215.869 125.704 215.99 125.513 215.99Z" fill="#1B3C87"/>
<path d="M132.509 185.538C132.485 185.538 132.461 185.538 132.414 185.538C132.199 185.49 132.08 185.272 132.128 185.079C141.86 142.504 147.309 118.259 147.499 116.592C146.714 115.747 136.887 113.743 119.969 111.642L118.756 138.013C118.756 138.23 118.566 138.399 118.351 138.375C118.137 138.375 117.971 138.182 117.994 137.964L119.208 111.183C119.208 111.086 119.256 110.965 119.351 110.917C119.422 110.845 119.541 110.821 119.636 110.821C119.708 110.821 126.798 111.69 133.77 112.801C148.237 115.047 148.237 115.988 148.237 116.544C148.237 117.486 143.05 140.596 132.842 185.272C132.842 185.417 132.675 185.538 132.509 185.538Z" fill="#1B3C87"/>
<path d="M133.342 219.009C133.27 219.009 133.175 218.985 133.104 218.936C132.937 218.792 132.913 218.55 133.056 218.405L144.358 204.061C144.501 203.892 144.739 203.867 144.882 204.012C145.048 204.157 145.072 204.399 144.929 204.544L133.627 218.888C133.556 218.961 133.437 219.009 133.342 219.009Z" fill="#1B3C87"/>
<path d="M139.385 218.309C139.314 218.309 139.219 218.284 139.147 218.236C138.981 218.091 138.957 217.85 139.1 217.705L146.167 208.745C146.309 208.576 146.547 208.552 146.69 208.697C146.857 208.842 146.88 209.084 146.738 209.228L139.671 218.164C139.6 218.26 139.481 218.309 139.385 218.309Z" fill="#1B3C87"/>
<path d="M135.935 222.68C135.864 222.68 135.769 222.655 135.697 222.607C135.531 222.462 135.507 222.221 135.65 222.076L136.459 221.037C136.601 220.868 136.839 220.844 136.982 220.989C137.149 221.134 137.172 221.375 137.03 221.52L136.221 222.559C136.149 222.631 136.03 222.68 135.935 222.68Z" fill="#1B3C87"/>
<path d="M129.273 216.014H110.951C110.737 216.014 110.571 215.845 110.571 215.628C110.571 215.411 110.737 215.242 110.951 215.242H129.273C129.487 215.242 129.654 215.411 129.654 215.628C129.654 215.845 129.463 216.014 129.273 216.014Z" fill="#1B3C87"/>
<path d="M128.916 220.313H110.595C110.38 220.313 110.214 220.144 110.214 219.927C110.214 219.709 110.38 219.54 110.595 219.54H128.916C129.13 219.54 129.297 219.709 129.297 219.927C129.297 220.144 129.13 220.313 128.916 220.313Z" fill="#1B3C87"/>
<path d="M138.505 138.375C138.362 138.375 138.219 138.302 138.148 138.157L132.271 125.093C132.176 124.9 132.271 124.682 132.461 124.586C132.651 124.489 132.866 124.586 132.961 124.779L138.838 137.844C138.933 138.037 138.838 138.254 138.648 138.351C138.6 138.375 138.552 138.375 138.505 138.375Z" fill="#1B3C87"/>
<path d="M88.9181 71.9163C88.7753 71.9163 88.6326 71.8197 88.5612 71.6989L82.1606 57.4751C82.113 57.3543 82.113 57.2094 82.1844 57.1128C82.2558 56.9921 82.3748 56.9438 82.4937 56.9196L89.2988 56.7264C89.4416 56.7264 89.5843 56.7989 89.6557 56.9438L96.0563 71.1677C96.1039 71.2884 96.1039 71.4333 96.0325 71.5299C95.9611 71.6506 95.8422 71.6989 95.7232 71.7231L88.9181 71.9163ZM83.0886 57.6683L89.156 71.1435L95.1283 70.9745L89.0609 57.4992L83.0886 57.6683Z" fill="#1B3C87"/>
<path d="M89.7034 75.0074C89.5368 75.0074 89.3703 74.8866 89.3465 74.7176C89.0847 73.655 88.4185 71.3125 88.2519 70.9503C88.1568 70.7571 88.2519 70.5398 88.4423 70.4432C88.6326 70.3466 88.8468 70.4432 88.942 70.6364C89.1561 71.0952 89.8461 73.6067 90.0841 74.5244C90.1317 74.7417 90.0127 74.9349 89.7985 74.9832C89.751 75.0074 89.7272 75.0074 89.7034 75.0074Z" fill="#1B3C87"/>
<path d="M110.142 83.6769C108.976 82.9283 105.169 80.8273 104.408 79.0886C105.859 70.419 112.783 56.6781 121.873 60.0349C124.252 60.8559 114.925 86.3333 110.142 83.6769Z" fill="#709CBC"/>
<path d="M109.69 83.049C109.381 83.049 109.072 82.9765 108.762 82.8075C108.596 82.6867 108.382 82.566 108.144 82.4211C106.55 81.4551 103.575 79.6439 102.862 78.0259C102.838 77.9535 102.814 77.8811 102.838 77.8086C103.028 76.7219 103.29 75.5869 103.623 74.4036C103.671 74.2104 103.885 74.0896 104.099 74.1379C104.289 74.1862 104.408 74.4036 104.361 74.6209C104.051 75.7318 103.789 76.7943 103.623 77.8328C104.313 79.2093 107.168 80.948 108.548 81.7691C108.786 81.914 109 82.0347 109.167 82.1555C110.19 82.7109 111.76 81.5034 113.569 78.7263C115.449 75.8525 117.566 71.2883 119.065 66.7966C120.826 61.5562 120.826 59.4069 120.564 59.1896C113.593 56.6298 108.643 64.7197 106.835 68.2938C106.74 68.487 106.502 68.5595 106.335 68.4629C106.145 68.3663 106.074 68.1248 106.169 67.9557C110.19 59.9865 115.52 56.5332 120.826 58.4651C121.159 58.5859 121.349 58.8998 121.421 59.4069C121.944 63.2467 115.758 79.33 111.308 82.4694C110.737 82.8558 110.214 83.049 109.69 83.049Z" fill="#1B3C87"/>
<path d="M130.082 58.2961C155.446 58.2961 149.402 114.612 145.453 117.075C141.503 119.514 110.832 114.636 107.454 110.024C106.145 96.5967 111.951 58.2961 130.082 58.2961Z" fill="#709CBC"/>
<path d="M123.063 115.022C123.039 115.022 123.015 115.022 122.991 115.022C118.827 114.226 115.092 113.308 112.189 112.342C108.858 111.231 106.764 110.144 105.979 109.082C105.931 109.034 105.907 108.961 105.907 108.889C105.384 103.527 106.026 95.027 107.549 87.2509C107.597 87.0336 107.787 86.9129 108.001 86.937C108.215 86.9853 108.334 87.1785 108.31 87.3958C106.811 95.0511 106.169 103.383 106.669 108.695C108.12 110.482 114.402 112.608 123.158 114.274C123.372 114.322 123.491 114.515 123.467 114.733C123.396 114.878 123.229 115.022 123.063 115.022Z" fill="#1B3C87"/>
<path d="M139.718 116.906C137.363 116.906 134.674 116.665 132.747 116.471C132.533 116.447 132.39 116.254 132.414 116.037C132.438 115.819 132.628 115.675 132.842 115.699C138.695 116.327 142.907 116.278 144.097 115.53C145.405 114.709 147.452 105.604 147.523 93.7471C147.57 85.633 146.595 66.048 136.459 59.576C136.292 59.4553 136.221 59.2138 136.34 59.0447C136.459 58.8757 136.697 58.8032 136.863 58.924C140.98 61.5562 144.049 66.4344 145.976 73.4859C147.951 80.6099 148.308 88.4343 148.284 93.7471C148.213 104.3 146.405 114.998 144.501 116.182C143.621 116.737 141.789 116.906 139.718 116.906Z" fill="#1B3C87"/>
<path d="M110.571 77.4705C110.523 77.4705 110.499 77.4705 110.452 77.4464C110.261 77.3739 110.142 77.1566 110.214 76.9634C112.903 68.8251 117.875 58.7308 126.322 56.992C126.536 56.9437 126.727 57.0886 126.774 57.2818C126.822 57.4992 126.679 57.6924 126.489 57.7407C118.399 59.4069 113.569 69.2598 110.951 77.2049C110.88 77.3498 110.737 77.4705 110.571 77.4705Z" fill="#1B3C87"/>
<path d="M143.05 85.4881C143.383 88.217 146.048 95.7998 145.667 97.2488C145.286 98.6977 136.244 127.991 135.15 129.053C135.578 130.092 137.672 134.608 137.767 135.211C139.123 133.883 156.541 102.296 156.802 99.6395C157.064 96.9831 157.897 82.9525 157.469 81.1654C157.04 79.3784 142.74 83.4837 143.05 85.4881Z" fill="white"/>
<path d="M136.577 134.39C136.53 134.39 136.506 134.39 136.458 134.366C136.316 134.318 136.22 134.197 136.197 134.052C136.149 133.69 135.007 131.13 134.388 129.729C134.055 128.957 133.746 128.305 133.627 127.967C133.555 127.822 133.603 127.653 133.722 127.532C133.865 127.387 134.412 126.3 136.601 119.732C136.672 119.538 136.887 119.418 137.077 119.49C137.267 119.563 137.386 119.78 137.315 119.973C135.364 125.817 134.674 127.387 134.412 127.87C134.555 128.232 134.817 128.788 135.102 129.415C135.84 131.058 136.411 132.362 136.72 133.183C138.052 131.178 142.026 124.175 146.19 116.52C151.591 106.57 155.16 99.4463 155.256 98.3838C155.279 98.1181 155.303 97.7559 155.351 97.2971C155.375 97.0797 155.541 96.9348 155.755 96.9348C155.969 96.959 156.112 97.128 156.112 97.3454C156.088 97.8042 156.041 98.1906 156.017 98.4562C155.85 100.171 149.569 111.931 146.856 116.882C142.526 124.851 137.624 133.521 136.863 134.269C136.768 134.366 136.672 134.39 136.577 134.39Z" fill="#1B3C87"/>
<path d="M139.195 113.405C139.147 113.405 139.124 113.405 139.076 113.38C138.886 113.308 138.767 113.091 138.838 112.897C141.384 105.001 143.906 96.7174 144.12 95.9446C144.311 95.196 143.454 92.1049 142.764 89.6176C142.169 87.5166 141.622 85.5122 141.479 84.3289C141.17 82.3245 149.212 80.0545 152.02 79.4991C155.898 78.7263 156.517 79.3542 156.636 79.8854C156.826 80.6582 156.803 83.5078 156.588 88.3135C156.588 88.5309 156.398 88.6999 156.184 88.6758C155.97 88.6758 155.803 88.4826 155.827 88.2652C156.089 82.0589 155.994 80.465 155.898 80.0545C155.399 79.4508 149.165 80.5858 144.668 82.5902C142.621 83.5078 142.217 84.0874 142.241 84.2323C142.383 85.3673 142.954 87.4441 143.502 89.4244C144.501 93.0226 145.096 95.2685 144.858 96.1378C144.644 96.9106 142.098 105.218 139.576 113.115C139.504 113.308 139.362 113.405 139.195 113.405Z" fill="#1B3C87"/>
<path d="M143.906 60.9042C152.972 58.8032 159.682 77.543 158.611 82.3245C155.732 85.1741 144.406 88.2169 141.408 86.5989C139.433 82.8558 137.244 62.4739 143.906 60.9042Z" fill="#709CBC"/>
<path d="M142.717 86.2367C141.574 86.2367 140.646 86.0918 140.028 85.7538C139.956 85.7296 139.909 85.6572 139.861 85.5847C138.981 83.8943 138.172 79.3784 137.91 74.8625C137.91 74.6451 138.053 74.4761 138.267 74.4519C138.481 74.4278 138.648 74.5968 138.672 74.8142C138.933 79.644 139.79 83.6528 140.48 85.1017C143.335 86.4299 154.066 83.7252 157.064 80.8998C157.659 77.7604 154.804 67.8109 149.831 62.7396C147.523 60.3971 145.167 59.5036 142.812 60.059C140.337 60.6386 139.338 64.1644 138.933 67.014C138.91 67.2313 138.719 67.3762 138.505 67.3521C138.291 67.3279 138.148 67.1347 138.172 66.9174C138.814 62.4256 140.313 59.8658 142.645 59.3346C145.286 58.7308 147.88 59.6968 150.378 62.2325C155.446 67.3762 158.587 77.7121 157.802 81.2137C157.778 81.2861 157.754 81.3586 157.707 81.4069C155.351 83.7011 147.404 86.2367 142.717 86.2367Z" fill="#1B3C87"/>
<path d="M138.005 49.385C137.767 51.7999 136.601 59.8657 136.887 62.1599C135.745 63.1742 129.463 63.9953 127.464 61.7735C128.297 59.5518 128.583 55.1567 128.487 53.2247C128.392 51.2686 138.005 49.385 138.005 49.385Z" fill="white"/>
<path d="M131.152 62.6189C129.701 62.6189 127.393 62.3774 126.227 61.0733C126.084 60.9043 126.108 60.6628 126.251 60.5179C126.417 60.373 126.655 60.3971 126.798 60.542C127.559 61.4114 129.273 61.8944 131.462 61.8461C131.676 61.8461 131.842 62.0151 131.842 62.2325C131.842 62.4498 131.676 62.6189 131.462 62.6189C131.367 62.6189 131.271 62.6189 131.152 62.6189Z" fill="#1B3C87"/>
<path d="M134.484 62.2082C134.317 62.2082 134.151 62.0875 134.127 61.9184C134.079 61.7011 134.198 61.5079 134.389 61.4596C135.007 61.2905 135.34 61.1456 135.531 61.0249C135.388 59.0205 135.983 54.1182 136.387 50.8098C136.482 50.0853 136.554 49.4091 136.625 48.902C131.367 49.9887 127.893 51.486 127.94 52.2346C127.988 53.273 127.94 54.8427 127.798 56.34C127.774 56.5573 127.583 56.7022 127.393 56.678C127.179 56.6539 127.036 56.4607 127.06 56.2675C127.203 54.8186 127.25 53.273 127.203 52.2829C127.179 51.6309 127.655 50.6166 132.199 49.2401C134.579 48.5398 137.006 48.0568 137.03 48.0326C137.149 48.0085 137.268 48.0326 137.363 48.1292C137.458 48.2017 137.506 48.3224 137.482 48.4432C137.434 48.9986 137.315 49.868 137.196 50.8822C136.792 54.2873 136.149 59.4069 136.363 61.1456C136.387 61.2664 136.34 61.3871 136.244 61.4837C135.864 61.8218 135.174 62.0633 134.65 62.1841C134.531 62.2082 134.507 62.2082 134.484 62.2082Z" fill="#1B3C87"/>
<path d="M140.893 40.272C141.335 32.0282 136.481 25.0646 130.051 24.7185C123.62 24.3725 118.049 30.7749 117.606 39.0187C117.164 47.2626 122.018 54.2261 128.448 54.5722C134.878 54.9183 140.45 48.5159 140.893 40.272Z" fill="white"/>
<path d="M139.219 43.9274C139.195 43.9274 139.147 43.9274 139.1 43.9033C138.909 43.855 138.79 43.6376 138.838 43.4203C139.219 42.0921 139.457 40.6914 139.528 39.2666C139.79 34.3885 138.148 29.776 135.126 26.8781C134.983 26.7332 134.959 26.4917 135.102 26.3227C135.245 26.1778 135.483 26.1536 135.65 26.2985C138.814 29.3413 140.551 34.1953 140.289 39.2908C140.218 40.7639 139.956 42.2128 139.576 43.6135C139.552 43.8308 139.385 43.9274 139.219 43.9274Z" fill="#1B3C87"/>
<path d="M117.852 46.1007C117.709 46.1007 117.566 46.0041 117.495 45.8592C116.543 43.4684 116.115 40.7396 116.257 38.0107C116.709 29.5585 122.468 22.9899 129.106 23.3522C130.343 23.4246 131.581 23.7386 132.723 24.2699C132.913 24.3664 132.985 24.5838 132.913 24.777C132.818 24.9702 132.604 25.0426 132.413 24.9702C131.343 24.463 130.224 24.1974 129.082 24.125C122.872 23.7869 117.471 30.0415 117.043 38.0349C116.9 40.643 117.304 43.2511 118.232 45.5453C118.304 45.7385 118.208 45.9558 118.018 46.0524C117.947 46.1007 117.899 46.1007 117.852 46.1007Z" fill="#1B3C87"/>
<path d="M127.988 53.9976C127.821 53.9976 127.631 53.9976 127.464 53.9735C124.347 53.8044 121.492 52.1381 119.374 49.2885C119.255 49.1195 119.279 48.878 119.446 48.7572C119.612 48.6365 119.85 48.6606 119.969 48.8297C121.944 51.4861 124.609 53.0316 127.488 53.2007C128.678 53.2731 129.891 53.0799 131.033 52.6694C131.224 52.5969 131.438 52.6935 131.509 52.9109C131.581 53.1041 131.486 53.3214 131.271 53.3939C130.224 53.8044 129.13 53.9976 127.988 53.9976Z" fill="#1B3C87"/>
<path d="M133.746 36.2238C133.722 37.6727 135.84 43.3236 137.339 43.6376C137.839 43.7342 139.052 44.193 140.408 44.7484C140.789 43.4202 141.051 41.9954 141.122 40.5223C141.55 32.2875 136.697 25.3083 130.248 24.9703C125.418 24.7046 121.064 28.2545 119.018 33.5191C121.754 34.9439 126.465 36.5136 133.746 36.2238Z" fill="#121212"/>
<path d="M121.897 43.9274C121.682 43.9274 121.516 43.7583 121.516 43.541C121.516 43.3236 121.682 43.1546 121.897 43.1546C122.825 43.1546 124.324 40.2084 124.324 39.339C124.324 39.1217 124.49 38.9526 124.704 38.9526C124.918 38.9526 125.085 39.1217 125.085 39.339C125.061 40.3533 123.491 43.9274 121.897 43.9274Z" fill="#1B3C87"/>
<path d="M120.469 39.9427C120.903 39.9427 121.254 39.3048 121.254 38.5179C121.254 37.731 120.903 37.0931 120.469 37.0931C120.035 37.0931 119.684 37.731 119.684 38.5179C119.684 39.3048 120.035 39.9427 120.469 39.9427Z" fill="#1B3C87"/>
<path d="M128.785 40.8496C129.219 40.8496 129.57 40.2117 129.57 39.4248C129.57 38.6379 129.219 38 128.785 38C128.352 38 128 38.6379 128 39.4248C128 40.2117 128.352 40.8496 128.785 40.8496Z" fill="#1B3C87"/>
<path d="M126.037 48.8055C125.823 48.8055 125.656 48.6364 125.656 48.4191C125.656 48.2018 125.823 48.0327 126.037 48.0327C126.56 48.0327 128.297 46.946 129.178 45.5695C129.296 45.4005 129.534 45.328 129.701 45.4488C129.868 45.5695 129.939 45.811 129.82 45.98C128.868 47.4531 126.917 48.7813 126.037 48.8055Z" fill="#1B3C87"/>
<path d="M133.104 37.8418C132.937 37.8418 132.794 37.7452 132.747 37.5761C132.461 36.7068 132.247 35.934 132.199 35.4027C128.94 35.4993 125.918 35.2337 123.205 34.6299C122.991 34.5816 122.872 34.3884 122.92 34.1711C122.967 33.9537 123.158 33.833 123.372 33.8813C126.132 34.5092 129.201 34.7507 132.533 34.6299C132.628 34.6299 132.747 34.6541 132.818 34.7507C132.89 34.8231 132.937 34.9197 132.937 35.0405C132.937 35.451 133.127 36.3445 133.484 37.3588C133.556 37.552 133.437 37.7693 133.246 37.8418C133.199 37.8418 133.151 37.8418 133.104 37.8418Z" fill="#1B3C87"/>
<path d="M120.207 33.7364C120.16 33.7364 120.112 33.7364 120.088 33.7122C119.232 33.3983 118.423 33.036 117.685 32.6496C117.518 32.553 117.423 32.3599 117.495 32.1667C119.684 26.5641 124.228 23.1107 129.106 23.3764C130.296 23.4488 131.462 23.7145 132.556 24.2216C132.747 24.3182 132.842 24.5355 132.747 24.7287C132.651 24.9219 132.437 25.0185 132.247 24.9219C131.224 24.4631 130.153 24.1974 129.059 24.1491C124.633 23.9076 120.445 27.0229 118.327 32.1425C118.946 32.4565 119.636 32.7462 120.326 33.0119C120.517 33.0843 120.635 33.3017 120.564 33.4949C120.517 33.6398 120.35 33.7364 120.207 33.7364Z" fill="#1B3C87"/>
<path d="M139.219 43.9274C139.195 43.9274 139.147 43.9274 139.1 43.9032C138.909 43.8549 138.79 43.6376 138.838 43.4202C139.219 42.092 139.457 40.6914 139.528 39.2666C139.79 34.5333 138.219 29.9933 135.364 27.1195C135.221 26.9747 135.221 26.7332 135.364 26.5641C135.507 26.4192 135.745 26.4192 135.911 26.5641C138.909 29.6069 140.551 34.3643 140.289 39.3149C140.218 40.788 139.956 42.2369 139.576 43.6376C139.552 43.8308 139.385 43.9274 139.219 43.9274Z" fill="#1B3C87"/>
<path d="M136.863 45.4005C138.637 45.4005 140.076 43.9409 140.076 42.1404C140.076 40.3399 138.637 38.8802 136.863 38.8802C135.089 38.8802 133.651 40.3399 133.651 42.1404C133.651 43.9409 135.089 45.4005 136.863 45.4005Z" fill="white"/>
<path d="M136.149 44.8209C135.983 44.8209 135.816 44.7967 135.65 44.7726C135.435 44.7484 135.293 44.5552 135.317 44.3379C135.34 44.1206 135.531 43.9757 135.745 43.9998C135.888 44.024 136.007 44.024 136.149 44.024C137.72 44.024 138.981 42.7441 138.981 41.1502C138.981 39.5564 137.72 38.2765 136.149 38.2765C135.483 38.2765 134.864 38.4938 134.365 38.9285C134.198 39.0734 133.96 39.0251 133.841 38.8802C133.699 38.7111 133.722 38.4697 133.889 38.3489C134.531 37.8176 135.317 37.5278 136.149 37.5278C138.124 37.5278 139.742 39.17 139.742 41.1744C139.742 43.1787 138.124 44.8209 136.149 44.8209Z" fill="#1B3C87"/>
<path d="M96.8892 72.5442L90.1079 72.7374L83.7073 58.5135L90.4886 58.2961L96.8892 72.5442Z" fill="#3B3744"/>
<path d="M145.857 212.416L152.258 220.289L157.516 221.327L146.857 237H136.816L143.002 233.426L142.074 224.708L138.624 221.593" fill="white"/>
<path d="M145.667 236.179H135.626C135.459 236.179 135.293 236.058 135.269 235.889C135.245 235.72 135.293 235.551 135.459 235.454L141.455 231.977L140.575 223.67L137.22 220.627C137.053 220.482 137.053 220.24 137.196 220.071C137.339 219.902 137.577 219.902 137.744 220.047L141.194 223.187C141.265 223.259 141.313 223.332 141.313 223.428L142.241 232.122C142.264 232.267 142.193 232.412 142.05 232.508L137.053 235.43H145.477L150.854 227.533C150.973 227.364 151.211 227.316 151.377 227.437C151.544 227.558 151.592 227.799 151.473 227.968L145.976 236.034C145.905 236.131 145.786 236.179 145.667 236.179Z" fill="#1B3C87"/>
<path d="M154.97 222.535C154.899 222.535 154.828 222.51 154.756 222.462C154.59 222.341 154.542 222.1 154.661 221.931L155.708 220.385L150.997 219.444C150.902 219.419 150.83 219.371 150.783 219.323L144.382 211.474C144.239 211.305 144.263 211.064 144.43 210.943C144.596 210.798 144.834 210.822 144.953 210.991L151.259 218.743L156.398 219.782C156.517 219.806 156.636 219.902 156.684 220.023C156.731 220.144 156.707 220.289 156.636 220.385L155.256 222.414C155.208 222.486 155.089 222.535 154.97 222.535Z" fill="#1B3C87"/>
<path d="M126.489 221.134L125.371 229.731L127.25 237H103.313L115.853 227.244L115.9 221.134" fill="white"/>
<path d="M112.474 228.137C112.355 228.137 112.236 228.089 112.165 227.992C112.046 227.823 112.07 227.582 112.236 227.461L114.283 225.867L114.33 219.951C114.33 219.733 114.497 219.564 114.711 219.564C114.925 219.564 115.092 219.733 115.092 219.951L115.044 226.036C115.044 226.157 114.996 226.278 114.901 226.35L112.688 228.065C112.617 228.113 112.546 228.137 112.474 228.137Z" fill="#1B3C87"/>
<path d="M126.06 236.179H102.124C101.957 236.179 101.814 236.082 101.767 235.913C101.719 235.768 101.767 235.575 101.886 235.479L107.644 230.987C107.81 230.866 108.048 230.89 108.167 231.059C108.286 231.228 108.263 231.47 108.096 231.591L103.218 235.382H125.561L123.8 228.596C123.776 228.548 123.776 228.499 123.8 228.451L124.371 224.056C124.395 223.839 124.585 223.694 124.799 223.718C125.014 223.742 125.156 223.935 125.132 224.153L124.561 228.475L126.441 235.672C126.465 235.793 126.441 235.913 126.37 236.01C126.298 236.131 126.179 236.179 126.06 236.179Z" fill="#1B3C87"/>
<path d="M95.6281 68.7045C95.6757 67.1831 96.794 62.9086 95.6281 62.4981C94.4622 62.0876 89.3703 60.1798 90.0603 61.7736C90.7504 63.3675 91.0835 63.6814 91.9163 64.2127" fill="white"/>
<path d="M94.6763 68.1248C94.6763 68.1248 94.6525 68.1248 94.6763 68.1248C94.4622 68.1248 94.2956 67.9316 94.2956 67.7385C94.3194 67.2796 94.4146 66.6517 94.5098 65.9031C94.6763 64.7681 95.0808 62.0875 94.5336 61.8944L94.2243 61.7736C90.6314 60.4937 89.6796 60.4696 89.4417 60.5662C89.4417 60.5903 89.4417 60.5903 89.4655 60.6144C90.1555 62.1841 90.441 62.4256 91.1786 62.8845C91.3452 63.0052 91.4166 63.2226 91.2976 63.4158C91.1786 63.5848 90.9645 63.6572 90.7741 63.5365C89.8462 62.9569 89.4892 62.5464 88.7754 60.9042C88.5613 60.4454 88.7278 60.1556 88.8468 60.0349C89.3703 59.4794 90.8931 59.7451 94.486 61.025L94.7953 61.1457C95.9374 61.5321 95.6043 63.8021 95.2712 65.9997C95.176 66.6759 95.0808 67.3279 95.057 67.7385C95.0332 67.9558 94.8667 68.1248 94.6763 68.1248Z" fill="#1B3C87"/>
<path d="M88.5611 69.5979C85.9438 68.3904 83.6596 64.6714 88.5611 66.217V69.5979Z" fill="white"/>
<path d="M85.8487 66.0963C84.1831 64.5749 83.612 62.5705 87.4429 63.778L85.8487 66.0963Z" fill="white"/>
<path d="M87.6094 69.0183C87.5618 69.0183 87.5142 69.0183 87.4428 68.9941C85.7296 68.1972 83.9927 66.2894 84.3972 65.2027C84.7065 64.4058 85.801 64.3092 87.7045 64.9129C87.8949 64.9854 88.0138 65.2027 87.9425 65.3959C87.8711 65.5891 87.6569 65.7098 87.4666 65.6374C85.7534 65.082 85.1586 65.2993 85.0872 65.4684C84.8968 65.9755 86.1341 67.5693 87.7283 68.2938C87.9187 68.3904 88.0138 68.6077 87.9187 68.8009C87.8949 68.9458 87.7521 69.0183 87.6094 69.0183Z" fill="#1B3C87"/>
<path d="M84.8969 65.5168C84.8017 65.5168 84.7065 65.4926 84.6352 65.4202C83.7072 64.5991 82.8982 63.4158 83.3503 62.6189C83.731 61.9427 84.8017 61.8702 86.6101 62.4498C86.8004 62.5223 86.9194 62.7396 86.848 62.9328C86.7766 63.126 86.5625 63.2467 86.3721 63.1743C84.302 62.5223 84.0165 62.9811 84.0165 62.9811C83.8975 63.1984 84.2069 63.9712 85.1586 64.8164C85.3252 64.9613 85.3252 65.2028 85.1824 65.3719C85.111 65.4685 85.0159 65.5168 84.8969 65.5168Z" fill="#1B3C87"/>
<path d="M92.7966 19.9713H56.5821C55.2497 19.9713 54.179 21.058 54.179 22.4104V36.5859C54.179 37.9383 55.2497 39.025 56.5821 39.025H66.6708L74.7132 49.7714L82.7555 39.025H92.7966C94.1291 39.025 95.1998 37.9383 95.1998 36.5859V22.4104C95.1998 21.058 94.1291 19.9713 92.7966 19.9713Z" fill="#E2EBF1"/>
<path d="M63.3396 33.3017C65.4816 33.3017 67.218 31.5394 67.218 29.3654C67.218 27.1914 65.4816 25.4291 63.3396 25.4291C61.1976 25.4291 59.4612 27.1914 59.4612 29.3654C59.4612 31.5394 61.1976 33.3017 63.3396 33.3017Z" fill="white"/>
<path d="M90.2982 27.3852H71.382C71.0488 27.3852 70.7871 27.1196 70.7871 26.7815C70.7871 26.4434 71.0488 26.1777 71.382 26.1777H90.2982C90.6313 26.1777 90.893 26.4434 90.893 26.7815C90.893 27.1196 90.6313 27.3852 90.2982 27.3852Z" fill="white"/>
<path d="M81.1613 31.9494H71.382C71.0488 31.9494 70.7871 31.6838 70.7871 31.3457C70.7871 31.0076 71.0488 30.7419 71.382 30.7419H81.1613C81.4944 30.7419 81.7561 31.0076 81.7561 31.3457C81.7561 31.6838 81.4706 31.9494 81.1613 31.9494Z" fill="white"/>
</svg>
