<svg width="160" height="153" viewBox="0 0 160 153" fill="none" xmlns="http://www.w3.org/2000/svg">
<path d="M143.43 1.63576C154.948 7.71376 153.998 32.0933 154.473 53.4676C154.948 74.825 156.847 93.1771 151.487 112.036C146.127 130.894 133.523 150.277 117.663 152.539C101.735 154.852 82.4986 140.096 60.752 132.211C39.0054 124.327 14.7483 123.348 5.1303 111.614C-4.48773 99.8798 0.584215 77.3743 10.7281 61.9599C20.9229 46.5454 36.1726 38.2388 49.2511 32.4309C62.2787 26.6231 73.1859 23.3308 90.573 15.5476C107.994 7.81506 131.912 -4.44223 143.43 1.63576Z" fill="#3d3d3d"/>
<path d="M15.6391 89.713C14.538 89.42 11.2347 87.5159 10.6055 86.7836C9.97634 86.0512 8.48201 87.8235 11.1875 90.2256" fill="#a1a1a1"/>
<path fill-rule="evenodd" clip-rule="evenodd" d="M8.45664 84.2243C8.66709 84.2633 8.84543 84.3806 8.97937 84.5438C9.11098 84.7042 9.41792 84.964 9.86151 85.2838C10.2939 85.5956 10.8247 85.9424 11.3738 86.2757C11.9228 86.6089 12.4855 86.9259 12.9809 87.1787C13.4842 87.4354 13.8937 87.6132 14.1451 87.6832C14.3581 87.7426 14.4814 87.959 14.4205 88.1666C14.3597 88.3742 14.1377 88.4944 13.9247 88.4351C13.5888 88.3416 13.1175 88.1309 12.609 87.8715C12.0926 87.608 11.5123 87.281 10.9498 86.9395C10.3875 86.5982 9.83819 86.2397 9.38452 85.9125C8.94206 85.5935 8.55695 85.2808 8.35301 85.0323C8.32825 85.0022 8.31182 84.9942 8.30719 84.9926C8.30378 84.9927 8.29371 84.9943 8.27562 85.0046C8.21167 85.0408 8.08674 85.1723 8.03863 85.4602C7.94605 86.0142 8.17543 87.0582 9.56371 88.3486C9.72402 88.4977 9.73007 88.7451 9.57721 88.9014C9.42436 89.0577 9.17049 89.0636 9.01018 88.9146C7.51279 87.5227 7.09625 86.2361 7.24693 85.3345C7.32046 84.8945 7.53946 84.517 7.87292 84.3283C8.04363 84.2317 8.24691 84.1855 8.45664 84.2243ZM8.30852 84.9927C8.30851 84.9927 8.3081 84.9927 8.30729 84.9926C8.30813 84.9926 8.30853 84.9926 8.30852 84.9927ZM8.30707 84.9926C8.30705 84.9926 8.30704 84.9926 8.30702 84.9926L8.30707 84.9926Z" fill="#1B3C87"/>
<path d="M30.0753 96.2406C29.3159 95.1103 26.7339 90.4007 26.2783 88.8937C25.8226 87.3866 22.7242 85.8795 24.729 96.2406" fill="#a1a1a1"/>
<path fill-rule="evenodd" clip-rule="evenodd" d="M23.1853 85.6739C23.5928 85.9023 23.9393 86.2631 24.1014 86.6488L24.1016 86.6494C24.2287 86.9534 24.5185 87.4476 24.9156 88.0536C25.3077 88.6522 25.7894 89.3374 26.2848 90.0145C27.2798 91.3746 28.3109 92.6763 28.7671 93.1675C28.9274 93.3401 28.9014 93.5965 28.7091 93.7403C28.5167 93.8842 28.2308 93.8608 28.0705 93.6883C27.5784 93.1586 26.5231 91.823 25.5266 90.4608C25.0262 89.7768 24.5359 89.0796 24.1338 88.4658C23.7367 87.8598 23.4102 87.312 23.2527 86.9354C23.1681 86.7342 22.9622 86.5081 22.7048 86.3638C22.4464 86.219 22.2186 86.1983 22.055 86.2617C21.8944 86.324 21.6446 86.5258 21.4892 87.1343C21.3347 87.7391 21.2945 88.6778 21.4905 90.0763C21.5218 90.2992 21.3457 90.5026 21.0972 90.5306C20.8488 90.5587 20.622 90.4007 20.5908 90.1778C20.3885 88.7349 20.4171 87.6893 20.6052 86.9526C20.7924 86.2197 21.159 85.7228 21.6954 85.5149C22.2288 85.3083 22.7787 85.446 23.1853 85.6739Z" fill="#1B3C87"/>
<path d="M49.16 110.066C48.0692 112.256 43.297 120.883 43.297 120.883C43.297 120.883 32.3891 98.1531 31.196 97.6554C30.003 97.1576 11.7663 91.0189 8.3576 89.1939C6.99411 88.5302 2.90365 89.6916 10.4028 94.503C17.902 99.3145 25.2308 103.296 26.0829 104.955C26.9351 106.615 33.0708 132.331 33.0708 132.331H55.9263C57.4432 132.331 62.5563 116.072 62.5563 116.072C62.5563 116.072 50.4212 108.705 49.16 110.066Z" fill="#a1a1a1"/>
<path fill-rule="evenodd" clip-rule="evenodd" d="M24.0834 94.0984C24.1567 93.8918 24.3828 93.7841 24.5884 93.8578C27.1777 94.7858 29.1082 95.4879 29.4828 95.6419C29.4848 95.6427 29.4868 95.6435 29.4888 95.6444C29.6046 95.6943 29.6967 95.784 29.7566 95.848C29.8261 95.9223 29.8994 96.0148 29.9749 96.1185C30.1263 96.3268 30.3063 96.6086 30.5087 96.9476C30.9146 97.6272 31.4269 98.5649 32.0053 99.6688C33.163 101.878 34.5964 104.774 35.9919 107.651C37.3878 110.529 38.7473 113.391 39.7578 115.534C40.2631 116.605 40.6811 117.496 40.9729 118.12C41.0169 118.214 41.0581 118.302 41.0963 118.384C41.2009 118.188 41.3246 117.957 41.4637 117.696C41.9141 116.852 42.5256 115.704 43.1702 114.488C44.4614 112.051 45.879 109.351 46.4041 108.263C46.42 108.23 46.4404 108.199 46.4647 108.172C46.6259 107.99 46.8461 107.912 47.0524 107.883C47.2596 107.854 47.4917 107.868 47.7315 107.906C48.212 107.983 48.803 108.171 49.4499 108.424C50.7487 108.932 52.352 109.736 53.9038 110.576C55.4584 111.418 56.9734 112.302 58.0989 112.975C58.6619 113.312 59.1279 113.596 59.4534 113.796C59.6161 113.896 59.7437 113.975 59.8308 114.03C59.8743 114.057 59.9077 114.077 59.9302 114.092L59.9646 114.113C59.9647 114.113 59.9647 114.113 59.7553 114.45C60.1332 114.566 60.1332 114.566 60.1331 114.566L60.1188 114.613C60.1093 114.644 60.0952 114.69 60.0768 114.75C60.04 114.87 59.9859 115.045 59.9165 115.268C59.7777 115.714 59.5779 116.351 59.3335 117.115C58.8449 118.644 58.1777 120.682 57.4641 122.722C56.7513 124.76 55.9892 126.807 55.3108 128.347C54.9725 129.116 54.6491 129.772 54.3578 130.241C54.213 130.475 54.0664 130.677 53.9196 130.827C53.7895 130.959 53.5847 131.128 53.3236 131.128H31.1518C30.9677 131.128 30.8079 131 30.7666 130.82L31.1518 130.731C30.7666 130.82 30.7666 130.82 30.7666 130.82L30.7365 130.688C30.7166 130.602 30.6872 130.473 30.649 130.308C30.5725 129.976 30.461 129.493 30.3205 128.888C30.0395 127.677 29.6429 125.979 29.1801 124.028C29.1295 123.815 29.2606 123.6 29.473 123.55C29.6853 123.499 29.8985 123.631 29.9491 123.844C30.4122 125.797 30.8092 127.496 31.0903 128.707C31.2309 129.313 31.3426 129.796 31.4191 130.128C31.4367 130.205 31.4525 130.273 31.4663 130.334H53.2838C53.2971 130.324 53.3214 130.305 53.3571 130.269C53.4446 130.18 53.5555 130.033 53.6871 129.821C53.9487 129.4 54.2542 128.784 54.5879 128.026C55.2534 126.514 56.0073 124.491 56.7184 122.459C57.4287 120.428 58.0936 118.397 58.5809 116.872C58.8246 116.11 59.0238 115.475 59.162 115.031C59.2121 114.87 59.2542 114.734 59.2875 114.626C59.218 114.583 59.1354 114.532 59.0407 114.474C58.7176 114.275 58.2544 113.992 57.6946 113.658C56.5746 112.988 55.0701 112.11 53.5288 111.276C51.9846 110.44 50.4155 109.654 49.163 109.164C48.5342 108.918 48.0048 108.754 47.6073 108.691C47.4081 108.659 47.2618 108.656 47.1621 108.67C47.12 108.676 47.0928 108.684 47.0762 108.69C46.515 109.842 45.1256 112.487 43.868 114.861C43.2229 116.078 42.611 117.227 42.1603 118.071C41.935 118.494 41.7499 118.84 41.6212 119.08C41.5569 119.201 41.5066 119.294 41.4724 119.358L41.421 119.454L41.4203 119.456L41.4202 119.456C41.4201 119.456 41.4201 119.456 41.0721 119.268C40.714 119.436 40.714 119.436 40.7139 119.436L40.6837 119.371C40.6637 119.328 40.6339 119.264 40.5951 119.18C40.5173 119.014 40.4032 118.769 40.2575 118.458C39.966 117.835 39.5483 116.944 39.0435 115.874C38.0337 113.733 36.6755 110.874 35.2813 107.999C33.8868 105.124 32.4577 102.237 31.3059 100.039C30.7295 98.9389 30.2253 98.0167 29.8309 97.3562C29.6332 97.0252 29.4673 96.7669 29.3365 96.587C29.2708 96.4967 29.219 96.4331 29.1806 96.392C29.1686 96.3792 29.1597 96.3705 29.1537 96.365C28.7338 96.1968 26.8594 95.515 24.3229 94.6059C24.1173 94.5322 24.01 94.305 24.0834 94.0984ZM41.0721 119.268L40.714 119.436C40.7772 119.572 40.9115 119.66 41.0609 119.665C41.2102 119.669 41.3493 119.588 41.4202 119.456L41.0721 119.268ZM59.7553 114.45L60.1332 114.566C60.1856 114.394 60.1165 114.208 59.9647 114.113L59.7553 114.45Z" fill="#1B3C87"/>
<path fill-rule="evenodd" clip-rule="evenodd" d="M12.0963 96.4279C12.2227 96.2404 12.4878 96.1843 12.6884 96.3025C13.38 96.7103 14.0594 97.1092 14.7212 97.4976C16.9149 98.7854 18.9152 99.9597 20.5244 100.971C21.572 101.629 22.4639 102.225 23.1412 102.743C23.8004 103.247 24.3147 103.72 24.5355 104.138L24.536 104.139C24.6108 104.282 24.7024 104.527 24.8049 104.832C24.9106 105.147 25.0367 105.551 25.1792 106.029C25.4645 106.987 25.819 108.25 26.2144 109.704C27.0053 112.612 27.9622 116.287 28.8603 119.806C28.9154 120.022 28.773 120.238 28.5424 120.29C28.3118 120.341 28.0802 120.208 28.0251 119.992C27.1274 116.475 26.1717 112.804 25.3822 109.902C24.9874 108.45 24.6348 107.193 24.3521 106.245C24.2107 105.77 24.0875 105.375 23.9859 105.073C23.8813 104.762 23.8074 104.574 23.7654 104.493C23.6359 104.248 23.2613 103.872 22.5975 103.364C21.9514 102.87 21.0856 102.291 20.0455 101.637C18.4485 100.634 16.4643 99.4689 14.2735 98.1828C13.6098 97.7932 12.9271 97.3924 12.2304 96.9816C12.0298 96.8634 11.9698 96.6155 12.0963 96.4279Z" fill="#1B3C87"/>
<path fill-rule="evenodd" clip-rule="evenodd" d="M5.03336 86.6436C5.49438 86.5761 6.00442 86.6344 6.38367 86.8247C6.38895 86.8273 6.39418 86.8301 6.39934 86.833C7.23622 87.3025 9.08373 88.0817 11.3923 88.9902C13.6905 89.8946 16.4176 90.9165 18.9937 91.8694C19.1941 91.9436 19.2975 92.169 19.2246 92.3729C19.1517 92.5768 18.9302 92.682 18.7297 92.6079C16.1526 91.6545 13.4195 90.6304 11.1137 89.723C8.8257 88.8226 6.93025 88.0264 6.03503 87.5259C5.82402 87.4227 5.48175 87.3718 5.14339 87.4213C4.79488 87.4724 4.55365 87.6126 4.45093 87.7808C4.36631 87.9194 4.30479 88.1996 4.60925 88.7341C4.91615 89.273 5.56043 89.9971 6.73995 90.9255C6.90864 91.0582 6.93959 91.305 6.80909 91.4766C6.67858 91.6482 6.43603 91.6797 6.26734 91.5469C5.05602 90.5936 4.32113 89.7955 3.94096 89.128C3.55836 88.4563 3.50189 87.8459 3.79487 87.3662C4.06976 86.9161 4.5787 86.7102 5.03336 86.6436Z" fill="#1B3C87"/>
<path d="M79.0439 83.1341C88.9736 88.4197 77.8503 114.746 71.7499 121.408C66.7436 122.513 49.1054 113.828 46.9172 108.066C48.7573 102.373 64.8704 75.5881 79.0439 83.1341Z" fill="#709CBC"/>
<path fill-rule="evenodd" clip-rule="evenodd" d="M149.54 36.0979C149.67 36.1237 149.779 36.2122 149.833 36.3346L159.966 59.7275C160.016 59.8424 160.011 59.9739 159.951 60.0841C159.892 60.1943 159.786 60.2709 159.663 60.2919L118.367 67.3626C118.192 67.3925 118.019 67.3045 117.939 67.1454C117.858 66.9862 117.89 66.7931 118.018 66.6688L149.18 36.2053C149.275 36.1122 149.41 36.0721 149.54 36.0979ZM119.516 66.3397L159.018 59.5761L149.325 37.1993L119.516 66.3397Z" fill="#B6C6FC"/>
<path fill-rule="evenodd" clip-rule="evenodd" d="M13.3987 59.8357C13.227 59.6914 13.2049 59.4352 13.3493 59.2636L33.3377 35.4992C33.4821 35.3275 33.7382 35.3054 33.9099 35.4498L54.8272 53.0435C54.9989 53.1879 55.021 53.4441 54.8766 53.6157L34.8882 77.3801C34.7438 77.5517 34.4876 77.5739 34.316 77.4295L13.3987 59.8357ZM14.2322 59.4756L34.528 76.5465L53.9937 53.4037L33.6979 36.3327L14.2322 59.4756Z" fill="#B6C6FC"/>
<path fill-rule="evenodd" clip-rule="evenodd" d="M77.2114 81.4505C71.1533 78.3287 64.6732 81.4256 59.027 86.5381C58.8634 86.6862 58.61 86.6745 58.4609 86.5119C58.3119 86.3494 58.3236 86.0976 58.4872 85.9495C64.1719 80.8021 71.0339 77.37 77.5806 80.7437L77.5807 80.7438C80.2637 82.128 81.4796 84.8749 81.7463 88.1933C82.0129 91.5112 81.3415 95.4789 80.1713 99.4572C78.9995 103.441 77.319 107.463 75.544 110.901C73.7722 114.332 71.8926 117.206 70.3131 118.878C70.2573 118.937 70.1849 118.978 70.1053 118.995C69.4052 119.145 68.5187 119.123 67.5222 118.98C66.5197 118.836 65.3784 118.565 64.1562 118.194C61.7117 117.452 58.9172 116.304 56.217 114.947C53.5172 113.59 50.8996 112.018 48.8126 110.424C46.7425 108.843 45.1343 107.196 44.5385 105.675C44.5046 105.589 44.5022 105.493 44.5318 105.405C45.1365 103.603 47.1398 99.8183 50.0476 95.6762C50.1742 95.4959 50.424 95.4517 50.6055 95.5775C50.787 95.7033 50.8315 95.9515 50.7049 96.1318C47.8894 100.142 45.9644 103.766 45.3399 105.519C45.894 106.792 47.3156 108.276 49.301 109.792C51.3384 111.349 53.9107 112.895 56.5787 114.236C59.2465 115.577 61.998 116.707 64.3903 117.433C65.5865 117.796 66.6863 118.056 67.6367 118.192C68.5269 118.32 69.2627 118.336 69.8162 118.24C71.3044 116.632 73.1067 113.876 74.831 110.537C76.5858 107.139 78.2462 103.163 79.4021 99.2338C80.5597 95.2986 81.203 91.437 80.9474 88.2567C80.6919 85.0768 79.5486 82.6563 77.2114 81.4505Z" fill="#1B3C87"/>
<path fill-rule="evenodd" clip-rule="evenodd" d="M91.8788 72.9887C86.3713 72.9887 81.6737 74.5691 77.6248 77.2654C77.4383 77.3896 77.186 77.3399 77.0611 77.1544C76.9363 76.9689 76.9863 76.7179 77.1727 76.5937C81.3495 73.8123 86.2033 72.1804 91.8788 72.1804C102.641 72.1804 110.231 79.2762 115.172 90.2345C120.111 101.189 122.451 116.086 122.707 131.92C122.71 132.143 122.531 132.327 122.307 132.331C122.083 132.334 121.898 132.156 121.894 131.933C121.64 116.152 119.306 101.378 114.431 90.5653C109.557 79.7563 102.19 72.9887 91.8788 72.9887Z" fill="#1B3C87"/>
<path fill-rule="evenodd" clip-rule="evenodd" d="M72.0271 81.9062C72.2155 82.054 72.2327 82.309 72.0656 82.4757C65.9848 88.5401 61.6791 96.8651 58.6362 105.58C58.5619 105.793 58.3065 105.912 58.0659 105.847C57.8253 105.781 57.6905 105.555 57.7648 105.342C60.8258 96.5752 65.18 88.1269 71.3834 81.9403C71.5505 81.7736 71.8387 81.7583 72.0271 81.9062Z" fill="#1B3C87"/>
<path fill-rule="evenodd" clip-rule="evenodd" d="M55.0459 119.104C55.2411 119.142 55.3692 119.334 55.3319 119.532C54.5811 123.533 54.0404 127.367 53.6498 130.804C53.627 131.005 53.4484 131.149 53.251 131.125C53.0535 131.102 52.912 130.921 52.9348 130.72C53.327 127.268 53.8702 123.416 54.6249 119.395C54.6622 119.197 54.8507 119.066 55.0459 119.104Z" fill="#1B3C87"/>
<path d="M123.91 131.128C123.088 100.795 114.116 74.5864 93.2966 74.5864C66.8954 74.5864 58.1463 109.309 55.3384 131.128H123.91Z" fill="#709CBC"/>
<path fill-rule="evenodd" clip-rule="evenodd" d="M129.896 108.289C130 108.322 130.085 108.399 130.128 108.5L134.706 119.204C134.788 119.395 134.699 119.617 134.508 119.699C134.316 119.781 134.094 119.692 134.012 119.5L129.606 109.198L112.698 119.556C113.315 121.709 115.049 127.221 116.137 130.636C116.201 130.834 116.091 131.047 115.892 131.11C115.694 131.173 115.481 131.064 115.418 130.865C114.282 127.3 112.433 121.419 111.894 119.485C111.848 119.322 111.916 119.15 112.06 119.062L129.584 108.326C129.677 108.269 129.791 108.255 129.896 108.289Z" fill="#1B3C87"/>
<path d="M134.737 131.128V116.642L131.643 109.474L113.083 120.757C113.584 122.516 115.123 127.411 116.31 131.128H134.737Z" fill="#a1a1a1"/>
<path d="M110.644 81.2385C120.73 76.3143 134.452 101.275 135.94 110.274C133.791 115.029 116.431 124.198 110.644 122.5C107.338 117.576 96.2772 88.2513 110.644 81.2385Z" fill="#709CBC"/>
<path fill-rule="evenodd" clip-rule="evenodd" d="M118.49 81.9504C118.632 81.7779 118.886 81.7552 119.057 81.8996C122.888 85.1486 126.539 90.2412 129.359 95.2834C132.177 100.321 134.198 105.368 134.731 108.548C134.745 108.629 134.734 108.713 134.699 108.787C134.397 109.448 133.843 110.153 133.124 110.873C132.401 111.597 131.491 112.355 130.452 113.117C128.373 114.641 125.754 116.197 123.023 117.547C120.293 118.898 117.439 120.048 114.889 120.754C112.36 121.455 110.057 121.74 108.47 121.281C108.379 121.254 108.299 121.195 108.246 121.115C107.935 120.641 107.54 119.98 107.112 119.131C107.011 118.93 107.089 118.685 107.287 118.583C107.485 118.48 107.728 118.56 107.829 118.76C108.204 119.506 108.552 120.098 108.833 120.535C110.195 120.874 112.252 120.64 114.677 119.968C117.166 119.279 119.972 118.15 122.67 116.815C125.368 115.481 127.945 113.948 129.98 112.457C130.997 111.711 131.873 110.98 132.558 110.294C133.2 109.651 133.658 109.064 133.916 108.556C133.372 105.504 131.42 100.622 128.659 95.6851C125.861 90.6832 122.266 85.6847 118.54 82.5245C118.37 82.38 118.347 82.123 118.49 81.9504Z" fill="#1B3C87"/>
<path fill-rule="evenodd" clip-rule="evenodd" d="M107.004 79.5822C107.118 79.7728 107.074 80.0315 106.905 80.16C103.968 82.3949 102.498 86.0383 101.995 90.3282C101.492 94.6207 101.965 99.5127 102.878 104.155C102.922 104.38 102.797 104.602 102.598 104.652C102.399 104.702 102.202 104.56 102.158 104.336C101.235 99.6446 100.745 94.6461 101.264 90.219C101.783 85.7893 103.32 81.8841 106.493 79.4697C106.661 79.3412 106.891 79.3915 107.004 79.5822Z" fill="#1B3C87"/>
<path fill-rule="evenodd" clip-rule="evenodd" d="M128.161 26.8654C128.161 26.6449 128.34 26.4662 128.56 26.4662H134.338C134.558 26.4662 134.737 26.6449 134.737 26.8654V130.729C134.737 130.949 134.558 131.128 134.338 131.128H30.4744C30.2539 131.128 30.0752 130.949 30.0752 130.729V125.736C30.0752 125.515 30.2539 125.337 30.4744 125.337C30.6948 125.337 30.8736 125.515 30.8736 125.736V130.329H133.938V27.2645H128.56C128.34 27.2645 128.161 27.0858 128.161 26.8654Z" fill="#1B3C87"/>
<path fill-rule="evenodd" clip-rule="evenodd" d="M30.0752 26.8469C30.0752 26.6366 30.2549 26.4662 30.4766 26.4662H106.666C106.888 26.4662 107.068 26.6366 107.068 26.8469C107.068 27.0571 106.888 27.2276 106.666 27.2276H30.8779V34.5066C30.8779 34.7168 30.6982 34.8872 30.4766 34.8872C30.2549 34.8872 30.0752 34.7168 30.0752 34.5066V26.8469Z" fill="#1B3C87"/>
<path d="M102.256 58.9474C101.334 62.2005 99.6762 69.1948 100.229 78.6289C97.0967 81.0687 86.5948 81.5567 81.8044 78.3036C82.7257 73.2612 82.7257 68.3815 82.5414 65.1284C82.3572 61.8752 102.256 58.9474 102.256 58.9474Z" fill="#a1a1a1"/>
<path fill-rule="evenodd" clip-rule="evenodd" d="M100.561 55.3441C100.701 55.3209 100.844 55.3693 100.941 55.4726C101.037 55.5759 101.075 55.7202 101.04 55.8566C100.163 59.3207 98.5821 66.78 99.1091 76.8456C99.1158 76.9728 99.0633 77.096 98.9666 77.1801C97.9925 78.028 96.4006 78.6402 94.5734 79.0034C92.7331 79.3692 90.6004 79.493 88.4967 79.3243C88.2643 79.3056 88.0911 79.1044 88.11 78.8748C88.1289 78.6452 88.3326 78.4742 88.5651 78.4928C90.5947 78.6556 92.6482 78.5352 94.4068 78.1856C96.0717 77.8547 97.4258 77.3277 98.2551 76.6804C97.7828 67.174 99.1671 59.9869 100.067 56.2757C100.01 56.2857 99.9496 56.2964 99.8859 56.3077C99.3666 56.4001 98.6245 56.5359 97.7344 56.7099C95.9534 57.0579 93.5832 57.5577 91.2206 58.1656C88.8535 58.7746 86.5131 59.4873 84.7825 60.2578C83.9149 60.644 83.225 61.0343 82.7638 61.4179C82.2903 61.8117 82.1402 62.128 82.1522 62.3648C82.3297 65.8719 82.3302 71.1375 81.4408 76.5846C81.4036 76.8121 81.1869 76.9667 80.9566 76.93C80.7264 76.8933 80.5699 76.6792 80.607 76.4518C81.4839 71.0814 81.4844 65.8783 81.3087 62.4064C81.2765 61.7709 81.6838 61.2256 82.2198 60.7798C82.7681 60.3237 83.5395 59.8961 84.4355 59.4972C86.2322 58.6974 88.6278 57.9707 91.0078 57.3583C93.3923 56.7448 95.7801 56.2414 97.5705 55.8916C98.4661 55.7165 99.213 55.5798 99.7363 55.4867C99.9979 55.4402 100.204 55.4046 100.344 55.3806C100.415 55.3686 100.469 55.3595 100.505 55.3534L100.547 55.3464L100.561 55.3441C100.561 55.3441 100.561 55.3441 100.63 55.7555L100.561 55.3441Z" fill="#1B3C87"/>
<path d="M88.4212 68.5715C98.055 68.5715 105.865 58.6073 105.865 46.3158C105.865 34.0244 98.055 24.0602 88.4212 24.0602C78.7873 24.0602 70.9775 34.0244 70.9775 46.3158C70.9775 58.6073 78.7873 68.5715 88.4212 68.5715Z" fill="#a1a1a1"/>
<path fill-rule="evenodd" clip-rule="evenodd" d="M73.552 59.0122C73.725 58.8934 73.9582 58.9425 74.0728 59.1219C77.0073 63.7159 81.3655 66.5894 86.1953 66.5894C88.7274 66.5894 91.1261 65.7995 93.2561 64.386C93.4309 64.27 93.6634 64.3228 93.7753 64.504C93.8872 64.6852 93.8363 64.9261 93.6615 65.0421C91.4208 66.529 88.8829 67.3684 86.1953 67.3684C81.0576 67.3684 76.4858 64.3108 73.446 59.552C73.3315 59.3726 73.3789 59.1309 73.552 59.0122Z" fill="#1B3C87"/>
<path fill-rule="evenodd" clip-rule="evenodd" d="M86.6166 22.4514C77.1808 22.4514 69.3863 32.0317 69.3863 44.063C69.3863 46.4801 69.7056 48.8135 70.2929 50.9808C70.3506 51.1936 70.221 51.4119 70.0036 51.4683C69.7861 51.5247 69.563 51.3979 69.5054 51.1852C68.8998 48.9505 68.5715 46.5483 68.5715 44.063C68.5715 31.7831 76.5572 21.6542 86.6166 21.6542C96.6761 21.6542 104.662 31.7831 104.662 44.063C104.662 47.1055 104.178 50.0154 103.295 52.6575C103.225 52.8668 102.995 52.9809 102.782 52.9125C102.568 52.8441 102.451 52.619 102.521 52.4098C103.376 49.8495 103.847 47.0234 103.847 44.063C103.847 32.0317 96.0525 22.4514 86.6166 22.4514Z" fill="#1B3C87"/>
<path fill-rule="evenodd" clip-rule="evenodd" d="M79.0388 42.1071C79.2584 42.1281 79.4187 42.315 79.3967 42.5246C79.3498 42.9721 79.1685 43.5867 78.9124 44.2618C78.6535 44.9445 78.3081 45.7148 77.9163 46.4827C77.1393 48.0058 76.1543 49.5697 75.269 50.4146C75.1129 50.5635 74.8598 50.5635 74.7037 50.4146C74.5476 50.2656 74.5476 50.0241 74.7037 49.8752C75.4903 49.1245 76.4281 47.6571 77.1976 46.1488C77.5791 45.4011 77.9129 44.6557 78.1608 44.0022C78.4115 43.3411 78.5646 42.799 78.6013 42.4487C78.6233 42.2391 78.8191 42.0862 79.0388 42.1071Z" fill="#1B3C87"/>
<path fill-rule="evenodd" clip-rule="evenodd" d="M84.0263 54.1868C84.2166 54.2807 84.268 54.4708 84.1411 54.6115C82.6653 56.2488 80.7913 56.5414 79.8128 56.5414C79.5841 56.5414 79.3987 56.4043 79.3987 56.2351C79.3987 56.066 79.5841 55.9289 79.8128 55.9289C80.5663 55.9289 82.1565 55.709 83.4521 54.2718C83.5789 54.1311 83.836 54.093 84.0263 54.1868Z" fill="#1B3C87"/>
<path d="M75.0063 43.8426C75.1647 42.8989 74.9331 42.0734 74.489 41.9989C74.0449 41.9244 73.5565 42.629 73.3981 43.5727C73.2397 44.5164 73.4714 45.3419 73.9155 45.4164C74.3596 45.491 74.848 44.7863 75.0063 43.8426Z" fill="#1B3C87"/>
<path d="M86.1055 44.0839C86.2638 43.1402 86.0322 42.3148 85.5881 42.2402C85.144 42.1657 84.6556 42.8703 84.4972 43.8141C84.3388 44.7578 84.5705 45.5832 85.0146 45.6578C85.4587 45.7323 85.9471 45.0277 86.1055 44.0839Z" fill="#1B3C87"/>
<path d="M109.474 36.5015C109.474 27.726 99.5823 21.7653 92.9312 19.7784C87.5591 18.1723 79.1173 15.639 74.6833 15.639C69.2259 15.639 64.9624 21.103 64.9624 26.567C64.9624 32.5277 68.2027 36.9982 72.1251 37.9917C72.8073 36.0048 73.1484 35.1769 73.1484 35.1769C73.8306 36.0048 92.0785 38.1572 98.218 37.9917C97.7063 40.1441 97.3653 47.7606 100.776 47.9262C102.652 48.0918 109.474 50.0787 109.474 36.5015Z" fill="#232424"/>
<path fill-rule="evenodd" clip-rule="evenodd" d="M63.7787 22.2422C65.1134 17.3328 68.5777 13.233 72.8462 13.233C75.0143 13.233 78.1259 13.998 81.306 14.9856C84.4508 15.9623 87.7027 17.17 90.2459 18.1146L90.3582 18.1563C92.1071 18.8129 94.0834 19.8063 96.0424 21.1366C96.2295 21.2636 96.2957 21.5495 96.1904 21.775C96.0851 22.0006 95.8481 22.0805 95.6611 21.9535C93.7509 20.6565 91.8254 19.6891 90.1277 19.0516C90.1275 19.0515 90.1273 19.0515 90.1271 19.0514L90.0231 19.0128C87.4766 18.067 84.2393 16.8647 81.1122 15.8935C77.9313 14.9056 74.9054 14.1705 72.8462 14.1705C69.0182 14.1705 65.784 17.8749 64.5174 22.5343C64.4505 22.7803 64.2309 22.9143 64.027 22.8336C63.823 22.753 63.7119 22.4882 63.7787 22.2422Z" fill="#1B3C87"/>
<path fill-rule="evenodd" clip-rule="evenodd" d="M102.428 25.376C102.597 25.2262 102.873 25.2255 103.043 25.3744C106.083 28.0282 108.271 31.3837 108.271 35.3085C108.271 41.9045 106.443 44.8829 104.174 46.1315C102.257 47.1867 100.119 46.922 98.9808 46.781C98.7992 46.7585 98.643 46.7392 98.5171 46.7288C97.411 46.677 96.64 46.0711 96.1274 45.2577C95.6187 44.4504 95.3307 43.3945 95.1799 42.3143C94.8781 40.1525 95.1076 37.7478 95.3927 36.6624C95.4468 36.4566 95.6805 36.3282 95.9147 36.3757C96.149 36.4232 96.2951 36.6286 96.241 36.8344C95.9798 37.8287 95.754 40.1435 96.0441 42.2212C96.1892 43.2607 96.4589 44.2046 96.8891 44.8872C97.314 45.5613 97.8603 45.9341 98.5701 45.9653C98.576 45.9656 98.5819 45.9659 98.5877 45.9664C98.7557 45.9798 98.9478 46.0025 99.1594 46.0276C100.327 46.1656 102.093 46.3743 103.712 45.4832C105.586 44.4521 107.4 41.8311 107.4 35.3085C107.4 31.6502 105.363 28.4785 102.43 25.9169C102.259 25.768 102.258 25.5258 102.428 25.376Z" fill="#1B3C87"/>
<path fill-rule="evenodd" clip-rule="evenodd" d="M64.0614 28.8829C64.2728 28.833 64.4851 28.9621 64.5356 29.1713C65.4429 32.9314 67.7614 35.5752 70.4017 36.4246C70.6725 35.629 70.8804 35.0473 71.0255 34.6523C71.1084 34.4265 71.1708 34.2617 71.2127 34.1529C71.2337 34.0984 71.2495 34.058 71.2602 34.0309C71.2655 34.0174 71.2696 34.0071 71.2724 34.0002L71.2756 33.9922L71.2764 33.99L71.2767 33.9894L71.2768 33.9892L71.2768 33.9891C71.2768 33.9891 71.2768 33.989 71.6422 34.1337L71.2768 33.989C71.3287 33.8606 71.4456 33.769 71.5838 33.7485C71.7102 33.7297 71.8372 33.7729 71.925 33.8629C71.933 33.8675 71.9527 33.8786 71.9898 33.8948C72.0635 33.927 72.1725 33.9655 72.3203 34.0091C72.6146 34.0959 73.0275 34.1927 73.5438 34.2966C74.5742 34.5039 75.9858 34.7333 77.6173 34.964C80.8788 35.4253 84.9985 35.8888 88.6615 36.1896C88.878 36.2074 89.039 36.3956 89.0211 36.61C89.0031 36.8244 88.813 36.9837 88.5964 36.966C84.9182 36.6639 80.7832 36.1987 77.506 35.7352C75.8681 35.5036 74.4393 35.2717 73.387 35.06C72.8619 34.9543 72.4228 34.8522 72.0957 34.7557C72.0095 34.7303 71.9285 34.7045 71.8541 34.6783C71.8278 34.7486 71.7981 34.8286 71.7651 34.9186C71.6018 35.3631 71.356 36.0523 71.0279 37.0268C70.9623 37.2214 70.7556 37.3324 70.5552 37.2805C67.4142 36.4687 64.765 33.4751 63.7701 29.3523C63.7196 29.1431 63.8501 28.9329 64.0614 28.8829Z" fill="#1B3C87"/>
<path d="M101.053 52.9323C103.71 52.9323 105.865 51.0472 105.865 48.7218C105.865 46.3963 103.71 44.5112 101.053 44.5112C98.3951 44.5112 96.2407 46.3963 96.2407 48.7218C96.2407 51.0472 98.3951 52.9323 101.053 52.9323Z" fill="#a1a1a1"/>
<path fill-rule="evenodd" clip-rule="evenodd" d="M99.8266 43.5704C99.908 43.7684 99.7667 43.9799 99.511 44.0429C97.4709 44.5456 96.0091 46.0093 96.0091 47.7441C96.0091 47.9518 95.7916 48.1203 95.5233 48.1203C95.2551 48.1203 95.0376 47.9518 95.0376 47.7441C95.0376 45.6711 96.7863 43.9248 99.2165 43.326C99.4721 43.263 99.7453 43.3725 99.8266 43.5704Z" fill="#1B3C87"/>
<path fill-rule="evenodd" clip-rule="evenodd" d="M99.6588 42.9859C99.1164 42.9859 98.5964 43.0534 98.0969 43.1874C97.8305 43.2589 97.548 43.1285 97.4661 42.8961C97.3841 42.6636 97.5336 42.4172 97.8001 42.3457C98.3985 42.1851 99.0188 42.1052 99.6588 42.1052C103.084 42.1052 105.865 44.5311 105.865 47.5188C105.865 50.5064 103.084 52.9323 99.6588 52.9323C99.1297 52.9323 98.5993 52.8721 98.0902 52.751C97.8212 52.687 97.6627 52.445 97.736 52.2103C97.8094 51.9757 98.0869 51.8374 98.3558 51.9014C98.7757 52.0013 99.2167 52.0517 99.6588 52.0517C102.526 52.0517 104.855 50.0201 104.855 47.5188C104.855 45.0175 102.526 42.9859 99.6588 42.9859Z" fill="#1B3C87"/>
</svg>
