<svg width="74" height="74" viewBox="0 0 74 74" fill="none" xmlns="http://www.w3.org/2000/svg">
<circle cx="37" cy="37" r="37" fill="#232424"/>
<path fill-rule="evenodd" clip-rule="evenodd" d="M65.9668 32.0075C66.5581 31.9427 67.0899 32.3694 67.1547 32.9606C68.2948 43.3578 63.9176 54.0767 54.795 60.5994C41.3408 70.2226 22.5966 67.122 12.9726 53.6667L12.9707 53.6639L12.9687 53.6612C8.59462 47.4645 6.86033 40.2583 7.54441 33.2807C7.60244 32.6888 8.12936 32.256 8.72131 32.314C9.31327 32.372 9.74609 32.8989 9.68806 33.4909C9.05315 39.9669 10.6599 46.6539 14.7264 52.4163C23.6581 64.9006 41.0551 67.7788 53.542 58.8475L53.5421 58.8474C62.0072 52.7949 66.0721 42.8483 65.0137 33.1954C64.9488 32.6042 65.3756 32.0723 65.9668 32.0075Z" fill="white"/>
<path d="M9.14404 25.6912L9.45183 25.0756C9.4958 24.9877 9.53977 24.8998 9.58374 24.8558C9.62771 24.8118 9.71564 24.7679 9.75961 24.7239C9.80358 24.7239 9.89152 24.6799 9.93549 24.7239C9.97946 24.7239 10.0674 24.7679 10.1114 24.7679C10.1553 24.8118 10.1993 24.8118 10.2433 24.8558C10.2872 24.8998 10.3312 24.9437 10.3312 24.9877C10.3312 25.0317 10.3752 25.0756 10.3752 25.1196C10.3752 25.1636 10.3752 25.2076 10.3752 25.2955C10.4192 25.2515 10.4192 25.2076 10.4631 25.1636C10.5071 25.1196 10.5511 25.0756 10.595 25.0756C10.639 25.0317 10.7269 25.0317 10.7709 25.0317C10.8588 25.0317 10.9028 25.0317 10.9908 25.0756C11.0787 25.1196 11.1666 25.1636 11.2106 25.2515C11.2985 25.3834 11.3425 25.4274 11.3425 25.5153C11.3425 25.6033 11.3425 25.6912 11.2985 25.7792C11.2546 25.8671 11.2546 25.955 11.2106 26.043L10.9468 26.5706L9.14404 25.6912ZM10.1993 25.5593C10.2433 25.5153 10.2433 25.4714 10.2433 25.3834C10.2433 25.3395 10.2433 25.2515 10.2433 25.2076C10.2433 25.1636 10.1993 25.1196 10.1993 25.0317C10.1553 24.9877 10.1114 24.9437 10.0674 24.8998C9.97946 24.8558 9.93549 24.8558 9.89152 24.8558C9.84755 24.8558 9.80358 24.8998 9.75961 24.8998C9.67168 24.9877 9.62771 25.0317 9.58374 25.0756C9.53977 25.1196 9.53977 25.1636 9.4958 25.2076L9.31992 25.6033L10.0234 25.955L10.1993 25.5593ZM11.0787 26.043C11.1227 25.955 11.1227 25.9111 11.1666 25.8231C11.2106 25.7352 11.2106 25.6912 11.2106 25.6033C11.2106 25.5153 11.2106 25.4714 11.1666 25.4274C11.1227 25.3834 11.0787 25.3395 10.9908 25.2955C10.9028 25.2515 10.8149 25.2515 10.7709 25.2515C10.683 25.2515 10.639 25.2955 10.595 25.3395C10.5071 25.3395 10.4631 25.3834 10.4192 25.4274C10.3752 25.4714 10.3312 25.5593 10.3312 25.6033L10.1553 25.999L10.9028 26.3947L11.0787 26.043Z" fill="white"/>
<path d="M10.5071 23.0092L10.595 22.8773L11.5623 23.4489C11.6503 23.4928 11.7382 23.5368 11.8701 23.5808C11.9581 23.6247 12.046 23.6247 12.1339 23.6247C12.2219 23.6247 12.3098 23.5808 12.3978 23.5368C12.4857 23.4928 12.5297 23.4049 12.6176 23.317C12.7055 23.229 12.7055 23.0971 12.7495 23.0092C12.7495 22.9212 12.7495 22.8333 12.7055 22.7454C12.6616 22.6574 12.6176 22.6134 12.5297 22.5255C12.4417 22.4815 12.3538 22.3936 12.2659 22.3496L11.2985 21.778L11.3865 21.6461L12.4417 22.2617C12.5297 22.3057 12.6176 22.3936 12.7055 22.4815C12.7935 22.5695 12.8375 22.6574 12.8814 22.7454C12.9254 22.8333 12.9254 22.9212 12.9254 23.0531C12.9254 23.1411 12.8814 23.273 12.7935 23.4049C12.7055 23.5368 12.6176 23.6247 12.5297 23.6687C12.4417 23.7127 12.3538 23.7566 12.2659 23.7566C12.1779 23.7566 12.09 23.7566 11.9581 23.7127C11.8701 23.6687 11.7382 23.6247 11.6503 23.5808L10.5071 23.0092Z" fill="white"/>
<path d="M13.673 21.1625C13.761 21.1625 13.8929 21.1185 13.9808 21.0745C14.0687 21.0306 14.1567 20.9426 14.2446 20.8547C14.2886 20.8107 14.3326 20.7228 14.3326 20.6788C14.3765 20.6348 14.3765 20.5469 14.3765 20.5029C14.3765 20.459 14.3765 20.371 14.3326 20.327C14.2886 20.2831 14.2446 20.2391 14.2006 20.1951C14.1567 20.1512 14.0687 20.1072 14.0248 20.1072C13.9808 20.1072 13.8929 20.1072 13.8489 20.1072C13.8049 20.1072 13.717 20.1512 13.673 20.1951C13.629 20.2391 13.5851 20.2831 13.4971 20.327C13.4532 20.371 13.3652 20.415 13.3213 20.459C13.2333 20.5029 13.1893 20.5469 13.1014 20.5469C13.0135 20.5909 12.9695 20.5909 12.8816 20.5469C12.7936 20.5469 12.7497 20.5029 12.6617 20.459C12.6177 20.415 12.5738 20.371 12.5298 20.327C12.4858 20.2831 12.4858 20.1951 12.4858 20.1512C12.4858 20.0632 12.4858 20.0193 12.5298 19.9313C12.5738 19.8434 12.6177 19.7554 12.6617 19.7115C12.7057 19.6235 12.7497 19.5796 12.8376 19.5356C12.8816 19.4916 12.9255 19.4477 13.0135 19.4477C13.0574 19.4037 13.1014 19.4037 13.1454 19.4037C13.1893 19.4037 13.2333 19.4037 13.2773 19.4037V19.5356C13.2333 19.5356 13.2333 19.5356 13.1893 19.5356C13.1454 19.5356 13.1014 19.5356 13.0574 19.5796C13.0135 19.6235 12.9695 19.6235 12.9255 19.6675C12.8816 19.7115 12.8376 19.7554 12.7936 19.7994C12.7497 19.8874 12.7057 19.9313 12.7057 19.9753C12.7057 20.0193 12.6617 20.1072 12.7057 20.1512C12.7057 20.1951 12.7057 20.2391 12.7497 20.2831C12.7936 20.327 12.7936 20.371 12.8376 20.371C12.8816 20.415 12.9695 20.459 13.0135 20.459C13.0574 20.459 13.1454 20.459 13.1893 20.415C13.2333 20.371 13.3213 20.371 13.3652 20.327C13.4092 20.2831 13.4971 20.2391 13.5411 20.1951C13.5851 20.1512 13.673 20.1072 13.717 20.0632C13.761 20.0193 13.8489 19.9753 13.9368 19.9753C14.0248 19.9753 14.0687 19.9753 14.1567 19.9753C14.2446 19.9753 14.3326 20.0193 14.3765 20.1072C14.4645 20.1512 14.5084 20.2391 14.5524 20.2831C14.5964 20.371 14.5964 20.415 14.5964 20.5029C14.5964 20.5909 14.5964 20.6788 14.5524 20.7667C14.5084 20.8547 14.4645 20.9426 14.4205 21.0306C14.3765 21.1185 14.3326 21.1625 14.2446 21.2064C14.2006 21.2504 14.1127 21.2944 14.0687 21.3383C14.0248 21.3823 13.9368 21.3823 13.8929 21.3823C13.8489 21.3823 13.761 21.3823 13.717 21.3823L13.673 21.1625Z" fill="white"/>
<path d="M14.2007 17.8647L14.2886 17.7767L15.7836 19.1398L15.7396 19.1838L14.2007 17.8647Z" fill="white"/>
<path d="M15.5635 16.4137L15.6954 16.3257L17.8939 16.7654L16.6627 15.4463L16.7506 15.3584L18.1577 16.8534L18.0258 16.9413L15.8713 16.5456L17.1024 17.8647L17.0145 17.9526L15.5635 16.4137Z" fill="white"/>
<path d="M18.1138 14.1274L19.0811 13.3799L19.169 13.4678L18.3336 14.1274L18.8173 14.7429L19.4768 14.2153L19.5648 14.3032L18.8612 14.8748L19.3889 15.5344L20.3122 14.8309L20.4002 14.9188L19.3449 15.7542L18.1138 14.1274Z" fill="white"/>
<path d="M21.3675 13.8634C21.4555 13.9073 21.5874 13.9073 21.6753 13.9073C21.7633 13.9073 21.8952 13.8634 22.0271 13.7754C22.115 13.7315 22.159 13.6875 22.203 13.6435C22.2469 13.5995 22.2909 13.5556 22.2909 13.4676C22.2909 13.4237 22.3349 13.3357 22.3349 13.2918C22.3349 13.2478 22.2909 13.1599 22.2909 13.1159C22.2469 13.0719 22.203 12.984 22.159 12.984C22.115 12.94 22.0711 12.94 21.9831 12.94C21.9392 12.94 21.8512 12.94 21.8072 12.94C21.7633 12.94 21.6753 12.984 21.6314 12.984C21.5434 13.0279 21.4995 13.0279 21.4115 13.0279C21.3236 13.0279 21.2356 13.0719 21.1917 13.0719C21.1037 13.0719 21.0598 13.0279 20.9718 13.0279C20.9279 12.984 20.8399 12.94 20.7959 12.8521C20.752 12.8081 20.752 12.7202 20.708 12.6762C20.708 12.5883 20.708 12.5443 20.708 12.4563C20.708 12.3684 20.752 12.3244 20.7959 12.2365C20.8399 12.1925 20.9279 12.1046 21.0158 12.0606C21.1037 12.0166 21.1477 11.9727 21.2356 11.9727C21.2796 11.9727 21.3675 11.9287 21.4115 11.9287C21.4555 11.9287 21.4995 11.9287 21.5434 11.9287C21.5874 11.9287 21.6314 11.9287 21.6753 11.9727L21.6314 12.1046C21.5874 12.1046 21.5874 12.1046 21.5434 12.0606C21.4995 12.0606 21.4555 12.0606 21.4115 12.0606C21.3675 12.0606 21.3236 12.0606 21.2796 12.1046C21.2356 12.1046 21.1477 12.1486 21.1037 12.1925C21.0158 12.2365 20.9718 12.2805 20.9279 12.3244C20.8839 12.3684 20.8839 12.4124 20.8399 12.4563C20.8399 12.5003 20.8399 12.5443 20.8399 12.5883C20.8399 12.6322 20.8839 12.6762 20.8839 12.7202C20.9279 12.7641 20.9718 12.8081 21.0158 12.8521C21.0598 12.896 21.1477 12.896 21.1917 12.896C21.2356 12.896 21.3236 12.896 21.3675 12.8521C21.4555 12.8521 21.4995 12.8081 21.5874 12.8081C21.6753 12.7641 21.7193 12.7641 21.8072 12.7641C21.8952 12.7641 21.9392 12.7641 22.0271 12.7641C22.115 12.7641 22.159 12.8081 22.2469 12.8521C22.3349 12.896 22.3788 12.94 22.4228 13.0279C22.4668 13.1159 22.5108 13.1599 22.5108 13.2478C22.5108 13.3357 22.5108 13.4237 22.4668 13.4676C22.4228 13.5556 22.3788 13.5995 22.3349 13.6875C22.2909 13.7754 22.203 13.8194 22.115 13.8634C22.0271 13.9073 21.9831 13.9513 21.8952 13.9513C21.8072 13.9953 21.7633 13.9953 21.6753 13.9953C21.5874 13.9953 21.5434 13.9953 21.4995 13.9953C21.4555 13.9953 21.3675 13.9953 21.3236 13.9513L21.3675 13.8634Z" fill="white"/>
<path d="M23.8299 12.4125C23.9179 12.4565 24.0498 12.5005 24.1377 12.5005C24.2257 12.5005 24.3576 12.4565 24.4895 12.4125C24.5774 12.3686 24.6214 12.3246 24.6653 12.2806C24.7093 12.2367 24.7533 12.1927 24.7973 12.1487C24.8412 12.1047 24.8412 12.0608 24.8412 11.9728C24.8412 11.9289 24.8412 11.8409 24.7973 11.797C24.7533 11.709 24.7093 11.6651 24.6653 11.6651C24.6214 11.6211 24.5774 11.6211 24.4895 11.5771C24.4455 11.5771 24.3576 11.5771 24.3136 11.5771C24.2696 11.5771 24.1817 11.5771 24.1377 11.6211C24.0498 11.6211 23.9618 11.6651 23.9179 11.6651C23.8299 11.6651 23.742 11.6651 23.698 11.6651C23.6101 11.6651 23.5661 11.6211 23.4782 11.5771C23.4342 11.5331 23.3463 11.4892 23.3023 11.4012C23.2583 11.3133 23.2144 11.2254 23.2144 11.1814C23.2144 11.0935 23.2144 11.0495 23.2583 10.9615C23.3023 10.9176 23.3463 10.8296 23.3902 10.7857C23.4342 10.7417 23.5221 10.6538 23.6101 10.6098C23.698 10.5658 23.742 10.5658 23.8299 10.5219C23.9179 10.5219 23.9618 10.5219 24.0058 10.5219C24.0498 10.5219 24.0937 10.5219 24.1377 10.5658C24.1817 10.5658 24.2257 10.6098 24.2696 10.6098L24.2257 10.7417C24.1817 10.7417 24.1817 10.6977 24.1377 10.6977C24.0937 10.6977 24.0498 10.6977 24.0058 10.6538C23.9618 10.6538 23.9179 10.6538 23.8299 10.6538C23.786 10.6538 23.698 10.6977 23.654 10.6977C23.5661 10.7417 23.5221 10.7857 23.4782 10.8296C23.4342 10.8736 23.3902 10.9176 23.3902 10.9615C23.3902 11.0055 23.3463 11.0495 23.3902 11.0935C23.3902 11.1374 23.3902 11.1814 23.4342 11.2254C23.4782 11.2693 23.5221 11.3573 23.5661 11.3573C23.6101 11.4012 23.654 11.4012 23.742 11.4012C23.786 11.4012 23.8739 11.4012 23.9618 11.4012C24.0498 11.4012 24.0937 11.3573 24.1817 11.3573C24.2696 11.3573 24.3136 11.3133 24.4015 11.3133C24.4895 11.3133 24.5334 11.3133 24.6214 11.3133C24.7093 11.3133 24.7533 11.3573 24.8412 11.4012C24.8852 11.4452 24.9731 11.5331 25.0171 11.6211C25.0611 11.709 25.0611 11.797 25.0611 11.8409C25.0611 11.9289 25.0611 12.0168 25.0171 12.0608C24.9731 12.1487 24.9292 12.1927 24.8852 12.2806C24.8412 12.3246 24.7533 12.4125 24.6653 12.4565C24.5774 12.5005 24.5334 12.5005 24.4455 12.5444C24.3576 12.5444 24.3136 12.5884 24.2257 12.5884C24.1377 12.5884 24.0937 12.5884 24.0498 12.5884C24.0058 12.5884 23.9618 12.5444 23.9179 12.5444L23.8299 12.4125Z" fill="white"/>
<path d="M28.9743 10.7416C28.8424 10.7856 28.7105 10.7856 28.5786 10.7856C28.4467 10.7856 28.3148 10.7416 28.2269 10.6537C28.0949 10.6097 28.007 10.5218 27.9191 10.3899C27.8311 10.3019 27.7872 10.17 27.7432 9.99415C27.6992 9.86225 27.6992 9.73034 27.6992 9.55446C27.6992 9.42255 27.7432 9.29064 27.7872 9.15874C27.8311 9.02683 27.9191 8.93889 28.007 8.85095C28.0949 8.76301 28.2269 8.71904 28.3588 8.67507C28.4907 8.6311 28.6226 8.6311 28.7545 8.6311C28.8864 8.6311 29.0183 8.67507 29.1062 8.76301C29.2381 8.85095 29.3261 8.89492 29.414 9.02683C29.502 9.11477 29.5459 9.24667 29.5899 9.42255C29.6339 9.55446 29.6339 9.68637 29.6339 9.86225C29.6339 9.99415 29.5899 10.1261 29.5459 10.258C29.5459 10.3899 29.458 10.4778 29.3701 10.5658C29.2381 10.6537 29.1502 10.7416 28.9743 10.7416ZM28.9304 10.6537C29.0623 10.6097 29.1502 10.5658 29.2381 10.4778C29.3261 10.3899 29.3701 10.3019 29.458 10.214C29.502 10.1261 29.5459 9.99415 29.5459 9.86225C29.5459 9.73034 29.5459 9.6424 29.502 9.51049C29.458 9.37858 29.414 9.29064 29.3261 9.20271C29.2381 9.11477 29.1502 9.02683 29.0623 8.98286C28.9743 8.93889 28.8424 8.89492 28.7545 8.85095C28.6226 8.85095 28.5346 8.85095 28.4027 8.89492C28.2708 8.93889 28.1829 8.98286 28.0949 9.0708C28.007 9.15874 27.963 9.24667 27.8751 9.33461C27.8311 9.42255 27.7872 9.55446 27.7872 9.68637C27.7872 9.81828 27.7872 9.90622 27.8311 10.0381C27.8751 10.17 27.9191 10.258 28.007 10.3459C28.0949 10.4338 28.1829 10.5218 28.2708 10.5658C28.3588 10.6097 28.4907 10.6537 28.5786 10.6977C28.7105 10.6977 28.8424 10.6537 28.9304 10.6537Z" fill="white"/>
<path d="M31.0408 8.10348L31.6563 7.97158C31.7883 7.92761 31.8762 7.92761 32.0081 7.97158C32.096 7.97158 32.184 8.01555 32.2279 8.05951C32.2719 8.10348 32.3599 8.14745 32.3599 8.23539C32.4478 8.27936 32.4478 8.32333 32.4918 8.41127C32.4918 8.49921 32.4918 8.58715 32.4918 8.63112C32.4478 8.71905 32.4478 8.80699 32.4038 8.85096C32.3599 8.89493 32.3159 8.98287 32.2279 9.02684C32.14 9.07081 32.0521 9.11478 31.9202 9.11478L31.4365 9.20272L31.5684 10.0381L31.4365 10.0821L31.0408 8.10348ZM31.9202 8.98287C32.096 8.9389 32.184 8.89493 32.2719 8.80699C32.3599 8.71905 32.3599 8.58715 32.3159 8.45524C32.2719 8.32333 32.2279 8.19142 32.14 8.14745C32.0521 8.10348 31.9202 8.05951 31.7443 8.10348L31.2166 8.19142L31.3925 9.07081L31.9202 8.98287Z" fill="white"/>
<path d="M34.0747 7.61978L34.6903 7.57581C34.8222 7.57581 34.9541 7.57581 35.042 7.57581C35.13 7.57581 35.2179 7.61978 35.2619 7.66374C35.3058 7.70771 35.3498 7.75168 35.3938 7.83962C35.4378 7.92756 35.4378 7.97153 35.4378 8.05947C35.4378 8.14741 35.4378 8.23535 35.4378 8.27932C35.4378 8.36725 35.3938 8.41122 35.3498 8.45519C35.3058 8.49916 35.2179 8.54313 35.13 8.5871C35.042 8.67504 34.9541 8.71901 34.8222 8.71901L34.3385 8.76298L34.4265 9.64237H34.2946L34.0747 7.61978ZM34.8222 8.5871C34.9981 8.5871 35.13 8.54313 35.1739 8.45519C35.2179 8.36725 35.2619 8.27932 35.2619 8.10344C35.2619 7.97153 35.2179 7.83962 35.13 7.79565C35.042 7.70771 34.9101 7.70771 34.7342 7.70771L34.2066 7.75168L34.2946 8.63107L34.8222 8.5871Z" fill="white"/>
<path d="M37.9881 9.51055C37.8562 9.51055 37.7243 9.46658 37.5924 9.42262C37.4605 9.37865 37.3725 9.29071 37.2846 9.20277C37.1967 9.11483 37.1087 8.98292 37.0647 8.85101C37.0208 8.71911 36.9768 8.5872 36.9768 8.41132C36.9768 8.27941 37.0208 8.10353 37.0647 8.0156C37.1087 7.88369 37.1967 7.79575 37.2846 7.66384C37.3725 7.5759 37.5044 7.48796 37.5924 7.44399C37.7683 7.40002 37.9002 7.40002 38.0321 7.40002C38.164 7.40002 38.2959 7.44399 38.4278 7.48796C38.5597 7.53193 38.6476 7.61987 38.7356 7.70781C38.8235 7.79575 38.9115 7.92766 38.9554 8.05956C38.9994 8.19147 39.0434 8.32338 39.0434 8.49926C39.0434 8.63117 38.9994 8.80704 38.9554 8.89498C38.9115 9.02689 38.8235 9.11483 38.7356 9.24674C38.6476 9.33468 38.5157 9.42262 38.4278 9.46658C38.2519 9.51055 38.12 9.51055 37.9881 9.51055ZM37.9881 9.37865C38.12 9.37865 38.2519 9.37865 38.3399 9.33468C38.4278 9.29071 38.5157 9.24674 38.6037 9.1588C38.6916 9.07086 38.7356 8.98292 38.7796 8.85101C38.8235 8.71911 38.8675 8.63117 38.8675 8.49926C38.8675 8.36735 38.8675 8.23544 38.8235 8.1475C38.7795 8.0156 38.7356 7.92766 38.6476 7.83972C38.5597 7.75178 38.4718 7.70781 38.3838 7.61987C38.2959 7.5759 38.164 7.53193 38.0321 7.53193C37.9002 7.53193 37.7683 7.53193 37.6803 7.5759C37.5924 7.61987 37.4605 7.70781 37.4165 7.75178C37.3286 7.83972 37.2846 7.92766 37.2406 8.05956C37.1967 8.19147 37.1967 8.27941 37.1527 8.41132C37.1087 8.54323 37.1527 8.67514 37.1967 8.76307C37.2406 8.89498 37.2846 8.98292 37.3725 9.07086C37.4605 9.1588 37.5484 9.20277 37.6363 9.29071C37.7683 9.37865 37.8562 9.37865 37.9881 9.37865Z" fill="white"/>
<path d="M40.8019 7.61987L41.4175 7.70781C41.5494 7.70781 41.6373 7.75178 41.7253 7.79575C41.8132 7.83972 41.9012 7.88369 41.9451 7.92766C41.9891 7.97163 42.0331 8.05957 42.0331 8.10354C42.0331 8.19147 42.0331 8.23544 42.0331 8.32338C42.0331 8.45529 41.9451 8.5872 41.9012 8.67514C41.8132 8.76308 41.7253 8.80705 41.5494 8.85102L41.9012 9.81834H41.7253L41.3735 8.89498L40.758 8.80705L40.626 9.68643H40.4941L40.8019 7.61987ZM41.3296 8.71911C41.6813 8.76308 41.8572 8.63117 41.9012 8.36735C41.9012 8.23544 41.9012 8.10354 41.8132 8.0156C41.7253 7.92766 41.5934 7.88369 41.4615 7.83972L40.9778 7.75178L40.8459 8.63117L41.3296 8.71911Z" fill="white"/>
<path d="M44.3637 8.36723L43.6162 8.19136L43.6602 8.05945L45.331 8.45517L45.287 8.58708L44.5396 8.4112L44.0999 10.2579L43.968 10.2139L44.3637 8.36723Z" fill="white"/>
<path d="M46.8699 8.93884L47.0018 8.98281L46.6061 10.082C46.5621 10.17 46.5621 10.3019 46.5181 10.3898C46.5181 10.4778 46.5181 10.5657 46.5181 10.6536C46.5181 10.7416 46.5621 10.8295 46.65 10.8735C46.738 10.9175 46.8259 11.0054 46.9139 11.0494C47.0458 11.0933 47.1337 11.0933 47.2216 11.0933C47.3096 11.0933 47.3975 11.0494 47.4415 11.0054C47.5294 10.9614 47.5734 10.8735 47.6174 10.7856C47.6613 10.6976 47.7053 10.6097 47.7493 10.4778L48.145 9.37854L48.2769 9.42251L47.8812 10.5657C47.8812 10.6976 47.8372 10.8295 47.7493 10.9175C47.6613 11.0054 47.6174 11.0933 47.5294 11.1373C47.4415 11.1813 47.3536 11.2252 47.2656 11.2252C47.1777 11.2252 47.0458 11.2253 46.9139 11.1813C46.782 11.1373 46.65 11.0494 46.6061 11.0054C46.5181 10.9175 46.4742 10.8295 46.4302 10.7416C46.3862 10.6536 46.3862 10.5657 46.3862 10.4338C46.3862 10.3459 46.4302 10.214 46.4742 10.082L46.8699 8.93884Z" fill="white"/>
<path d="M49.9917 10.1261L50.1236 10.1701L50.5193 12.3685L51.3108 10.7417L51.4427 10.7856L50.5633 12.6324L50.4314 12.5884L50.0357 10.4339L49.2442 12.0608L49.1123 12.0168L49.9917 10.1261Z" fill="white"/>
<path d="M53.0255 11.709L53.1574 11.7969L52.1461 13.5557L52.0142 13.4678L53.0255 11.709Z" fill="white"/>
<path d="M55.0919 13.2039L54.4324 12.7642L54.5203 12.6763L55.9274 13.6876L55.8394 13.7755L55.1799 13.3358L54.0806 14.8747L53.9487 14.7868L55.0919 13.2039Z" fill="white"/>
<path d="M56.8509 15.7981L57.0268 14.5229L57.1587 14.6549L56.9828 15.7541L58.0821 15.4463L58.214 15.5782L56.9828 15.93L56.3673 16.6335L56.2354 16.5455L56.8509 15.7981Z" fill="white"/>
<path d="M59.5768 19.9752C59.4888 19.8433 59.4009 19.7553 59.4009 19.6234C59.3569 19.4915 59.3569 19.3596 59.3569 19.2277C59.3569 19.0958 59.4009 18.9639 59.4888 18.832C59.5768 18.7001 59.6647 18.6121 59.7527 18.5242C59.8846 18.4363 59.9725 18.3483 60.1044 18.3043C60.2363 18.2604 60.3682 18.2604 60.5001 18.2604C60.632 18.2604 60.764 18.3043 60.8959 18.3483C61.0278 18.3923 61.1157 18.4802 61.2036 18.6121C61.2916 18.744 61.3795 18.832 61.3795 18.9639C61.4235 19.0958 61.4235 19.2277 61.4235 19.3596C61.4235 19.4915 61.3795 19.6234 61.2916 19.7553C61.2036 19.8872 61.1157 19.9752 61.0278 20.0631C60.8959 20.1511 60.8079 20.239 60.676 20.283C60.5441 20.3269 60.4122 20.3269 60.2803 20.3269C60.1484 20.3269 60.0165 20.283 59.8846 20.239C59.7966 20.195 59.6647 20.1071 59.5768 19.9752ZM59.7087 19.8872C59.7966 19.9752 59.8846 20.0631 59.9725 20.1071C60.0604 20.1511 60.1924 20.195 60.2803 20.195C60.4122 20.195 60.5001 20.195 60.632 20.1511C60.764 20.1071 60.8519 20.0631 60.9398 19.9752C61.0278 19.8872 61.1157 19.7993 61.1597 19.7114C61.2036 19.6234 61.2476 19.4915 61.2916 19.4036C61.2916 19.3156 61.2916 19.1837 61.2916 19.0518C61.2476 18.9199 61.2036 18.832 61.1157 18.744C61.0278 18.6561 60.9398 18.5682 60.8519 18.5242C60.764 18.4802 60.632 18.4363 60.5441 18.4363C60.4122 18.4363 60.3243 18.4363 60.1924 18.4802C60.0604 18.5242 59.9725 18.5682 59.8846 18.6561C59.7966 18.744 59.7087 18.832 59.6647 18.9199C59.6208 19.0079 59.5768 19.1398 59.5328 19.2277C59.5328 19.3596 59.5328 19.4475 59.5328 19.5795C59.5768 19.7114 59.6208 19.7993 59.7087 19.8872Z" fill="white"/>
<path d="M62.7869 20.7227L62.8748 20.8546L61.5997 22.2616L63.3585 21.734L63.4464 21.8659L62.2153 23.2289L64.018 22.6573L64.106 22.7892L62.0834 23.4048L61.9955 23.2729L63.2266 21.9098L61.4678 22.3935L61.3799 22.2616L62.7869 20.7227Z" fill="white"/>
<path d="M64.897 24.2843L64.941 24.4162L63.8857 26.3509L65.5126 25.5594L65.5566 25.6913L63.7099 26.5707L63.6219 26.4388L64.6772 24.5041L63.0503 25.2956L63.0063 25.1637L64.897 24.2843Z" fill="white"/>
<path d="M24.7971 21.3384H32.5797C33.7229 21.3384 34.7342 21.5143 35.5256 21.822C36.3611 22.1298 37.0206 22.5695 37.5482 23.0972C38.0759 23.6248 38.4276 24.2404 38.6914 24.9439C38.9113 25.6474 39.0432 26.3949 39.0432 27.1423C39.0432 27.8019 38.9553 28.4174 38.7354 29.033C38.5156 29.6046 38.2517 30.1762 37.856 30.6599C37.5043 31.1435 37.0646 31.5393 36.5369 31.891C36.0093 32.2428 35.4377 32.4626 34.8221 32.5506C35.4377 32.6385 36.0533 32.8144 36.7128 33.0342C37.3724 33.2541 37.9879 33.6058 38.5156 34.0895C39.0432 34.5292 39.4829 35.1448 39.8786 35.8922C40.2304 36.6397 40.4062 37.5191 40.4062 38.6183C40.4062 39.8935 40.1864 40.9487 39.7027 41.7402C39.2191 42.5316 38.6035 43.1912 37.7681 43.6748C36.9766 44.1585 36.0093 44.5102 34.954 44.6861C33.8988 44.862 32.7556 44.9499 31.5684 44.9499H24.7971V21.3384ZM31.6563 31.8471C32.2719 31.8471 32.9315 31.7591 33.635 31.5832C34.2945 31.4074 34.9101 31.1435 35.4377 30.7918C35.9653 30.3961 36.405 29.9564 36.8008 29.3408C37.1525 28.7692 37.3284 28.0657 37.3284 27.2303C37.3284 26.3069 37.1525 25.5155 36.8008 24.9878C36.449 24.4162 36.0093 23.9765 35.4817 23.6688C34.954 23.361 34.3385 23.1411 33.6789 23.0532C33.0194 22.9652 32.3599 22.9213 31.7003 22.9213H26.5119V31.8031H31.6563V31.8471ZM31.1287 43.3231C32.0081 43.3231 32.9315 43.2791 33.8108 43.1912C34.6902 43.1032 35.5256 42.9273 36.2292 42.5756C36.9327 42.2678 37.5482 41.7841 37.9879 41.1246C38.4276 40.509 38.6475 39.6296 38.6475 38.5304C38.6475 37.4751 38.4276 36.5957 37.9879 35.9362C37.5482 35.2767 37.0206 34.749 36.3171 34.3973C35.6576 34.0455 34.9101 33.7817 34.0747 33.6498C33.2392 33.5179 32.4478 33.43 31.6563 33.43H26.5119V43.3231H31.1287Z" fill="white"/>
<path d="M43.2201 44.9059C44.2885 44.9059 45.1547 44.0398 45.1547 42.9713C45.1547 41.9028 44.2885 41.0366 43.2201 41.0366C42.1516 41.0366 41.2854 41.9028 41.2854 42.9713C41.2854 44.0398 42.1516 44.9059 43.2201 44.9059Z" fill="white"/>
<path d="M48.1886 44.9059C49.257 44.9059 50.1232 44.0398 50.1232 42.9713C50.1232 41.9028 49.257 41.0366 48.1886 41.0366C47.1201 41.0366 46.2539 41.9028 46.2539 42.9713C46.2539 44.0398 47.1201 44.9059 48.1886 44.9059Z" fill="white"/>
</svg>
