<svg width="61" height="60" viewBox="0 0 61 60" fill="none" xmlns="http://www.w3.org/2000/svg">
<path fill-rule="evenodd" clip-rule="evenodd" d="M58.9668 25.0075C59.5581 24.9427 60.0899 25.3694 60.1547 25.9606C61.2948 36.3578 56.9176 47.0767 47.795 53.5994C34.3408 63.2226 15.5966 60.122 5.97263 46.6667L5.97068 46.6639L5.96874 46.6612C1.59462 40.4645 -0.139666 33.2583 0.544408 26.2807C0.602443 25.6888 1.12936 25.256 1.72131 25.314C2.31327 25.372 2.74609 25.8989 2.68806 26.4909C2.05315 32.9669 3.65992 39.6539 7.72645 45.4163C16.6581 57.9006 34.0551 60.7788 46.542 51.8475L46.5421 51.8474C55.0072 45.7949 59.0721 35.8483 58.0137 26.1954C57.9488 25.6042 58.3756 25.0723 58.9668 25.0075Z" fill="white"/>
<path d="M2.14404 18.6912L2.45183 18.0756C2.4958 17.9877 2.53977 17.8998 2.58374 17.8558C2.62771 17.8118 2.71564 17.7679 2.75961 17.7239C2.80358 17.7239 2.89152 17.6799 2.93549 17.7239C2.97946 17.7239 3.0674 17.7679 3.11137 17.7679C3.15534 17.8118 3.19931 17.8118 3.24328 17.8558C3.28725 17.8998 3.33122 17.9437 3.33122 17.9877C3.33122 18.0317 3.37519 18.0756 3.37519 18.1196C3.37519 18.1636 3.37519 18.2076 3.37519 18.2955C3.41915 18.2515 3.41915 18.2076 3.46312 18.1636C3.50709 18.1196 3.55106 18.0756 3.59503 18.0756C3.639 18.0317 3.72694 18.0317 3.77091 18.0317C3.85885 18.0317 3.90282 18.0317 3.99076 18.0756C4.0787 18.1196 4.16663 18.1636 4.2106 18.2515C4.29854 18.3834 4.34251 18.4274 4.34251 18.5153C4.34251 18.6033 4.34251 18.6912 4.29854 18.7792C4.25457 18.8671 4.25457 18.955 4.2106 19.043L3.94679 19.5706L2.14404 18.6912ZM3.19931 18.5593C3.24328 18.5153 3.24328 18.4714 3.24328 18.3834C3.24328 18.3395 3.24328 18.2515 3.24328 18.2076C3.24328 18.1636 3.19931 18.1196 3.19931 18.0317C3.15534 17.9877 3.11137 17.9437 3.0674 17.8998C2.97946 17.8558 2.93549 17.8558 2.89152 17.8558C2.84755 17.8558 2.80358 17.8998 2.75961 17.8998C2.67168 17.9877 2.62771 18.0317 2.58374 18.0756C2.53977 18.1196 2.53977 18.1636 2.4958 18.2076L2.31992 18.6033L3.02343 18.955L3.19931 18.5593ZM4.0787 19.043C4.12266 18.955 4.12266 18.9111 4.16663 18.8231C4.2106 18.7352 4.2106 18.6912 4.2106 18.6033C4.2106 18.5153 4.2106 18.4714 4.16663 18.4274C4.12266 18.3834 4.0787 18.3395 3.99076 18.2955C3.90282 18.2515 3.81488 18.2515 3.77091 18.2515C3.68297 18.2515 3.639 18.2955 3.59503 18.3395C3.50709 18.3395 3.46312 18.3834 3.41915 18.4274C3.37519 18.4714 3.33122 18.5593 3.33122 18.6033L3.15534 18.999L3.90282 19.3947L4.0787 19.043Z" fill="white"/>
<path d="M3.50708 16.0092L3.59502 15.8773L4.56235 16.4489C4.65028 16.4928 4.73822 16.5368 4.87013 16.5808C4.95807 16.6247 5.04601 16.6247 5.13395 16.6247C5.22189 16.6247 5.30982 16.5808 5.39776 16.5368C5.4857 16.4928 5.52967 16.4049 5.61761 16.317C5.70555 16.229 5.70555 16.0971 5.74952 16.0092C5.74952 15.9212 5.74952 15.8333 5.70555 15.7454C5.66158 15.6574 5.61761 15.6134 5.52967 15.5255C5.44173 15.4815 5.35379 15.3936 5.26586 15.3496L4.29853 14.778L4.38647 14.6461L5.44173 15.2617C5.52967 15.3057 5.61761 15.3936 5.70555 15.4815C5.79349 15.5695 5.83746 15.6574 5.88143 15.7454C5.9254 15.8333 5.9254 15.9212 5.9254 16.0531C5.9254 16.1411 5.88143 16.273 5.79349 16.4049C5.70555 16.5368 5.61761 16.6247 5.52967 16.6687C5.44173 16.7127 5.35379 16.7566 5.26586 16.7566C5.17792 16.7566 5.08998 16.7566 4.95807 16.7127C4.87013 16.6687 4.73822 16.6247 4.65028 16.5808L3.50708 16.0092Z" fill="white"/>
<path d="M6.67301 14.1625C6.76095 14.1625 6.89286 14.1185 6.9808 14.0745C7.06874 14.0306 7.15668 13.9426 7.24461 13.8547C7.28858 13.8107 7.33255 13.7228 7.33255 13.6788C7.37652 13.6348 7.37652 13.5469 7.37652 13.5029C7.37652 13.459 7.37652 13.371 7.33255 13.327C7.28858 13.2831 7.24461 13.2391 7.20065 13.1951C7.15668 13.1512 7.06874 13.1072 7.02477 13.1072C6.9808 13.1072 6.89286 13.1072 6.84889 13.1072C6.80492 13.1072 6.71698 13.1512 6.67301 13.1951C6.62904 13.2391 6.58507 13.2831 6.49714 13.327C6.45317 13.371 6.36523 13.415 6.32126 13.459C6.23332 13.5029 6.18935 13.5469 6.10141 13.5469C6.01347 13.5909 5.9695 13.5909 5.88156 13.5469C5.79363 13.5469 5.74966 13.5029 5.66172 13.459C5.61775 13.415 5.57378 13.371 5.52981 13.327C5.48584 13.2831 5.48584 13.1951 5.48584 13.1512C5.48584 13.0632 5.48584 13.0193 5.52981 12.9313C5.57378 12.8434 5.61775 12.7554 5.66172 12.7115C5.70569 12.6235 5.74966 12.5796 5.83759 12.5356C5.88156 12.4916 5.92553 12.4477 6.01347 12.4477C6.05744 12.4037 6.10141 12.4037 6.14538 12.4037C6.18935 12.4037 6.23332 12.4037 6.27729 12.4037V12.5356C6.23332 12.5356 6.23332 12.5356 6.18935 12.5356C6.14538 12.5356 6.10141 12.5356 6.05744 12.5796C6.01347 12.6235 5.9695 12.6235 5.92553 12.6675C5.88156 12.7115 5.83759 12.7554 5.79363 12.7994C5.74966 12.8874 5.70569 12.9313 5.70569 12.9753C5.70569 13.0193 5.66172 13.1072 5.70569 13.1512C5.70569 13.1951 5.70569 13.2391 5.74966 13.2831C5.79363 13.327 5.79363 13.371 5.83759 13.371C5.88156 13.415 5.9695 13.459 6.01347 13.459C6.05744 13.459 6.14538 13.459 6.18935 13.415C6.23332 13.371 6.32126 13.371 6.36523 13.327C6.4092 13.2831 6.49714 13.2391 6.5411 13.1951C6.58507 13.1512 6.67301 13.1072 6.71698 13.0632C6.76095 13.0193 6.84889 12.9753 6.93683 12.9753C7.02477 12.9753 7.06874 12.9753 7.15668 12.9753C7.24461 12.9753 7.33255 13.0193 7.37652 13.1072C7.46446 13.1512 7.50843 13.2391 7.5524 13.2831C7.59637 13.371 7.59637 13.415 7.59637 13.5029C7.59637 13.5909 7.59637 13.6788 7.5524 13.7667C7.50843 13.8547 7.46446 13.9426 7.42049 14.0306C7.37652 14.1185 7.33255 14.1625 7.24461 14.2064C7.20065 14.2504 7.11271 14.2944 7.06874 14.3383C7.02477 14.3823 6.93683 14.3823 6.89286 14.3823C6.84889 14.3823 6.76095 14.3823 6.71698 14.3823L6.67301 14.1625Z" fill="white"/>
<path d="M7.20068 10.8647L7.28862 10.7767L8.78358 12.1398L8.73961 12.1838L7.20068 10.8647Z" fill="white"/>
<path d="M8.56348 9.41366L8.69538 9.32572L10.8939 9.76542L9.66271 8.44634L9.75065 8.3584L11.1577 9.85336L11.0258 9.9413L8.87126 9.54557L10.1024 10.8647L10.0145 10.9526L8.56348 9.41366Z" fill="white"/>
<path d="M11.1138 7.12736L12.0811 6.37988L12.169 6.46782L11.3336 7.12736L11.8173 7.74293L12.4768 7.2153L12.5648 7.30324L11.8612 7.87484L12.3889 8.53438L13.3122 7.83087L13.4002 7.91881L12.3449 8.75423L11.1138 7.12736Z" fill="white"/>
<path d="M14.3675 6.86336C14.4555 6.90733 14.5874 6.90733 14.6753 6.90733C14.7633 6.90733 14.8952 6.86336 15.0271 6.77542C15.115 6.73145 15.159 6.68749 15.203 6.64352C15.2469 6.59955 15.2909 6.55558 15.2909 6.46764C15.2909 6.42367 15.3349 6.33573 15.3349 6.29176C15.3349 6.24779 15.2909 6.15985 15.2909 6.11588C15.2469 6.07191 15.203 5.98398 15.159 5.98398C15.115 5.94001 15.0711 5.94001 14.9831 5.94001C14.9392 5.94001 14.8512 5.94001 14.8072 5.94001C14.7633 5.94001 14.6753 5.98398 14.6314 5.98398C14.5434 6.02795 14.4995 6.02795 14.4115 6.02795C14.3236 6.02795 14.2356 6.07191 14.1917 6.07191C14.1037 6.07191 14.0598 6.02795 13.9718 6.02795C13.9279 5.98398 13.8399 5.94001 13.7959 5.85207C13.752 5.8081 13.752 5.72016 13.708 5.67619C13.708 5.58825 13.708 5.54428 13.708 5.45634C13.708 5.3684 13.752 5.32444 13.7959 5.2365C13.8399 5.19253 13.9279 5.10459 14.0158 5.06062C14.1037 5.01665 14.1477 4.97268 14.2356 4.97268C14.2796 4.97268 14.3675 4.92871 14.4115 4.92871C14.4555 4.92871 14.4995 4.92871 14.5434 4.92871C14.5874 4.92871 14.6314 4.92871 14.6753 4.97268L14.6314 5.10459C14.5874 5.10459 14.5874 5.10459 14.5434 5.06062C14.4995 5.06062 14.4555 5.06062 14.4115 5.06062C14.3675 5.06062 14.3236 5.06062 14.2796 5.10459C14.2356 5.10459 14.1477 5.14856 14.1037 5.19253C14.0158 5.2365 13.9718 5.28047 13.9279 5.32444C13.8839 5.3684 13.8839 5.41237 13.8399 5.45634C13.8399 5.50031 13.8399 5.54428 13.8399 5.58825C13.8399 5.63222 13.8839 5.67619 13.8839 5.72016C13.9279 5.76413 13.9718 5.8081 14.0158 5.85207C14.0598 5.89604 14.1477 5.89604 14.1917 5.89604C14.2356 5.89604 14.3236 5.89604 14.3675 5.85207C14.4555 5.85207 14.4995 5.8081 14.5874 5.8081C14.6753 5.76413 14.7193 5.76413 14.8072 5.76413C14.8952 5.76413 14.9392 5.76413 15.0271 5.76413C15.115 5.76413 15.159 5.8081 15.2469 5.85207C15.3349 5.89604 15.3788 5.94001 15.4228 6.02795C15.4668 6.11588 15.5108 6.15985 15.5108 6.24779C15.5108 6.33573 15.5108 6.42367 15.4668 6.46764C15.4228 6.55558 15.3788 6.59955 15.3349 6.68749C15.2909 6.77542 15.203 6.81939 15.115 6.86336C15.0271 6.90733 14.9831 6.9513 14.8952 6.9513C14.8072 6.99527 14.7633 6.99527 14.6753 6.99527C14.5874 6.99527 14.5434 6.99527 14.4995 6.99527C14.4555 6.99527 14.3675 6.99527 14.3236 6.9513L14.3675 6.86336Z" fill="white"/>
<path d="M16.8299 5.41253C16.9179 5.4565 17.0498 5.50047 17.1377 5.50047C17.2257 5.50047 17.3576 5.4565 17.4895 5.41253C17.5774 5.36856 17.6214 5.32459 17.6653 5.28063C17.7093 5.23666 17.7533 5.19269 17.7973 5.14872C17.8412 5.10475 17.8412 5.06078 17.8412 4.97284C17.8412 4.92887 17.8412 4.84093 17.7973 4.79696C17.7533 4.70902 17.7093 4.66505 17.6653 4.66505C17.6214 4.62108 17.5774 4.62108 17.4895 4.57712C17.4455 4.57712 17.3576 4.57712 17.3136 4.57712C17.2696 4.57712 17.1817 4.57712 17.1377 4.62109C17.0498 4.62109 16.9618 4.66505 16.9179 4.66505C16.8299 4.66505 16.742 4.66505 16.698 4.66505C16.6101 4.66505 16.5661 4.62108 16.4782 4.57712C16.4342 4.53315 16.3463 4.48918 16.3023 4.40124C16.2583 4.3133 16.2144 4.22536 16.2144 4.18139C16.2144 4.09345 16.2144 4.04948 16.2583 3.96154C16.3023 3.91758 16.3463 3.82964 16.3902 3.78567C16.4342 3.7417 16.5221 3.65376 16.6101 3.60979C16.698 3.56582 16.742 3.56582 16.8299 3.52185C16.9179 3.52185 16.9618 3.52185 17.0058 3.52185C17.0498 3.52185 17.0937 3.52185 17.1377 3.56582C17.1817 3.56582 17.2257 3.60979 17.2696 3.60979L17.2257 3.7417C17.1817 3.7417 17.1817 3.69773 17.1377 3.69773C17.0937 3.69773 17.0498 3.69773 17.0058 3.65376C16.9618 3.65376 16.9179 3.65376 16.8299 3.65376C16.786 3.65376 16.698 3.69773 16.654 3.69773C16.5661 3.7417 16.5221 3.78567 16.4782 3.82964C16.4342 3.87361 16.3902 3.91758 16.3902 3.96154C16.3902 4.00551 16.3463 4.04948 16.3902 4.09345C16.3902 4.13742 16.3902 4.18139 16.4342 4.22536C16.4782 4.26933 16.5221 4.35727 16.5661 4.35727C16.6101 4.40124 16.654 4.40124 16.742 4.40124C16.786 4.40124 16.8739 4.40124 16.9618 4.40124C17.0498 4.40124 17.0937 4.35727 17.1817 4.35727C17.2696 4.35727 17.3136 4.3133 17.4015 4.3133C17.4895 4.3133 17.5334 4.3133 17.6214 4.3133C17.7093 4.3133 17.7533 4.35727 17.8412 4.40124C17.8852 4.44521 17.9731 4.53315 18.0171 4.62109C18.0611 4.70902 18.0611 4.79696 18.0611 4.84093C18.0611 4.92887 18.0611 5.01681 18.0171 5.06078C17.9731 5.14872 17.9292 5.19269 17.8852 5.28063C17.8412 5.32459 17.7533 5.41253 17.6653 5.4565C17.5774 5.50047 17.5334 5.50047 17.4455 5.54444C17.3576 5.54444 17.3136 5.58841 17.2257 5.58841C17.1377 5.58841 17.0937 5.58841 17.0498 5.58841C17.0058 5.58841 16.9618 5.54444 16.9179 5.54444L16.8299 5.41253Z" fill="white"/>
<path d="M21.9743 3.74163C21.8424 3.7856 21.7105 3.7856 21.5786 3.7856C21.4467 3.7856 21.3148 3.74163 21.2269 3.65369C21.0949 3.60973 21.007 3.52179 20.9191 3.38988C20.8311 3.30194 20.7872 3.17003 20.7432 2.99415C20.6992 2.86225 20.6992 2.73034 20.6992 2.55446C20.6992 2.42255 20.7432 2.29064 20.7872 2.15874C20.8311 2.02683 20.9191 1.93889 21.007 1.85095C21.0949 1.76301 21.2269 1.71904 21.3588 1.67507C21.4907 1.6311 21.6226 1.6311 21.7545 1.6311C21.8864 1.6311 22.0183 1.67507 22.1062 1.76301C22.2381 1.85095 22.3261 1.89492 22.414 2.02683C22.502 2.11477 22.5459 2.24667 22.5899 2.42255C22.6339 2.55446 22.6339 2.68637 22.6339 2.86225C22.6339 2.99415 22.5899 3.12606 22.5459 3.25797C22.5459 3.38988 22.458 3.47782 22.3701 3.56576C22.2381 3.65369 22.1502 3.74163 21.9743 3.74163ZM21.9304 3.65369C22.0623 3.60973 22.1502 3.56576 22.2381 3.47782C22.3261 3.38988 22.3701 3.30194 22.458 3.214C22.502 3.12606 22.5459 2.99415 22.5459 2.86225C22.5459 2.73034 22.5459 2.6424 22.502 2.51049C22.458 2.37858 22.414 2.29064 22.3261 2.20271C22.2381 2.11477 22.1502 2.02683 22.0623 1.98286C21.9743 1.93889 21.8424 1.89492 21.7545 1.85095C21.6226 1.85095 21.5346 1.85095 21.4027 1.89492C21.2708 1.93889 21.1829 1.98286 21.0949 2.0708C21.007 2.15874 20.963 2.24667 20.8751 2.33461C20.8311 2.42255 20.7872 2.55446 20.7872 2.68637C20.7872 2.81828 20.7872 2.90622 20.8311 3.03812C20.8751 3.17003 20.9191 3.25797 21.007 3.34591C21.0949 3.43385 21.1829 3.52179 21.2708 3.56576C21.3588 3.60973 21.4907 3.65369 21.5786 3.69766C21.7105 3.69766 21.8424 3.65369 21.9304 3.65369Z" fill="white"/>
<path d="M24.0408 1.10348L24.6563 0.971576C24.7883 0.927606 24.8762 0.927606 25.0081 0.971576C25.096 0.971576 25.184 1.01555 25.2279 1.05951C25.2719 1.10348 25.3599 1.14745 25.3599 1.23539C25.4478 1.27936 25.4478 1.32333 25.4918 1.41127C25.4918 1.49921 25.4918 1.58715 25.4918 1.63112C25.4478 1.71905 25.4478 1.80699 25.4038 1.85096C25.3599 1.89493 25.3159 1.98287 25.2279 2.02684C25.14 2.07081 25.0521 2.11478 24.9202 2.11478L24.4365 2.20272L24.5684 3.03814L24.4365 3.08211L24.0408 1.10348ZM24.9202 1.98287C25.096 1.9389 25.184 1.89493 25.2719 1.80699C25.3599 1.71905 25.3599 1.58715 25.3159 1.45524C25.2719 1.32333 25.2279 1.19142 25.14 1.14745C25.0521 1.10348 24.9202 1.05951 24.7443 1.10348L24.2166 1.19142L24.3925 2.07081L24.9202 1.98287Z" fill="white"/>
<path d="M27.0747 0.619775L27.6903 0.575806C27.8222 0.575806 27.9541 0.575806 28.042 0.575806C28.13 0.575806 28.2179 0.619775 28.2619 0.663744C28.3058 0.707714 28.3498 0.751683 28.3938 0.839622C28.4378 0.927561 28.4378 0.97153 28.4378 1.05947C28.4378 1.14741 28.4378 1.23535 28.4378 1.27932C28.4378 1.36725 28.3938 1.41122 28.3498 1.45519C28.3058 1.49916 28.2179 1.54313 28.13 1.5871C28.042 1.67504 27.9541 1.71901 27.8222 1.71901L27.3385 1.76298L27.4265 2.64237H27.2946L27.0747 0.619775ZM27.8222 1.5871C27.9981 1.5871 28.13 1.54313 28.1739 1.45519C28.2179 1.36725 28.2619 1.27932 28.2619 1.10344C28.2619 0.97153 28.2179 0.839622 28.13 0.795652C28.042 0.707714 27.9101 0.707714 27.7342 0.707714L27.2066 0.751683L27.2946 1.63107L27.8222 1.5871Z" fill="white"/>
<path d="M30.9881 2.51055C30.8562 2.51055 30.7243 2.46658 30.5924 2.42262C30.4605 2.37865 30.3725 2.29071 30.2846 2.20277C30.1967 2.11483 30.1087 1.98292 30.0647 1.85101C30.0208 1.71911 29.9768 1.5872 29.9768 1.41132C29.9768 1.27941 30.0208 1.10353 30.0647 1.0156C30.1087 0.883687 30.1967 0.795749 30.2846 0.663841C30.3725 0.575902 30.5044 0.487963 30.5924 0.443994C30.7683 0.400024 30.9002 0.400024 31.0321 0.400024C31.164 0.400024 31.2959 0.443994 31.4278 0.487963C31.5597 0.531933 31.6476 0.619871 31.7356 0.70781C31.8235 0.795749 31.9115 0.927657 31.9554 1.05956C31.9994 1.19147 32.0434 1.32338 32.0434 1.49926C32.0434 1.63117 31.9994 1.80704 31.9554 1.89498C31.9115 2.02689 31.8235 2.11483 31.7356 2.24674C31.6476 2.33468 31.5157 2.42262 31.4278 2.46658C31.2519 2.51055 31.12 2.51055 30.9881 2.51055ZM30.9881 2.37865C31.12 2.37865 31.2519 2.37865 31.3399 2.33468C31.4278 2.29071 31.5157 2.24674 31.6037 2.1588C31.6916 2.07086 31.7356 1.98292 31.7796 1.85101C31.8235 1.71911 31.8675 1.63117 31.8675 1.49926C31.8675 1.36735 31.8675 1.23544 31.8235 1.1475C31.7795 1.0156 31.7356 0.927657 31.6476 0.839718C31.5597 0.751779 31.4718 0.70781 31.3838 0.619871C31.2959 0.575902 31.164 0.531933 31.0321 0.531933C30.9002 0.531933 30.7683 0.531933 30.6803 0.575902C30.5924 0.619871 30.4605 0.70781 30.4165 0.751779C30.3286 0.839718 30.2846 0.927657 30.2406 1.05956C30.1967 1.19147 30.1967 1.27941 30.1527 1.41132C30.1087 1.54323 30.1527 1.67514 30.1967 1.76307C30.2406 1.89498 30.2846 1.98292 30.3725 2.07086C30.4605 2.1588 30.5484 2.20277 30.6363 2.29071C30.7683 2.37865 30.8562 2.37865 30.9881 2.37865Z" fill="white"/>
<path d="M33.8019 0.619873L34.4175 0.707812C34.5494 0.707812 34.6373 0.751781 34.7253 0.795751C34.8132 0.83972 34.9012 0.883689 34.9451 0.927659C34.9891 0.971628 35.0331 1.05957 35.0331 1.10354C35.0331 1.19147 35.0331 1.23544 35.0331 1.32338C35.0331 1.45529 34.9451 1.5872 34.9012 1.67514C34.8132 1.76308 34.7253 1.80705 34.5494 1.85102L34.9012 2.81834H34.7253L34.3735 1.89498L33.758 1.80705L33.626 2.68643H33.4941L33.8019 0.619873ZM34.3296 1.71911C34.6813 1.76308 34.8572 1.63117 34.9012 1.36735C34.9012 1.23544 34.9012 1.10354 34.8132 1.0156C34.7253 0.927659 34.5934 0.883689 34.4615 0.83972L33.9778 0.751781L33.8459 1.63117L34.3296 1.71911Z" fill="white"/>
<path d="M37.3637 1.36723L36.6162 1.19136L36.6602 1.05945L38.331 1.45517L38.287 1.58708L37.5396 1.4112L37.0999 3.25792L36.968 3.21395L37.3637 1.36723Z" fill="white"/>
<path d="M39.8699 1.93884L40.0018 1.98281L39.6061 3.08205C39.5621 3.16998 39.5621 3.30189 39.5181 3.38983C39.5181 3.47777 39.5181 3.56571 39.5181 3.65365C39.5181 3.74159 39.5621 3.82953 39.65 3.87349C39.738 3.91746 39.8259 4.0054 39.9139 4.04937C40.0458 4.09334 40.1337 4.09334 40.2216 4.09334C40.3096 4.09334 40.3975 4.04937 40.4415 4.0054C40.5294 3.96143 40.5734 3.87349 40.6174 3.78556C40.6613 3.69762 40.7053 3.60968 40.7493 3.47777L41.145 2.37854L41.2769 2.42251L40.8812 3.56571C40.8812 3.69762 40.8372 3.82953 40.7493 3.91746C40.6613 4.0054 40.6174 4.09334 40.5294 4.13731C40.4415 4.18128 40.3536 4.22525 40.2656 4.22525C40.1777 4.22525 40.0458 4.22525 39.9139 4.18128C39.782 4.13731 39.65 4.04937 39.6061 4.0054C39.5181 3.91746 39.4742 3.82953 39.4302 3.74159C39.3862 3.65365 39.3862 3.56571 39.3862 3.4338C39.3862 3.34586 39.4302 3.21395 39.4742 3.08205L39.8699 1.93884Z" fill="white"/>
<path d="M42.9917 3.1261L43.1236 3.17007L43.5193 5.36854L44.3108 3.74167L44.4427 3.78564L43.5633 5.63235L43.4314 5.58838L43.0357 3.43388L42.2442 5.06075L42.1123 5.01678L42.9917 3.1261Z" fill="white"/>
<path d="M46.0255 4.70898L46.1574 4.79692L45.1461 6.5557L45.0142 6.46776L46.0255 4.70898Z" fill="white"/>
<path d="M48.0919 6.2039L47.4324 5.76421L47.5203 5.67627L48.9274 6.68757L48.8394 6.7755L48.1799 6.33581L47.0806 7.87474L46.9487 7.7868L48.0919 6.2039Z" fill="white"/>
<path d="M49.8509 8.79806L50.0268 7.52295L50.1587 7.65486L49.9828 8.75409L51.0821 8.44631L51.214 8.57821L49.9828 8.92997L49.3673 9.63348L49.2354 9.54554L49.8509 8.79806Z" fill="white"/>
<path d="M52.5768 12.9752C52.4888 12.8433 52.4009 12.7553 52.4009 12.6234C52.3569 12.4915 52.3569 12.3596 52.3569 12.2277C52.3569 12.0958 52.4009 11.9639 52.4888 11.832C52.5768 11.7001 52.6647 11.6121 52.7527 11.5242C52.8846 11.4363 52.9725 11.3483 53.1044 11.3043C53.2363 11.2604 53.3682 11.2604 53.5001 11.2604C53.632 11.2604 53.764 11.3043 53.8959 11.3483C54.0278 11.3923 54.1157 11.4802 54.2036 11.6121C54.2916 11.744 54.3795 11.832 54.3795 11.9639C54.4235 12.0958 54.4235 12.2277 54.4235 12.3596C54.4235 12.4915 54.3795 12.6234 54.2916 12.7553C54.2036 12.8872 54.1157 12.9752 54.0278 13.0631C53.8959 13.1511 53.8079 13.239 53.676 13.283C53.5441 13.3269 53.4122 13.3269 53.2803 13.3269C53.1484 13.3269 53.0165 13.283 52.8846 13.239C52.7966 13.195 52.6647 13.1071 52.5768 12.9752ZM52.7087 12.8872C52.7966 12.9752 52.8846 13.0631 52.9725 13.1071C53.0604 13.1511 53.1924 13.195 53.2803 13.195C53.4122 13.195 53.5001 13.195 53.632 13.1511C53.764 13.1071 53.8519 13.0631 53.9398 12.9752C54.0278 12.8872 54.1157 12.7993 54.1597 12.7114C54.2036 12.6234 54.2476 12.4915 54.2916 12.4036C54.2916 12.3156 54.2916 12.1837 54.2916 12.0518C54.2476 11.9199 54.2036 11.832 54.1157 11.744C54.0278 11.6561 53.9398 11.5682 53.8519 11.5242C53.764 11.4802 53.632 11.4363 53.5441 11.4363C53.4122 11.4363 53.3243 11.4363 53.1924 11.4802C53.0604 11.5242 52.9725 11.5682 52.8846 11.6561C52.7966 11.744 52.7087 11.832 52.6647 11.9199C52.6208 12.0079 52.5768 12.1398 52.5328 12.2277C52.5328 12.3596 52.5328 12.4475 52.5328 12.5795C52.5768 12.7114 52.6208 12.7993 52.7087 12.8872Z" fill="white"/>
<path d="M55.7869 13.7227L55.8748 13.8546L54.5997 15.2616L56.3585 14.734L56.4464 14.8659L55.2153 16.2289L57.018 15.6573L57.106 15.7892L55.0834 16.4048L54.9955 16.2729L56.2266 14.9098L54.4678 15.3935L54.3799 15.2616L55.7869 13.7227Z" fill="white"/>
<path d="M57.897 17.2843L57.941 17.4162L56.8857 19.3509L58.5126 18.5594L58.5566 18.6913L56.7099 19.5707L56.6219 19.4388L57.6772 17.5041L56.0503 18.2956L56.0063 18.1637L57.897 17.2843Z" fill="white"/>
<path d="M17.7971 14.3384H25.5797C26.7229 14.3384 27.7342 14.5143 28.5256 14.822C29.3611 15.1298 30.0206 15.5695 30.5482 16.0972C31.0759 16.6248 31.4276 17.2404 31.6914 17.9439C31.9113 18.6474 32.0432 19.3949 32.0432 20.1423C32.0432 20.8019 31.9553 21.4174 31.7354 22.033C31.5156 22.6046 31.2517 23.1762 30.856 23.6599C30.5043 24.1435 30.0646 24.5393 29.5369 24.891C29.0093 25.2428 28.4377 25.4626 27.8221 25.5506C28.4377 25.6385 29.0533 25.8144 29.7128 26.0342C30.3724 26.2541 30.9879 26.6058 31.5156 27.0895C32.0432 27.5292 32.4829 28.1448 32.8786 28.8922C33.2304 29.6397 33.4062 30.5191 33.4062 31.6183C33.4062 32.8935 33.1864 33.9487 32.7027 34.7402C32.2191 35.5316 31.6035 36.1912 30.7681 36.6748C29.9766 37.1585 29.0093 37.5102 27.954 37.6861C26.8988 37.862 25.7556 37.9499 24.5684 37.9499H17.7971V14.3384ZM24.6563 24.8471C25.2719 24.8471 25.9315 24.7591 26.635 24.5832C27.2945 24.4074 27.9101 24.1435 28.4377 23.7918C28.9653 23.3961 29.405 22.9564 29.8008 22.3408C30.1525 21.7692 30.3284 21.0657 30.3284 20.2303C30.3284 19.3069 30.1525 18.5155 29.8008 17.9878C29.449 17.4162 29.0093 16.9765 28.4817 16.6688C27.954 16.361 27.3385 16.1411 26.6789 16.0532C26.0194 15.9652 25.3599 15.9213 24.7003 15.9213H19.5119V24.8031H24.6563V24.8471ZM24.1287 36.3231C25.0081 36.3231 25.9315 36.2791 26.8108 36.1912C27.6902 36.1032 28.5256 35.9273 29.2292 35.5756C29.9327 35.2678 30.5482 34.7841 30.9879 34.1246C31.4276 33.509 31.6475 32.6296 31.6475 31.5304C31.6475 30.4751 31.4276 29.5957 30.9879 28.9362C30.5482 28.2767 30.0206 27.749 29.3171 27.3973C28.6576 27.0455 27.9101 26.7817 27.0747 26.6498C26.2392 26.5179 25.4478 26.43 24.6563 26.43H19.5119V36.3231H24.1287Z" fill="white"/>
<path d="M36.2201 37.9059C37.2885 37.9059 38.1547 37.0398 38.1547 35.9713C38.1547 34.9028 37.2885 34.0366 36.2201 34.0366C35.1516 34.0366 34.2854 34.9028 34.2854 35.9713C34.2854 37.0398 35.1516 37.9059 36.2201 37.9059Z" fill="white"/>
<path d="M41.1886 37.9059C42.257 37.9059 43.1232 37.0398 43.1232 35.9713C43.1232 34.9028 42.257 34.0366 41.1886 34.0366C40.1201 34.0366 39.2539 34.9028 39.2539 35.9713C39.2539 37.0398 40.1201 37.9059 41.1886 37.9059Z" fill="white"/>
</svg>
