<svg width="117" height="115" viewBox="0 0 117 115" fill="none" xmlns="http://www.w3.org/2000/svg">
<path fill-rule="evenodd" clip-rule="evenodd" d="M114.341 47.9129C115.492 47.7867 116.528 48.6176 116.654 49.7688C118.874 70.0129 110.351 90.8836 92.5888 103.584C66.3923 122.321 29.8957 116.284 11.157 90.0852L11.1532 90.0799L11.1494 90.0746C2.63261 78.0091 -0.744189 63.978 0.587762 50.3921C0.700761 49.2395 1.72672 48.3967 2.8793 48.5097C4.03188 48.6227 4.87463 49.6487 4.76163 50.8013C3.52542 63.4106 6.65393 76.4308 14.5718 87.6506C31.9626 111.959 65.836 117.563 90.149 100.173L90.1493 100.173C106.631 88.3878 114.546 69.0209 112.485 50.2259C112.359 49.0747 113.19 48.0392 114.341 47.9129Z" fill="#202020"/>
<path d="M3.70239 35.6146L4.30168 34.4161C4.38729 34.2448 4.4729 34.0736 4.55851 33.988C4.64413 33.9024 4.81535 33.8168 4.90096 33.7312C4.98658 33.7312 5.1578 33.6456 5.24341 33.7312C5.32902 33.7312 5.50025 33.8168 5.58586 33.8168C5.67147 33.9024 5.75708 33.9024 5.8427 33.988C5.92831 34.0736 6.01392 34.1592 6.01392 34.2448C6.01392 34.3304 6.09953 34.4161 6.09953 34.5017C6.09953 34.5873 6.09953 34.6729 6.09953 34.8441C6.18515 34.7585 6.18515 34.6729 6.27076 34.5873C6.35637 34.5017 6.44198 34.4161 6.52759 34.4161C6.61321 34.3304 6.78443 34.3304 6.87004 34.3304C7.04127 34.3304 7.12688 34.3304 7.2981 34.4161C7.46933 34.5017 7.64055 34.5873 7.72616 34.7585C7.89739 35.0153 7.983 35.101 7.983 35.2722C7.983 35.4434 7.983 35.6146 7.89739 35.7859C7.81178 35.9571 7.81178 36.1283 7.72616 36.2995L7.21249 37.3269L3.70239 35.6146ZM5.75708 35.3578C5.8427 35.2722 5.8427 35.1866 5.8427 35.0153C5.8427 34.9297 5.8427 34.7585 5.8427 34.6729C5.8427 34.5873 5.75708 34.5017 5.75708 34.3304C5.67147 34.2448 5.58586 34.1592 5.50025 34.0736C5.32902 33.988 5.24341 33.988 5.1578 33.988C5.07219 33.988 4.98658 34.0736 4.90096 34.0736C4.72974 34.2448 4.64413 34.3304 4.55851 34.4161C4.4729 34.5017 4.4729 34.5873 4.38729 34.6729L4.04484 35.4434L5.41464 36.1283L5.75708 35.3578ZM7.46933 36.2995C7.55494 36.1283 7.55494 36.0427 7.64055 35.8715C7.72616 35.7002 7.72616 35.6146 7.72616 35.4434C7.72616 35.2722 7.72616 35.1866 7.64055 35.101C7.55494 35.0153 7.46933 34.9297 7.2981 34.8441C7.12688 34.7585 6.95565 34.7585 6.87004 34.7585C6.69882 34.7585 6.61321 34.8441 6.52759 34.9297C6.35637 34.9297 6.27076 35.0153 6.18515 35.101C6.09953 35.1866 6.01392 35.3578 6.01392 35.4434L5.67147 36.2139L7.12688 36.9844L7.46933 36.2995Z" fill="#202020"/>
<path d="M6.35645 30.3923L6.52767 30.1354L8.41114 31.2484C8.58236 31.334 8.75359 31.4196 9.01042 31.5052C9.18165 31.5908 9.35287 31.5908 9.5241 31.5908C9.69532 31.5908 9.86654 31.5052 10.0378 31.4196C10.209 31.334 10.2946 31.1628 10.4658 30.9915C10.6371 30.8203 10.6371 30.5635 10.7227 30.3923C10.7227 30.221 10.7227 30.0498 10.6371 29.8786C10.5514 29.7074 10.4658 29.6217 10.2946 29.4505C10.1234 29.3649 9.95216 29.1937 9.78093 29.1081L7.89746 27.9951L8.06869 27.7383L10.1234 28.9368C10.2946 29.0225 10.4658 29.1937 10.6371 29.3649C10.8083 29.5361 10.8939 29.7074 10.9795 29.8786C11.0651 30.0498 11.0651 30.221 11.0651 30.4779C11.0651 30.6491 10.9795 30.9059 10.8083 31.1628C10.6371 31.4196 10.4658 31.5908 10.2946 31.6764C10.1234 31.7621 9.95216 31.8477 9.78093 31.8477C9.60971 31.8477 9.43848 31.8477 9.18165 31.7621C9.01042 31.6764 8.75359 31.5908 8.58236 31.5052L6.35645 30.3923Z" fill="#202020"/>
<path d="M12.5205 26.7966C12.6917 26.7966 12.9486 26.7109 13.1198 26.6253C13.291 26.5397 13.4622 26.3685 13.6335 26.1973C13.7191 26.1117 13.8047 25.9404 13.8047 25.8548C13.8903 25.7692 13.8903 25.598 13.8903 25.5124C13.8903 25.4268 13.8903 25.2555 13.8047 25.1699C13.7191 25.0843 13.6335 24.9987 13.5479 24.9131C13.4622 24.8275 13.291 24.7419 13.2054 24.7419C13.1198 24.7419 12.9486 24.7419 12.863 24.7419C12.7773 24.7419 12.6061 24.8275 12.5205 24.9131C12.4349 24.9987 12.3493 25.0843 12.1781 25.1699C12.0925 25.2555 11.9212 25.3412 11.8356 25.4268C11.6644 25.5124 11.5788 25.598 11.4076 25.598C11.2363 25.6836 11.1507 25.6836 10.9795 25.598C10.8083 25.598 10.7227 25.5124 10.5514 25.4268C10.4658 25.3412 10.3802 25.2555 10.2946 25.1699C10.209 25.0843 10.209 24.9131 10.209 24.8275C10.209 24.6563 10.209 24.5706 10.2946 24.3994C10.3802 24.2282 10.4658 24.057 10.5514 23.9714C10.637 23.8001 10.7227 23.7145 10.8939 23.6289C10.9795 23.5433 11.0651 23.4577 11.2363 23.4577C11.3219 23.3721 11.4076 23.3721 11.4932 23.3721C11.5788 23.3721 11.6644 23.3721 11.75 23.3721V23.6289C11.6644 23.6289 11.6644 23.6289 11.5788 23.6289C11.4932 23.6289 11.4076 23.6289 11.3219 23.7145C11.2363 23.8001 11.1507 23.8001 11.0651 23.8857C10.9795 23.9714 10.8939 24.057 10.8083 24.1426C10.7227 24.3138 10.637 24.3994 10.637 24.485C10.637 24.5706 10.5514 24.7419 10.637 24.8275C10.637 24.9131 10.637 24.9987 10.7227 25.0843C10.8083 25.1699 10.8083 25.2555 10.8939 25.2555C10.9795 25.3412 11.1507 25.4268 11.2363 25.4268C11.3219 25.4268 11.4932 25.4268 11.5788 25.3412C11.6644 25.2555 11.8356 25.2555 11.9212 25.1699C12.0068 25.0843 12.1781 24.9987 12.2637 24.9131C12.3493 24.8275 12.5205 24.7419 12.6061 24.6563C12.6917 24.5706 12.863 24.485 13.0342 24.485C13.2054 24.485 13.291 24.485 13.4622 24.485C13.6335 24.485 13.8047 24.5706 13.8903 24.7419C14.0615 24.8275 14.1471 24.9987 14.2328 25.0843C14.3184 25.2555 14.3184 25.3411 14.3184 25.5124C14.3184 25.6836 14.3184 25.8548 14.2328 26.026C14.1471 26.1973 14.0615 26.3685 13.9759 26.5397C13.8903 26.7109 13.8047 26.7966 13.6335 26.8822C13.5479 26.9678 13.3766 27.0534 13.291 27.139C13.2054 27.2246 13.0342 27.2246 12.9486 27.2246C12.863 27.2246 12.6917 27.2246 12.6061 27.2246L12.5205 26.7966Z" fill="#202020"/>
<path d="M13.5483 20.3756L13.7196 20.2043L16.6304 22.8583L16.5448 22.9439L13.5483 20.3756Z" fill="#202020"/>
<path d="M16.2017 17.5503L16.4585 17.3791L20.7391 18.2352L18.342 15.6668L18.5132 15.4956L21.2528 18.4064L20.9959 18.5776L16.8009 17.8071L19.1981 20.3755L19.0269 20.5467L16.2017 17.5503Z" fill="#202020"/>
<path d="M21.1672 13.0986L23.0507 11.6432L23.2219 11.8144L21.5953 13.0986L22.537 14.2972L23.8212 13.2698L23.9924 13.441L22.6226 14.554L23.65 15.8382L25.4478 14.4684L25.6191 14.6396L23.5644 16.2662L21.1672 13.0986Z" fill="#202020"/>
<path d="M27.5027 12.5848C27.6739 12.6704 27.9307 12.6704 28.102 12.6704C28.2732 12.6704 28.53 12.5848 28.7869 12.4136C28.9581 12.328 29.0437 12.2424 29.1293 12.1567C29.2149 12.0711 29.3005 11.9855 29.3005 11.8143C29.3005 11.7287 29.3862 11.5575 29.3862 11.4718C29.3862 11.3862 29.3005 11.215 29.3005 11.1294C29.2149 11.0438 29.1293 10.8726 29.0437 10.8726C28.9581 10.787 28.8725 10.787 28.7013 10.787C28.6156 10.787 28.4444 10.787 28.3588 10.787C28.2732 10.787 28.102 10.8726 28.0164 10.8726C27.8451 10.9582 27.7595 10.9582 27.5883 10.9582C27.4171 10.9582 27.2459 11.0438 27.1602 11.0438C26.989 11.0438 26.9034 10.9582 26.7322 10.9582C26.6466 10.8726 26.4753 10.787 26.3897 10.6157C26.3041 10.5301 26.3041 10.3589 26.2185 10.2733C26.2185 10.1021 26.2185 10.0164 26.2185 9.84522C26.2185 9.67399 26.3041 9.58838 26.3897 9.41716C26.4753 9.33154 26.6466 9.16032 26.8178 9.07471C26.989 8.9891 27.0746 8.90348 27.2459 8.90348C27.3315 8.90348 27.5027 8.81787 27.5883 8.81787C27.6739 8.81787 27.7595 8.81787 27.8451 8.81787C27.9308 8.81787 28.0164 8.81787 28.102 8.90348L28.0164 9.16032C27.9308 9.16032 27.9308 9.16032 27.8451 9.07471C27.7595 9.07471 27.6739 9.07471 27.5883 9.07471C27.5027 9.07471 27.4171 9.07471 27.3315 9.16032C27.2459 9.16032 27.0746 9.24593 26.989 9.33154C26.8178 9.41716 26.7322 9.50277 26.6466 9.58838C26.561 9.67399 26.561 9.7596 26.4753 9.84522C26.4753 9.93083 26.4753 10.0164 26.4753 10.1021C26.4753 10.1877 26.561 10.2733 26.561 10.3589C26.6466 10.4445 26.7322 10.5301 26.8178 10.6157C26.9034 10.7013 27.0746 10.7013 27.1602 10.7013C27.2459 10.7013 27.4171 10.7013 27.5027 10.6157C27.6739 10.6157 27.7595 10.5301 27.9307 10.5301C28.102 10.4445 28.1876 10.4445 28.3588 10.4445C28.53 10.4445 28.6156 10.4445 28.7869 10.4445C28.9581 10.4445 29.0437 10.5301 29.2149 10.6157C29.3862 10.7013 29.4718 10.787 29.5574 10.9582C29.643 11.1294 29.7286 11.215 29.7286 11.3862C29.7286 11.5575 29.7286 11.7287 29.643 11.8143C29.5574 11.9855 29.4718 12.0711 29.3862 12.2424C29.3005 12.4136 29.1293 12.4992 28.9581 12.5848C28.7869 12.6704 28.7013 12.756 28.53 12.756C28.3588 12.8416 28.2732 12.8416 28.102 12.8416C27.9307 12.8416 27.8451 12.8416 27.7595 12.8416C27.6739 12.8416 27.5027 12.8416 27.4171 12.756L27.5027 12.5848Z" fill="#202020"/>
<path d="M32.297 9.75981C32.4682 9.84543 32.725 9.93104 32.8962 9.93104C33.0675 9.93104 33.3243 9.84543 33.5811 9.75981C33.7524 9.6742 33.838 9.58859 33.9236 9.50298C34.0092 9.41737 34.0948 9.33175 34.1804 9.24614C34.266 9.16053 34.266 9.07492 34.266 8.90369C34.266 8.81808 34.266 8.64686 34.1804 8.56124C34.0948 8.39002 34.0092 8.30441 33.9236 8.30441C33.838 8.2188 33.7524 8.2188 33.5811 8.13318C33.4955 8.13318 33.3243 8.13318 33.2387 8.13318C33.1531 8.13318 32.9819 8.13318 32.8962 8.2188C32.725 8.2188 32.5538 8.30441 32.4682 8.30441C32.297 8.30441 32.1257 8.30441 32.0401 8.30441C31.8689 8.30441 31.7833 8.2188 31.6121 8.13318C31.5264 8.04757 31.3552 7.96196 31.2696 7.79073C31.184 7.61951 31.0984 7.44829 31.0984 7.36267C31.0984 7.19145 31.0984 7.10584 31.184 6.93461C31.2696 6.849 31.3552 6.67778 31.4408 6.59216C31.5265 6.50655 31.6977 6.33533 31.8689 6.24972C32.0401 6.1641 32.1257 6.1641 32.297 6.07849C32.4682 6.07849 32.5538 6.07849 32.6394 6.07849C32.725 6.07849 32.8106 6.07849 32.8962 6.1641C32.9819 6.1641 33.0675 6.24972 33.1531 6.24972L33.0675 6.50655C32.9819 6.50655 32.9819 6.42094 32.8962 6.42094C32.8106 6.42094 32.725 6.42094 32.6394 6.33533C32.5538 6.33533 32.4682 6.33533 32.297 6.33533C32.2113 6.33533 32.0401 6.42094 31.9545 6.42094C31.7833 6.50655 31.6977 6.59216 31.6121 6.67778C31.5264 6.76339 31.4408 6.849 31.4408 6.93461C31.4408 7.02023 31.3552 7.10584 31.4408 7.19145C31.4408 7.27706 31.4408 7.36267 31.5264 7.44829C31.6121 7.5339 31.6977 7.70512 31.7833 7.70512C31.8689 7.79073 31.9545 7.79073 32.1257 7.79073C32.2113 7.79073 32.3826 7.79073 32.5538 7.79073C32.725 7.79073 32.8106 7.70512 32.9819 7.70512C33.1531 7.70512 33.2387 7.61951 33.4099 7.61951C33.5811 7.61951 33.6668 7.61951 33.838 7.61951C34.0092 7.61951 34.0948 7.70512 34.266 7.79073C34.3517 7.87635 34.5229 8.04757 34.6085 8.2188C34.6941 8.39002 34.6941 8.56124 34.6941 8.64686C34.6941 8.81808 34.6941 8.98931 34.6085 9.07492C34.5229 9.24614 34.4373 9.33175 34.3516 9.50298C34.266 9.58859 34.0948 9.75981 33.9236 9.84543C33.7524 9.93104 33.6668 9.93104 33.4955 10.0167C33.3243 10.0167 33.2387 10.1023 33.0675 10.1023C32.8962 10.1023 32.8106 10.1023 32.725 10.1023C32.6394 10.1023 32.5538 10.0167 32.4682 10.0167L32.297 9.75981Z" fill="#202020"/>
<path d="M42.3138 6.50636C42.057 6.59197 41.8001 6.59197 41.5433 6.59197C41.2865 6.59197 41.0296 6.50636 40.8584 6.33513C40.6016 6.24952 40.4303 6.0783 40.2591 5.82146C40.0879 5.65023 40.0023 5.3934 39.9167 5.05095C39.8311 4.79411 39.8311 4.53728 39.8311 4.19483C39.8311 3.93799 39.9167 3.68116 40.0023 3.42432C40.0879 3.16748 40.2591 2.99626 40.4303 2.82503C40.6016 2.65381 40.8584 2.5682 41.1152 2.48258C41.3721 2.39697 41.6289 2.39697 41.8857 2.39697C42.1426 2.39697 42.3994 2.48258 42.5706 2.65381C42.8275 2.82503 42.9987 2.91065 43.1699 3.16748C43.3412 3.33871 43.4268 3.59554 43.5124 3.93799C43.598 4.19483 43.598 4.45166 43.598 4.79411C43.598 5.05095 43.5124 5.30779 43.4268 5.56462C43.4268 5.82146 43.2555 5.99268 43.0843 6.16391C42.8275 6.33513 42.6563 6.50636 42.3138 6.50636ZM42.2282 6.33513C42.485 6.24952 42.6563 6.16391 42.8275 5.99268C42.9987 5.82146 43.0843 5.65023 43.2555 5.47901C43.3412 5.30779 43.4268 5.05095 43.4268 4.79411C43.4268 4.53728 43.4268 4.36605 43.3412 4.10922C43.2555 3.85238 43.1699 3.68115 42.9987 3.50993C42.8275 3.33871 42.6563 3.16748 42.485 3.08187C42.3138 2.99626 42.057 2.91065 41.8857 2.82503C41.6289 2.82503 41.4577 2.82503 41.2008 2.91065C40.944 2.99626 40.7728 3.08187 40.6016 3.25309C40.4303 3.42432 40.3447 3.59554 40.1735 3.76677C40.0879 3.93799 40.0023 4.19483 40.0023 4.45166C40.0023 4.7085 40.0023 4.87973 40.0879 5.13656C40.1735 5.3934 40.2591 5.56462 40.4303 5.73585C40.6016 5.90707 40.7728 6.0783 40.944 6.16391C41.1152 6.24952 41.3721 6.33513 41.5433 6.42074C41.8001 6.42074 42.057 6.33513 42.2282 6.33513Z" fill="#202020"/>
<path d="M46.3374 1.36963L47.536 1.11279C47.7928 1.02718 47.964 1.02718 48.2209 1.11279C48.3921 1.11279 48.5633 1.19841 48.6489 1.28402C48.7345 1.36963 48.9058 1.45524 48.9058 1.62647C49.077 1.71208 49.077 1.79769 49.1626 1.96891C49.1626 2.14014 49.1626 2.31136 49.1626 2.39698C49.077 2.5682 49.077 2.73942 48.9914 2.82504C48.9058 2.91065 48.8202 3.08187 48.6489 3.16748C48.4777 3.2531 48.3065 3.33871 48.0496 3.33871L47.1079 3.50993L47.3647 5.13656L47.1079 5.22218L46.3374 1.36963ZM48.0496 3.08187C48.3921 2.99626 48.5633 2.91065 48.7345 2.73942C48.9058 2.5682 48.9058 2.31136 48.8202 2.05453C48.7345 1.79769 48.6489 1.54085 48.4777 1.45524C48.3065 1.36963 48.0496 1.28402 47.7072 1.36963L46.6799 1.54085L47.0223 3.2531L48.0496 3.08187Z" fill="#202020"/>
<path d="M52.2446 0.427897L53.4432 0.342285C53.7 0.342285 53.9569 0.342285 54.1281 0.342285C54.2993 0.342285 54.4705 0.427897 54.5562 0.513509C54.6418 0.599122 54.7274 0.684734 54.813 0.855958C54.8986 1.02718 54.8986 1.11279 54.8986 1.28402C54.8986 1.45524 54.8986 1.62647 54.8986 1.71208C54.8986 1.8833 54.813 1.96892 54.7274 2.05453C54.6418 2.14014 54.4705 2.22575 54.2993 2.31136C54.1281 2.48259 53.9569 2.5682 53.7 2.5682L52.7583 2.65381L52.9295 4.36606H52.6727L52.2446 0.427897ZM53.7 2.31136C54.0425 2.31136 54.2993 2.22575 54.3849 2.05453C54.4705 1.8833 54.5562 1.71208 54.5562 1.36963C54.5562 1.11279 54.4705 0.855958 54.2993 0.770346C54.1281 0.599122 53.8713 0.599122 53.5288 0.599122L52.5015 0.684734L52.6727 2.39698L53.7 2.31136Z" fill="#202020"/>
<path d="M59.8643 4.10938C59.6075 4.10938 59.3507 4.02377 59.0938 3.93816C58.837 3.85255 58.6658 3.68132 58.4945 3.5101C58.3233 3.33887 58.1521 3.08204 58.0665 2.8252C57.9809 2.56836 57.8953 2.31153 57.8953 1.96908C57.8953 1.71224 57.9809 1.36979 58.0665 1.19857C58.1521 0.941734 58.3233 0.770509 58.4945 0.513673C58.6658 0.342449 58.9226 0.171224 59.0938 0.0856121C59.4363 0 59.6931 0 59.95 0C60.2068 0 60.4636 0.0856121 60.7205 0.171224C60.9773 0.256836 61.1485 0.428061 61.3198 0.599285C61.491 0.770509 61.6622 1.02735 61.7478 1.28418C61.8334 1.54102 61.919 1.79786 61.919 2.1403C61.919 2.39714 61.8334 2.73959 61.7478 2.91081C61.6622 3.16765 61.491 3.33887 61.3198 3.59571C61.1485 3.76693 60.8917 3.93816 60.7205 4.02377C60.378 4.10938 60.1212 4.10938 59.8643 4.10938ZM59.8643 3.85255C60.1212 3.85255 60.378 3.85255 60.5492 3.76693C60.7205 3.68132 60.8917 3.59571 61.0629 3.42449C61.2341 3.25326 61.3197 3.08204 61.4054 2.8252C61.491 2.56836 61.5766 2.39714 61.5766 2.1403C61.5766 1.88347 61.5766 1.62663 61.491 1.45541C61.4054 1.19857 61.3197 1.02735 61.1485 0.856121C60.9773 0.684897 60.8061 0.599285 60.6349 0.428061C60.4636 0.342449 60.2068 0.256836 59.95 0.256836C59.6931 0.256836 59.4363 0.256836 59.2651 0.342449C59.0938 0.428061 58.837 0.599285 58.7514 0.684897C58.5802 0.856121 58.4945 1.02735 58.4089 1.28418C58.3233 1.54102 58.3233 1.71224 58.2377 1.96908C58.1521 2.22592 58.2377 2.48275 58.3233 2.65398C58.4089 2.91081 58.4945 3.08204 58.6658 3.25326C58.837 3.42449 59.0082 3.5101 59.1794 3.68132C59.4363 3.85255 59.6075 3.85255 59.8643 3.85255Z" fill="#202020"/>
<path d="M65.3429 0.427979L66.5415 0.599203C66.7983 0.599203 66.9696 0.684815 67.1408 0.770427C67.312 0.856039 67.4832 0.941651 67.5688 1.02726C67.6545 1.11288 67.7401 1.2841 67.7401 1.36971C67.7401 1.54094 67.7401 1.62655 67.7401 1.79777C67.7401 2.05461 67.5689 2.31145 67.4832 2.48267C67.312 2.65389 67.1408 2.73951 66.7983 2.82512L67.4832 4.70859H67.1408L66.4559 2.91073L65.2573 2.73951L65.0005 4.45175H64.7437L65.3429 0.427979ZM66.3703 2.56828C67.0552 2.65389 67.3976 2.39706 67.4832 1.88339C67.4832 1.62655 67.4832 1.36971 67.312 1.19849C67.1408 1.02726 66.884 0.941651 66.6271 0.856039L65.6854 0.684815L65.4285 2.39706L66.3703 2.56828Z" fill="#202020"/>
<path d="M72.2782 1.88322L70.8228 1.54077L70.9084 1.28394L74.1616 2.05445L74.076 2.31128L72.6206 1.96883L71.7645 5.56454L71.5076 5.47893L72.2782 1.88322Z" fill="#202020"/>
<path d="M77.1578 2.99622L77.4146 3.08183L76.6441 5.22213C76.5585 5.39336 76.5585 5.65019 76.4729 5.82142C76.4729 5.99264 76.4729 6.16387 76.4729 6.33509C76.4729 6.50631 76.5585 6.67754 76.7297 6.76315C76.901 6.84876 77.0722 7.01999 77.2434 7.1056C77.5003 7.19121 77.6715 7.19121 77.8427 7.19121C78.0139 7.19121 78.1851 7.1056 78.2708 7.01999C78.442 6.93438 78.5276 6.76315 78.6132 6.59193C78.6988 6.4207 78.7844 6.24948 78.87 5.99264L79.6406 3.85234L79.8974 3.93795L79.1269 6.16387C79.1269 6.4207 79.0413 6.67754 78.87 6.84876C78.6988 7.01999 78.6132 7.19121 78.442 7.27682C78.2708 7.36244 78.0995 7.44805 77.9283 7.44805C77.7571 7.44805 77.5003 7.44805 77.2434 7.36244C76.9866 7.27682 76.7297 7.1056 76.6441 7.01999C76.4729 6.84876 76.3873 6.67754 76.3017 6.50631C76.2161 6.33509 76.2161 6.16387 76.2161 5.90703C76.2161 5.73581 76.3017 5.47897 76.3873 5.22213L77.1578 2.99622Z" fill="#202020"/>
<path d="M83.2362 5.30786L83.493 5.39347L84.2635 9.67408L85.8045 6.50643L86.0614 6.59204L84.3491 10.1878L84.0923 10.1021L83.3218 5.90715L81.7808 9.0748L81.5239 8.98918L83.2362 5.30786Z" fill="#202020"/>
<path d="M89.1432 8.38989L89.4 8.56112L87.4309 11.9856L87.1741 11.8144L89.1432 8.38989Z" fill="#202020"/>
<path d="M93.1671 11.3007L91.8829 10.4445L92.0541 10.2733L94.7937 12.2424L94.6225 12.4136L93.3383 11.5575L91.198 14.5539L90.9412 14.3827L93.1671 11.3007Z" fill="#202020"/>
<path d="M96.5919 16.3518L96.9343 13.869L97.1912 14.1259L96.8487 16.2662L98.989 15.6669L99.2459 15.9237L96.8487 16.6086L95.6501 17.9784L95.3933 17.8072L96.5919 16.3518Z" fill="#202020"/>
<path d="M101.899 24.4849C101.728 24.228 101.557 24.0568 101.557 23.8C101.471 23.5431 101.471 23.2863 101.471 23.0295C101.471 22.7726 101.557 22.5158 101.728 22.259C101.899 22.0021 102.07 21.8309 102.242 21.6597C102.499 21.4884 102.67 21.3172 102.927 21.2316C103.183 21.146 103.44 21.146 103.697 21.146C103.954 21.146 104.211 21.2316 104.468 21.3172C104.724 21.4028 104.896 21.5741 105.067 21.8309C105.238 22.0877 105.409 22.259 105.409 22.5158C105.495 22.7726 105.495 23.0295 105.495 23.2863C105.495 23.5431 105.409 23.8 105.238 24.0568C105.067 24.3136 104.896 24.4849 104.724 24.6561C104.468 24.8273 104.296 24.9985 104.04 25.0842C103.783 25.1698 103.526 25.1698 103.269 25.1698C103.012 25.1698 102.755 25.0842 102.499 24.9985C102.327 24.9129 102.07 24.7417 101.899 24.4849ZM102.156 24.3136C102.327 24.4849 102.499 24.6561 102.67 24.7417C102.841 24.8273 103.098 24.9129 103.269 24.9129C103.526 24.9129 103.697 24.9129 103.954 24.8273C104.211 24.7417 104.382 24.6561 104.553 24.4849C104.724 24.3136 104.896 24.1424 104.981 23.9712C105.067 23.8 105.153 23.5431 105.238 23.3719C105.238 23.2007 105.238 22.9439 105.238 22.687C105.153 22.4302 105.067 22.259 104.896 22.0877C104.724 21.9165 104.553 21.7453 104.382 21.6597C104.211 21.5741 103.954 21.4884 103.783 21.4884C103.526 21.4884 103.355 21.4884 103.098 21.5741C102.841 21.6597 102.67 21.7453 102.499 21.9165C102.327 22.0877 102.156 22.259 102.07 22.4302C101.985 22.6014 101.899 22.8582 101.814 23.0295C101.814 23.2863 101.814 23.4575 101.814 23.7144C101.899 23.9712 101.985 24.1424 102.156 24.3136Z" fill="#202020"/>
<path d="M108.15 25.9403L108.321 26.1971L105.838 28.9367L109.263 27.9094L109.434 28.1662L107.037 30.8202L110.547 29.7072L110.718 29.9641L106.78 31.1627L106.609 30.9058L109.006 28.2518L105.581 29.1936L105.41 28.9367L108.15 25.9403Z" fill="#202020"/>
<path d="M112.258 32.8751L112.344 33.132L110.289 36.8989L113.457 35.3579L113.542 35.6147L109.947 37.327L109.775 37.0701L111.83 33.3032L108.663 34.8442L108.577 34.5874L112.258 32.8751Z" fill="#202020"/>
<path d="M34.1804 27.1392H49.3338C51.5597 27.1392 53.5288 27.4816 55.0698 28.0809C56.6964 28.6802 57.9806 29.5363 59.0079 30.5636C60.0353 31.591 60.7202 32.7896 61.2339 34.1594C61.6619 35.5292 61.9188 36.9846 61.9188 38.44C61.9188 39.7241 61.7475 40.9227 61.3195 42.1213C60.8914 43.2342 60.3777 44.3472 59.6072 45.2889C58.9223 46.2307 58.0662 47.0012 57.0389 47.6861C56.0115 48.371 54.8986 48.799 53.7 48.9703C54.8986 49.1415 56.0971 49.4839 57.3813 49.912C58.6655 50.3401 59.8641 51.025 60.8914 51.9667C61.9188 52.8228 62.7749 54.0214 63.5454 55.4768C64.2303 56.9322 64.5727 58.6444 64.5727 60.7847C64.5727 63.2675 64.1447 65.3222 63.2029 66.8632C62.2612 68.4042 61.0626 69.6884 59.436 70.6301C57.895 71.5719 56.0115 72.2568 53.9568 72.5992C51.9021 72.9417 49.6762 73.1129 47.3647 73.1129H34.1804V27.1392ZM47.5359 47.6005C48.7345 47.6005 50.0187 47.4292 51.3885 47.0868C52.6726 46.7443 53.8712 46.2307 54.8986 45.5458C55.9259 44.7753 56.782 43.9191 57.5525 42.7206C58.2374 41.6076 58.5799 40.2378 58.5799 38.6112C58.5799 36.8133 58.2374 35.2723 57.5525 34.245C56.8676 33.132 56.0115 32.2759 54.9842 31.6766C53.9568 31.0773 52.7583 30.6493 51.4741 30.478C50.1899 30.3068 48.9057 30.2212 47.6215 30.2212H37.5193V47.5149H47.5359V47.6005ZM46.5086 69.9452C48.2208 69.9452 50.0187 69.8596 51.7309 69.6884C53.4432 69.5172 55.0698 69.1747 56.4396 68.4898C57.8094 67.8905 59.0079 66.9488 59.8641 65.6646C60.7202 64.4661 61.1483 62.7538 61.1483 60.6135C61.1483 58.5588 60.7202 56.8466 59.8641 55.5624C59.0079 54.2782 57.9806 53.2509 56.6108 52.566C55.3266 51.8811 53.8712 51.3674 52.2446 51.1106C50.618 50.8537 49.0769 50.6825 47.5359 50.6825H37.5193V69.9452H46.5086Z" fill="#202020"/>
<path d="M70.0514 73.0272C72.1318 73.0272 73.8183 71.3406 73.8183 69.2602C73.8183 67.1798 72.1318 65.4933 70.0514 65.4933C67.9709 65.4933 66.2844 67.1798 66.2844 69.2602C66.2844 71.3406 67.9709 73.0272 70.0514 73.0272Z" fill="#202020"/>
<path d="M79.7254 73.0272C81.8059 73.0272 83.4924 71.3406 83.4924 69.2602C83.4924 67.1798 81.8059 65.4933 79.7254 65.4933C77.645 65.4933 75.9585 67.1798 75.9585 69.2602C75.9585 71.3406 77.645 73.0272 79.7254 73.0272Z" fill="#202020"/>
</svg>
