<svg width="60" height="58" viewBox="0 0 60 58" fill="none" xmlns="http://www.w3.org/2000/svg">
<path d="M49.191 36.4677V32.4018C49.191 31.1486 48.1884 30.146 46.9352 30.146H45.4035V28.0574C46.2111 27.7789 46.796 26.9991 46.796 26.108C46.796 24.9662 45.877 24.0471 44.7352 24.0471C43.5934 24.0471 42.6743 24.9662 42.6743 26.108C42.6743 26.9991 43.2592 27.7789 44.0668 28.0574V30.146H37.7729L36.9096 25.1054C36.7147 23.9079 35.6007 22.9889 34.4032 22.9889H33.4007V21.9028H34.4868C34.8488 21.9028 35.1552 21.5964 35.1552 21.2344C35.1552 20.8724 34.8488 20.566 34.4868 20.566H12.3748C12.0128 20.566 11.7064 20.8724 11.7064 21.2344C11.7064 21.5964 12.0128 21.9028 12.3748 21.9028H13.4609V22.9889H13.1267C11.9292 22.9889 10.8153 23.9079 10.6203 25.1054L8.69878 36.4399H8.53169C7.69622 36.4399 7 37.1361 7 37.9716V39.3361C7 40.1716 7.69622 40.8678 8.53169 40.8678H10.4254C10.8431 40.8678 11.233 40.6729 11.5115 40.3944H12.8761C13.2103 42.9565 15.4103 44.9616 18.0838 44.9616C20.7573 44.9616 22.9574 42.9565 23.2916 40.3944H32.9829C33.3171 42.9565 35.5172 44.9616 38.1907 44.9616C40.8642 44.9616 43.0642 42.9565 43.3984 40.3944H45.9605C46.239 40.6729 46.6289 40.8678 47.0466 40.8678H48.9403C49.7758 40.8678 50.472 40.1716 50.472 39.3361V37.9716C50.3885 37.2196 49.8872 36.607 49.191 36.4677ZM44.0111 26.108C44.0111 25.7181 44.3174 25.4117 44.7073 25.4117C45.0972 25.4117 45.4035 25.7181 45.4035 26.108C45.4035 26.4978 45.0972 26.8042 44.7073 26.8042C44.3174 26.8042 44.0111 26.4978 44.0111 26.108ZM14.7977 21.8749H32.0082V22.961H14.7977V21.8749ZM10.5647 39.3083C10.5647 39.3918 10.4811 39.4754 10.3976 39.4754H8.50383C8.42029 39.4754 8.33674 39.3918 8.33674 39.3083V37.9437C8.33674 37.8602 8.42029 37.7766 8.50383 37.7766H10.3976C10.4811 37.7766 10.5647 37.8602 10.5647 37.9437V39.3083ZM10.0355 36.4399L10.1748 35.6044H11.9292V36.4399H10.0355ZM18.056 43.5692C15.9116 43.5692 14.185 41.8147 14.185 39.6982C14.185 37.5538 15.9395 35.8272 18.056 35.8272C20.2003 35.8272 21.927 37.5817 21.927 39.6982C21.927 41.8425 20.2003 43.5692 18.056 43.5692ZM38.135 43.5692C35.9906 43.5692 34.264 41.8147 34.264 39.6982C34.264 37.5538 36.0185 35.8272 38.135 35.8272C40.2793 35.8272 42.006 37.5817 42.006 39.6982C42.006 41.8425 40.2793 43.5692 38.135 43.5692ZM45.4592 37.9437V39.002H43.3427C43.0085 36.4399 40.8085 34.4348 38.135 34.4348C35.4615 34.4348 33.2614 36.4399 32.9273 39.002H23.2359C22.9017 36.4399 20.7016 34.4348 18.0281 34.4348C15.3546 34.4348 13.1546 36.4399 12.8204 39.002H11.8735V37.9437C11.8735 37.888 11.8735 37.8323 11.8735 37.7766H12.2634C12.8204 37.7766 13.266 37.331 13.266 36.7741V35.2145C13.266 34.6575 12.8204 34.212 12.2634 34.212H10.3976L11.9014 25.3282C11.9849 24.7991 12.5419 24.3256 13.071 24.3256H34.3475C34.8767 24.3256 35.4336 24.7991 35.5172 25.3282L36.4641 30.9258C36.5197 31.26 36.7982 31.4828 37.1324 31.4828H46.9074C47.4086 31.4828 47.7985 31.9005 47.7985 32.3739V34.1841H45.0136C44.4567 34.1841 44.0111 34.6297 44.0111 35.1867V36.7462C44.0111 37.3032 44.4567 37.7488 45.0136 37.7488H45.4592C45.4592 37.8323 45.4592 37.888 45.4592 37.9437ZM45.4035 36.4399V35.6044H47.8264V36.4399H45.4035ZM49.0517 39.3083C49.0517 39.3918 48.9682 39.4754 48.8846 39.4754H46.9909C46.9074 39.4754 46.8238 39.3918 46.8238 39.3083V37.9437C46.8238 37.8602 46.9074 37.7766 46.9909 37.7766H48.8846C48.9682 37.7766 49.0517 37.8602 49.0517 37.9437V39.3083ZM32.8437 24.7991H26.9119C26.1321 24.7991 25.5195 25.4396 25.5195 26.1915V29.4777C25.5195 30.2574 26.16 30.8701 26.9119 30.8701H32.8437C33.6235 30.8701 34.2361 30.2296 34.2361 29.4777V26.1915C34.2361 25.4117 33.6235 24.7991 32.8437 24.7991ZM32.8994 29.4777C32.8994 29.5055 32.8716 29.5334 32.8437 29.5334H26.9119C26.8841 29.5334 26.8562 29.5055 26.8562 29.4777V26.1915C26.8562 26.1637 26.8841 26.1358 26.9119 26.1358H32.8437C32.8716 26.1358 32.8994 26.1637 32.8994 26.1915V29.4777ZM16.0509 31.3714H13.6002C13.2381 31.3714 12.9318 31.6777 12.9318 32.0398C12.9318 32.4018 13.2381 32.7081 13.6002 32.7081H16.0509C16.4129 32.7081 16.7192 32.4018 16.7192 32.0398C16.7192 31.6777 16.4129 31.3714 16.0509 31.3714ZM21.3978 24.7991H14.9091C14.185 24.7991 13.5166 25.356 13.4052 26.0801L12.8483 29.3663C12.7926 29.7561 12.8761 30.146 13.1267 30.4245C13.3774 30.703 13.7394 30.8701 14.1293 30.8701H21.4257C22.2055 30.8701 22.8181 30.2296 22.8181 29.4777V26.1915C22.7903 25.4117 22.1776 24.7991 21.3978 24.7991ZM21.4257 29.4777C21.4257 29.5055 21.3978 29.5334 21.37 29.5334H14.1571L14.7141 26.3307C14.7141 26.275 14.8255 26.1915 14.8812 26.1915H21.37C21.3978 26.1915 21.4257 26.2194 21.4257 26.2472V29.4777ZM29.2791 31.3714H26.8284C26.4663 31.3714 26.16 31.6777 26.16 32.0398C26.16 32.4018 26.4663 32.7081 26.8284 32.7081H29.2791C29.6411 32.7081 29.9474 32.4018 29.9474 32.0398C29.9474 31.6777 29.6411 31.3714 29.2791 31.3714ZM18.056 36.6905C16.4129 36.6905 15.0762 38.0272 15.0762 39.6703C15.0762 41.3134 16.4129 42.6502 18.056 42.6502C19.6991 42.6502 21.0358 41.3134 21.0358 39.6703C21.0358 38.0272 19.6991 36.6905 18.056 36.6905ZM18.056 41.3134C17.1648 41.3134 16.4129 40.5893 16.4129 39.6703C16.4129 38.7513 17.137 38.0273 18.056 38.0273C18.9471 38.0273 19.6991 38.7513 19.6991 39.6703C19.6991 40.5893 18.9471 41.3134 18.056 41.3134ZM38.135 36.6905C36.4919 36.6905 35.1552 38.0272 35.1552 39.6703C35.1552 41.3134 36.4919 42.6502 38.135 42.6502C39.7781 42.6502 41.1148 41.3134 41.1148 39.6703C41.1148 38.0272 39.7781 36.6905 38.135 36.6905ZM38.135 41.3134C37.2438 41.3134 36.4919 40.5893 36.4919 39.6703C36.4919 38.7513 37.216 38.0273 38.135 38.0273C39.0261 38.0273 39.7781 38.7513 39.7781 39.6703C39.7781 40.5893 39.0261 41.3134 38.135 41.3134Z" fill="#93989f"/>
</svg>
