<svg width="60" height="58" viewBox="0 0 60 58" fill="none" xmlns="http://www.w3.org/2000/svg">
<path d="M50.5251 49.2225H48.6036V46.6047C48.6036 46.1313 48.2137 45.7414 47.7403 45.7414H45.8187V28.7258H47.7403C48.2137 28.7258 48.6036 28.3359 48.6036 27.8625V22.9889C48.6036 22.6826 48.4365 22.4041 48.1859 22.237L30.112 11.1253C29.8335 10.9582 29.4714 10.9582 29.193 11.1253L11.1191 22.237C10.7292 22.4598 10.5899 22.9611 10.7849 23.351V27.8346C10.7849 28.308 11.1748 28.6979 11.6482 28.6979H13.4584V45.7136H11.5368C11.0634 45.7136 10.6735 46.1034 10.6735 46.5769V49.1947H8.86332C8.38989 49.1947 8 49.5845 8 50.058V53.5391C8 54.0125 8.38989 54.4024 8.86332 54.4024H50.553C51.0264 54.4024 51.4163 54.0125 51.4163 53.5391V50.058C51.4163 49.6124 51.0264 49.2225 50.5251 49.2225ZM44.1199 45.7414H41.6971V28.7258H44.1199V45.7414ZM23.4004 45.7414V28.7258H35.9881V45.7414H23.4004ZM12.5951 23.4345L29.6942 12.9076L46.877 23.4902V26.9991H12.5951V23.4345ZM15.2685 28.7258H17.6914V45.7414H15.2685V28.7258ZM19.2788 28.7258H21.7016V45.7414H19.2788V28.7258ZM37.4084 28.7258H39.8312V45.7414H37.4084V28.7258ZM12.5115 47.4959H46.9048V49.2225H12.5115V47.4959ZM49.6618 52.7036H9.72663V50.977H49.6618V52.7036Z" fill="#93989f"/>
<path d="M30.3627 19.8141H29.1095C28.5246 19.8141 28.079 19.3407 28.079 18.7837C28.079 18.2268 28.5525 17.7533 29.1095 17.7533H30.9475C31.1703 17.7533 31.3652 17.9483 31.3652 18.1711C31.3374 18.5888 31.6715 18.923 32.0614 18.9508C32.4792 18.9787 32.8133 18.6445 32.8412 18.2546C32.869 17.7533 32.6741 17.252 32.3121 16.8622C31.95 16.5001 31.4766 16.2773 30.9475 16.2773H30.5297V15.8318C30.5297 15.414 30.1956 15.0798 29.7778 15.0798C29.3601 15.0798 29.0259 15.414 29.0259 15.8318V16.2773C27.6613 16.3052 26.5752 17.447 26.6031 18.8116C26.6309 20.1762 27.7449 21.2901 29.1095 21.2901H30.3627C30.9475 21.2901 31.3931 21.7636 31.3931 22.3205V22.4041C31.3931 22.9889 30.9196 23.4345 30.3627 23.4345H28.4968C28.274 23.4345 28.079 23.2395 28.079 23.0167V22.9332C28.079 22.7383 27.9955 22.5433 27.8841 22.4041C27.7449 22.2648 27.5499 22.1813 27.355 22.1813C27.16 22.1813 26.9651 22.2648 26.8259 22.3762C26.6866 22.5155 26.6031 22.7104 26.6031 22.9054V22.9889C26.6031 23.4902 26.798 23.9915 27.1322 24.3535C27.4942 24.7155 27.9677 24.9105 28.4689 24.9105H28.9981V25.356C28.9981 25.7738 29.3322 26.108 29.75 26.108C30.1677 26.108 30.5019 25.7738 30.5019 25.356V24.9105C31.8386 24.8269 32.869 23.7408 32.869 22.4041V22.3205C32.869 20.9559 31.7551 19.8141 30.3627 19.8141Z" fill="#93989f"/>
</svg>
