<svg width="60" height="58" viewBox="0 0 60 58" fill="none" xmlns="http://www.w3.org/2000/svg">
<path d="M50.11 46.8491H43.6491V23.6232C46.8795 21.8966 48.6897 19.7522 48.6897 17.3572C48.6897 12.1216 39.8616 8 28.555 8C17.2762 8 8.42029 12.0938 8.42029 17.3572C8.42029 19.7244 10.2305 21.8966 13.4609 23.6232V46.8491H7V48.2972H14.0458C18.5851 50.4416 23.5422 51.5277 28.555 51.472C33.5956 51.472 38.5527 50.3859 43.1478 48.2972H50.11V46.8491ZM9.86843 17.3572C9.86843 13.0406 18.418 9.44814 28.555 9.44814C38.692 9.44814 47.2415 13.0406 47.2415 17.3572C47.2415 19.0003 45.9605 20.5877 43.6491 21.9523V18.0813H41.9224L40.0566 19.9472V15.9091H38.2464L36.4362 18.137V13.0406H34.7096L32.8437 14.9065V10.8963H31.1171L28.5271 13.4862L25.9372 10.8963H24.2106V14.9344L22.3447 13.0685H20.6459V18.1648L18.8357 15.9369H17.0256V19.975L15.1597 18.1091H13.4331V21.9801C11.1495 20.5877 9.86843 19.0281 9.86843 17.3572ZM38.6084 23.4004V48.4086C37.8843 48.6314 37.1603 48.8264 36.4641 48.9935V39.6363H20.6459V49.0492C19.8662 48.8264 19.1421 48.6871 18.5016 48.4644V17.8028L20.6459 20.4484V38.216H22.0941V14.7951L24.2384 16.9395V38.216H25.6866V12.6229L27.8309 14.7673V38.1881H29.2791V14.7673L31.4234 12.6229V38.216H32.8716V16.9395L35.0159 14.7951V38.216H36.4641V20.532L38.6084 17.8863V23.4004ZM14.9091 19.8079L17.0534 21.9523V47.9631C16.0509 47.601 15.3268 47.239 14.9091 47.0162V19.8079ZM22.0941 49.4112V41.0844H35.0438V49.3555C30.7829 50.2188 26.3271 50.2188 22.0941 49.4112ZM42.2009 47.1276C41.4768 47.4061 40.7528 47.7124 40.0566 47.9909V21.9801L42.2009 19.8357V47.1276Z" fill="#93989f"/>
</svg>
