<svg width="60" height="58" viewBox="0 0 60 58" fill="none" xmlns="http://www.w3.org/2000/svg">
<path d="M6.47146 40.7831C6.47146 41.1452 6.49931 41.4794 6.55501 41.8414C6.55501 41.8971 6.58285 41.9528 6.58285 42.0085C6.63855 42.3427 6.69424 42.6769 6.80563 43.0111V43.0389C7.00058 43.7351 7.30692 44.4035 7.66896 45.044C7.69681 45.0719 7.72465 45.1276 7.7525 45.1554C7.91959 45.4339 8.08669 45.6845 8.28164 45.9352C8.30948 45.963 8.33733 45.9909 8.36518 46.0466C8.58797 46.3251 8.81076 46.5757 9.0614 46.8263C9.08925 46.8542 9.14494 46.9099 9.17278 46.9377C9.36773 47.1327 9.59053 47.3276 9.81332 47.4947C9.89687 47.5504 9.9804 47.6061 10.064 47.6618C10.2589 47.8011 10.4538 47.9403 10.6766 48.0517L10.7045 48.0795C10.7323 48.1074 10.7602 48.1074 10.788 48.1352C10.8159 48.1631 10.8716 48.1909 10.8994 48.2188H10.9273C11.2615 48.3859 11.5956 48.553 11.9298 48.6922C11.9577 48.6922 11.9855 48.7201 12.0134 48.7201C12.2919 48.8315 12.5703 48.915 12.8488 48.9986C12.9045 49.0264 12.9881 49.0264 13.0438 49.0543C13.2944 49.11 13.5729 49.1656 13.8235 49.1935C13.9071 49.1935 13.9628 49.2213 14.0463 49.2213C14.3805 49.2492 14.7147 49.277 15.0489 49.277C15.3831 49.277 15.7451 49.2492 16.0793 49.2213C16.1072 49.2213 16.135 49.2213 16.1628 49.2213C16.497 49.1656 16.8312 49.11 17.1376 49.0264H17.1654C19.9503 48.3302 22.1782 46.2694 23.1529 43.5959C23.1529 43.5959 23.1529 43.5959 23.1529 43.568C23.1529 43.5402 23.1529 43.5402 23.1808 43.5123C23.2643 43.3174 23.32 43.1225 23.3757 42.8997C23.4035 42.844 23.4035 42.7883 23.4314 42.7326C23.4871 42.5655 23.5149 42.3705 23.5428 42.1756C23.5706 42.0642 23.5706 41.9528 23.5985 41.8414C23.6263 41.7022 23.6542 41.5629 23.6542 41.4237C23.682 41.1452 23.682 40.8946 23.682 40.6161C23.682 40.3376 23.6542 40.0591 23.6263 39.7806C23.5985 39.6135 23.5706 39.4743 23.5706 39.335C23.5428 39.2236 23.5428 39.0844 23.5149 38.973C23.4871 38.778 23.4314 38.5552 23.3757 38.3603C23.3478 38.3046 23.3478 38.2489 23.32 38.1654C23.2643 37.9426 23.1807 37.7476 23.0972 37.5248C23.0693 37.497 23.0694 37.4413 23.0694 37.4134C22.206 35.2412 20.5073 33.5146 18.3351 32.6234C18.3072 32.6234 18.2515 32.5956 18.2237 32.5956C17.973 32.4842 17.6945 32.4007 17.4439 32.3171C17.3882 32.2893 17.3325 32.2893 17.2768 32.2614C17.0262 32.1779 16.7477 32.1222 16.4692 32.0943C16.4413 32.0943 16.3856 32.0943 16.3578 32.0665C16.0515 32.0108 15.7451 31.9829 15.4388 31.9829H15.4109C15.2995 31.9829 15.1881 31.9551 15.0767 31.9551C13.7957 31.9551 12.5982 32.2336 11.5121 32.7348C11.2336 32.8741 10.9551 33.0133 10.6766 33.1804C10.6488 33.1804 10.6488 33.2083 10.6209 33.2083C10.6209 33.2083 10.6209 33.2083 10.5931 33.2361C8.11454 34.7678 6.4436 37.497 6.4436 40.5882C6.47145 40.6996 6.47146 40.7275 6.47146 40.7831C6.47146 40.7553 6.47146 40.7553 6.47146 40.7831C6.47146 40.7553 6.47146 40.7831 6.47146 40.7831ZM12.0134 34.1551C12.1805 34.0716 12.3476 34.0159 12.5146 33.9323C12.5425 33.9323 12.5703 33.9045 12.5703 33.9045C13.2666 33.626 14.0185 33.4868 14.7704 33.4589C14.8261 33.4589 14.9097 33.4589 14.9654 33.4589C15.1046 33.4589 15.216 33.4589 15.3552 33.4589C15.4666 33.4589 15.578 33.4589 15.6894 33.4868C15.8008 33.4868 15.9122 33.5146 16.0236 33.5146C16.135 33.5425 16.2464 33.5425 16.3856 33.5703C16.497 33.5982 16.5806 33.5982 16.692 33.626C16.7198 33.626 16.7477 33.6539 16.7755 33.6539L14.8261 35.6033H12.6817L11.9577 34.183C11.9577 34.183 11.9855 34.183 12.0134 34.1551ZM20.7579 41.7579L22.206 39.4743C22.206 39.5578 22.2339 39.6414 22.2339 39.6971C22.2339 39.7806 22.2617 39.8641 22.2617 39.9755C22.2896 40.1983 22.2896 40.4211 22.2896 40.6439C22.2896 40.9781 22.2617 41.2844 22.206 41.6186C22.206 41.6743 22.1782 41.73 22.1782 41.7857C22.1225 42.0921 22.0668 42.4262 21.9554 42.7326L19.644 43.206L20.6744 41.8414L20.7579 41.7579ZM16.4135 47.7175C16.1071 47.7732 15.8287 47.801 15.5502 47.8289C15.4666 47.8289 15.3831 47.8289 15.2995 47.8289C15.0767 47.8289 14.854 47.8289 14.6312 47.8289C14.5476 47.8289 14.4641 47.8289 14.3805 47.8289C14.102 47.801 13.8235 47.7454 13.5451 47.6897C13.4894 47.6897 13.4615 47.6618 13.4058 47.6618C13.1552 47.6061 12.8767 47.5226 12.626 47.439C12.5982 47.439 12.5982 47.439 12.5703 47.4112L14.659 45.6567L16.9705 45.1833L16.4135 47.7175ZM17.5831 43.5959L14.9654 44.125L14.6033 42.287L14.4919 41.6743L16.6084 40.0869L19.1148 41.5908L17.5831 43.5959ZM13.6565 40.4768L11.6792 39.0008L12.6539 37.0514H14.6312L15.6059 39.0008L13.6565 40.4768ZM10.6766 40.0312L13.0159 41.7857L13.6008 44.682L11.2058 46.6871C11.1779 46.6871 11.1779 46.6593 11.1501 46.6593C10.7045 46.3808 10.3146 46.0466 9.95257 45.6567C9.92472 45.6288 9.89686 45.5732 9.84116 45.5453C9.70192 45.3782 9.56267 45.2111 9.42343 45.044C9.39558 45.0162 9.36774 44.9605 9.33989 44.9326C9.20064 44.7655 9.08924 44.5706 8.95 44.3757C8.92215 44.3478 8.92215 44.32 8.8943 44.2921C8.36517 43.3731 8.00313 42.3148 7.91959 41.2287V41.2009L10.6766 40.0312ZM18.0287 47.2162L18.5857 44.8491L21.287 44.32C20.5073 45.601 19.3933 46.6036 18.0287 47.2162ZM21.6491 37.6641L19.9224 40.3933L17.1097 38.6945L15.9957 36.4666L18.2794 34.183C19.7553 34.9349 20.9529 36.1603 21.6491 37.6641ZM10.7323 34.9627L11.4285 36.3552L10.2589 38.6666L7.97529 39.6414C8.25378 37.7198 9.28419 36.0767 10.7323 34.9627Z" fill="#93989f"/>
<path d="M7.8363 22.9321L25.5482 35.0463C25.4925 35.1856 25.4646 35.297 25.4089 35.4362V35.4641C25.3254 35.6868 25.2697 35.9375 25.2418 36.1603C25.2418 36.1881 25.2418 36.216 25.214 36.2438C25.1861 36.4945 25.1583 36.7451 25.1583 37.0236C25.1583 38.3325 25.6595 39.6135 26.5786 40.7553C26.5507 40.7832 26.5229 40.811 26.495 40.8389C26.495 40.8667 26.4672 40.8667 26.4393 40.8946C25.6317 41.7857 25.1583 42.9554 25.1583 44.2364C25.1583 45.5175 25.6317 46.6593 26.4115 47.5504C26.4115 47.5504 26.4115 47.5504 26.4115 47.5783C26.4393 47.6061 26.4393 47.6061 26.4672 47.634C26.5507 47.7175 26.6621 47.8289 26.7457 47.9125C26.7735 47.9403 26.8014 47.9682 26.8292 47.996C26.9406 48.0796 27.0241 48.1631 27.1355 48.2467C27.1634 48.2745 27.1912 48.3024 27.2191 48.3024C27.3305 48.3859 27.4419 48.4694 27.5811 48.5251C27.609 48.553 27.6368 48.553 27.6647 48.5808C27.8039 48.6644 27.9432 48.7201 28.0546 48.7758C28.0824 48.7758 28.0824 48.8036 28.1102 48.8036C28.2495 48.8593 28.4166 48.915 28.5558 48.9707H28.5837C28.7508 49.0264 28.89 49.0543 29.0571 49.11H29.0849C29.252 49.1378 29.3913 49.1657 29.5584 49.1935C29.5862 49.1935 29.5862 49.1935 29.6141 49.1935C29.7812 49.2214 29.9761 49.2214 30.1432 49.2214C31.0344 49.2214 31.8698 48.9707 32.6218 48.553C32.761 48.4695 32.9002 48.3859 33.0395 48.2745C33.0673 48.2745 33.0673 48.2467 33.0952 48.2467C33.2066 48.1631 33.318 48.0796 33.4294 47.9682C33.4572 47.9403 33.4851 47.9125 33.5129 47.9125C33.6243 47.8289 33.7079 47.7175 33.7914 47.634L33.8192 47.6061C33.8192 47.6061 33.8192 47.6061 33.8192 47.5783C34.5155 46.7985 34.9889 45.8238 35.1003 44.7377C35.8522 44.8213 36.6041 44.9048 37.3282 44.9048C38.1915 44.9048 39.0548 44.8491 39.8624 44.7377L43.1208 46.7707C43.3157 48.1631 44.5132 49.2214 45.9613 49.2214C47.5487 49.2214 48.8298 47.9403 48.8298 46.3529C48.8298 44.7656 47.5487 43.4845 45.9613 43.4845H45.4601L44.9866 43.1503C45.6829 42.7883 46.3234 42.3706 46.8804 41.925C46.9082 41.8971 46.9361 41.8971 46.9918 41.8693C47.9108 41.1174 48.5791 40.2541 48.9969 39.3629V39.335C49.1082 39.1122 49.1918 38.8895 49.2753 38.6667C49.3032 38.611 49.3032 38.5831 49.331 38.5274C49.3867 38.3325 49.4424 38.1375 49.4703 37.9148C49.4703 37.8591 49.4981 37.8034 49.4981 37.7477C49.526 37.497 49.5538 37.2464 49.5538 36.9957C49.5538 36.7451 49.526 36.4945 49.4981 36.2438C49.4981 36.1881 49.4703 36.1324 49.4703 36.0767C49.4424 35.8818 49.3867 35.6868 49.331 35.4641C49.331 35.4084 49.3032 35.3805 49.2753 35.3248C49.1918 35.102 49.1082 34.8792 48.9969 34.6564V34.6286C48.5791 33.7374 47.9108 32.902 46.9918 32.1222C46.9639 32.0944 46.936 32.0943 46.9082 32.0665C45.5993 30.9804 43.8448 30.1449 41.8676 29.6158C41.9233 29.588 41.9511 29.588 42.0068 29.5601C42.0625 29.5323 42.1182 29.5044 42.1739 29.5044C43.9562 28.7525 45.5158 27.555 46.7689 26.0512C47.0196 25.7448 47.2424 25.4385 47.4652 25.1043C47.4652 25.1043 47.4652 25.0764 47.493 25.0486C48.8019 23.0992 49.5538 20.7599 49.5538 18.2535C49.5538 17.9471 49.526 17.6408 49.4981 17.3066C49.4703 17.0838 49.4703 16.861 49.4146 16.6383V16.6104C48.8019 12.0153 45.6272 8.22791 41.3663 6.72407C41.3663 6.72407 41.3663 6.72407 41.3384 6.72407C41.3106 6.72407 41.3106 6.72407 41.2827 6.69622C41.0043 6.61267 40.7258 6.52913 40.4473 6.44558C40.3637 6.41773 40.2802 6.38988 40.1966 6.38988C39.946 6.33418 39.6954 6.27849 39.4447 6.2228C39.2776 6.19495 39.1105 6.16709 38.9434 6.13924C38.7485 6.1114 38.5814 6.08355 38.3865 6.0557C38.0244 6.02785 37.6345 6 37.2725 6C36.9105 6 36.5484 6.02785 36.1864 6.0557C36.075 6.0557 35.9358 6.08355 35.8244 6.08355C35.5737 6.1114 35.3509 6.13925 35.1003 6.19495C34.9611 6.22279 34.8218 6.25064 34.7104 6.27849C34.4041 6.33419 34.0977 6.41774 33.7914 6.50128C33.5965 6.55698 33.4294 6.61267 33.2623 6.69622C33.123 6.75192 32.9838 6.80762 32.8445 6.83546C32.6496 6.91901 32.4547 7.00256 32.2597 7.0861C32.1483 7.1418 32.0648 7.1975 31.9534 7.22535C31.5914 7.39244 31.2293 7.61523 30.8673 7.81017C30.7837 7.86587 30.728 7.89372 30.6445 7.94942C30.4774 8.06081 30.2825 8.20006 30.1154 8.31146C30.004 8.395 29.9204 8.4507 29.809 8.53424C29.6419 8.67349 29.4748 8.78488 29.3356 8.92413C29.2242 9.00767 29.1407 9.09122 29.0293 9.20261C28.7786 9.42541 28.528 9.67605 28.3052 9.92669C28.1938 10.0381 28.1103 10.1495 27.9989 10.2609C27.8875 10.4001 27.7482 10.5672 27.6368 10.7064C27.5533 10.8178 27.4697 10.9292 27.3583 11.0685C27.2469 11.2356 27.1355 11.3748 27.0241 11.5419C26.9684 11.6533 26.9127 11.7369 26.8292 11.8483C26.6064 12.1824 26.4115 12.5445 26.2444 12.9065C26.2165 12.9901 26.1608 13.0458 26.133 13.1293C26.133 13.1293 26.133 13.1293 26.133 13.1572C25.4368 14.6888 25.019 16.4155 25.019 18.2256C25.019 18.5041 25.0469 18.7826 25.0469 19.0611C25.0469 19.0611 25.0469 19.0611 25.0469 19.0889C25.0747 19.4788 25.1304 19.8409 25.1861 20.2308C25.1861 20.2586 25.1861 20.2586 25.1861 20.2865C25.2418 20.6485 25.3254 21.0105 25.4089 21.3726C25.4089 21.4004 25.4089 21.4282 25.4368 21.4561C25.5203 21.8181 25.6317 22.1523 25.7709 22.4865C25.7709 22.5144 25.7988 22.5422 25.7988 22.57C25.9102 22.9042 26.0773 23.2384 26.2165 23.5448C26.2165 23.5726 26.2444 23.6005 26.2444 23.6283C26.4115 23.9346 26.5786 24.241 26.7457 24.5473C26.7457 24.5752 26.7735 24.603 26.7735 24.603C26.8849 24.798 26.9963 24.9929 27.1355 25.1878C27.1355 25.1878 27.1355 25.2157 27.1634 25.2157C27.3305 25.4663 27.5254 25.717 27.7204 25.9676C27.7761 26.0233 27.8318 26.079 27.8596 26.1347C28.0824 26.3853 28.3052 26.636 28.528 26.8866L28.5558 26.9145C28.8065 27.1651 29.0571 27.3879 29.3356 27.6107C29.3913 27.6664 29.447 27.7221 29.5305 27.7499C29.7812 27.9727 30.0597 28.1677 30.3381 28.3626C30.3938 28.3905 30.4496 28.4462 30.5052 28.474C30.728 28.6411 30.9787 28.7803 31.2293 28.9196C31.3129 28.9753 31.3964 29.0031 31.48 29.0588C31.7584 29.1981 32.0369 29.3373 32.3154 29.4766C32.4268 29.5323 32.5104 29.5601 32.6218 29.6158C32.6496 29.6158 32.6496 29.6436 32.6775 29.6436C31.48 29.95 30.366 30.3677 29.3913 30.8968L12.0136 16.9446C11.206 16.3041 10.2035 16.0256 9.2009 16.1648C8.17049 16.3041 7.27933 16.8332 6.69451 17.6687C6.10968 18.4763 5.88689 19.4788 6.05399 20.4535C6.47172 21.5118 7.02868 22.3751 7.8363 22.9321ZM32.2319 47.1884C32.1762 47.2441 32.0926 47.272 32.0091 47.3276C31.8977 47.3833 31.8141 47.4391 31.7027 47.4948C31.5913 47.5504 31.48 47.6061 31.3407 47.634C31.285 47.6618 31.2293 47.6618 31.1736 47.6897C30.4774 47.8846 29.7533 47.8846 29.0571 47.6618C29.0293 47.6618 29.0014 47.6618 29.0014 47.634C28.8622 47.5783 28.7229 47.5226 28.5837 47.4669C28.5001 47.439 28.4444 47.3834 28.3609 47.3555C28.2773 47.2998 28.1659 47.2441 28.0824 47.1884C28.0545 47.1884 28.0545 47.1606 28.0267 47.1327C29.252 46.2415 31.0344 46.2694 32.2319 47.1606C32.2597 47.1884 32.2597 47.1884 32.2319 47.1884ZM30.1432 45.0162C29.0293 45.0162 27.971 45.3782 27.1077 46.0466C26.8014 45.5175 26.6064 44.9048 26.6064 44.2643C26.6064 43.5959 26.8014 42.9832 27.1077 42.4541C27.971 43.1225 29.0571 43.5124 30.1711 43.5124C31.285 43.5124 32.3711 43.1225 33.2344 42.4541C33.2623 42.482 33.2623 42.5098 33.2901 42.5377C33.318 42.6212 33.3737 42.6769 33.4015 42.7605C33.4572 42.8997 33.5129 43.0389 33.5408 43.1503C33.5686 43.2339 33.5965 43.3174 33.6243 43.401C33.6522 43.5402 33.68 43.6795 33.7079 43.8465C33.7357 43.9858 33.7357 44.125 33.7357 44.2643C33.7357 44.9327 33.5408 45.5453 33.2066 46.1023C32.3711 45.4061 31.285 45.0162 30.1432 45.0162ZM28.1102 41.368C28.2495 41.2566 28.4166 41.1731 28.5558 41.0895C28.5837 41.0895 28.5837 41.0617 28.6115 41.0617C28.7229 41.006 28.8343 40.9503 28.9457 40.9224C29.0014 40.8946 29.0571 40.8946 29.1128 40.8667C29.809 40.6718 30.5609 40.6718 31.2572 40.8667C31.285 40.8667 31.285 40.8667 31.3129 40.8667C31.4521 40.9224 31.5913 40.9781 31.7306 41.0338C31.7863 41.0617 31.8141 41.0895 31.8698 41.0895C31.8977 41.1174 31.9534 41.1174 31.9812 41.1452C32.0648 41.2009 32.1483 41.2288 32.2319 41.2845C32.2597 41.3123 32.2876 41.3402 32.3154 41.3402C31.0901 42.287 29.3077 42.287 28.1102 41.368C28.1102 41.3959 28.1102 41.3959 28.1102 41.368ZM28.8065 39.4464C28.8065 39.4464 28.7786 39.4743 28.8065 39.4464C28.6672 39.5021 28.528 39.53 28.4166 39.5857C28.3887 39.5857 28.333 39.6135 28.3052 39.6135C28.2495 39.6414 28.2216 39.6414 28.1659 39.6692C28.0267 39.7249 27.8875 39.8085 27.7482 39.8642C26.9963 38.973 26.6064 37.9983 26.6064 37.0236C26.6064 36.8286 26.6343 36.6059 26.6621 36.4109C26.6621 36.3552 26.69 36.2995 26.69 36.2438C26.7178 36.1046 26.7457 35.9653 26.8014 35.8261C26.8292 35.7704 26.857 35.6868 26.857 35.6311C26.8849 35.5197 26.9406 35.4084 26.9963 35.297C27.0241 35.2413 27.052 35.1856 27.0798 35.1299L27.1077 35.102C27.2191 34.8792 27.3583 34.6564 27.5533 34.4058C27.5533 34.4058 27.5533 34.3779 27.5811 34.3779C27.6368 34.2944 27.7204 34.2109 27.8039 34.1273C27.8596 34.0438 27.9431 33.9602 28.0267 33.8767C28.0824 33.821 28.1381 33.7931 28.1659 33.7374C29.0293 34.74 29.4748 35.8539 29.4748 37.0236C29.5027 37.8591 29.252 38.6667 28.8065 39.4464ZM35.1281 43.3731C35.1003 43.2339 35.0725 43.0946 35.0446 42.9554V42.9275C35.0168 42.7883 34.9611 42.6769 34.9332 42.5655C34.9332 42.5377 34.9054 42.5098 34.9054 42.5098C34.8497 42.3984 34.8218 42.287 34.7661 42.1756C34.7661 42.1478 34.7383 42.1199 34.7383 42.0921C34.6826 41.9807 34.6269 41.8693 34.5712 41.7857C34.5712 41.7579 34.5433 41.73 34.5433 41.73C34.4876 41.6186 34.4041 41.5351 34.3484 41.4237L34.3205 41.3959C34.2091 41.2566 34.0977 41.1174 33.9864 40.9781C33.9864 40.9503 33.9585 40.9503 33.9307 40.9224C33.8471 40.811 33.7357 40.7275 33.6522 40.6439C33.6243 40.6161 33.5965 40.5882 33.5686 40.5604C33.4572 40.4768 33.3458 40.3933 33.2344 40.3097C33.2066 40.2819 33.2066 40.2819 33.1787 40.2541C33.1509 40.2541 33.1509 40.2262 33.123 40.2262C33.0395 40.1705 32.9559 40.1148 32.8724 40.0591C32.8167 40.0313 32.7889 40.0034 32.7332 39.9756C32.6496 39.9199 32.5661 39.892 32.4825 39.8363C32.4268 39.8085 32.3711 39.7806 32.3154 39.7528C32.3154 39.7528 32.2876 39.7528 32.2876 39.7249C32.2319 39.6971 32.1483 39.6692 32.0926 39.6414C32.0369 39.6135 31.9534 39.5857 31.8977 39.5578C31.8141 39.53 31.7584 39.5021 31.6749 39.4743C31.5914 39.4464 31.5078 39.4186 31.4243 39.4186C31.3686 39.3907 31.285 39.3907 31.2293 39.3629C31.1458 39.335 31.0344 39.335 30.923 39.3072C30.8673 39.3072 30.8394 39.2794 30.7837 39.2794H30.7559C30.7002 39.2794 30.6166 39.2794 30.5609 39.2794C30.8673 38.5553 31.0065 37.8034 31.0065 37.0514C31.0065 35.5476 30.4495 34.0995 29.3634 32.8463C29.4191 32.8184 29.4748 32.7627 29.5305 32.7349C29.6698 32.6235 29.8369 32.5399 29.9761 32.4564C30.004 32.4285 30.0597 32.4007 30.0875 32.3728C32.0369 31.2867 34.6269 30.5905 37.4953 30.5905C40.7536 30.5905 43.6777 31.4538 45.655 32.8463C44.5689 34.0995 43.9841 35.5476 43.9841 37.0793C43.9841 38.611 44.5689 40.0591 45.655 41.3123C45.0423 41.73 44.374 42.0921 43.5942 42.4263C43.5663 42.4263 43.5106 42.4541 43.4828 42.4541C42.4524 42.8718 41.2827 43.1782 40.0574 43.3731C39.2219 43.4845 38.3865 43.5681 37.4953 43.5681C36.6598 43.5402 35.9079 43.4845 35.1281 43.3731ZM36.2421 29.0588C36.1307 29.0588 36.0193 29.031 35.9079 29.0031C35.6294 28.9753 35.3788 28.9196 35.1281 28.8639C35.0168 28.836 34.9054 28.8082 34.794 28.7803C34.7661 28.7803 34.7383 28.7803 34.7104 28.7525C34.4598 28.6968 34.237 28.6132 34.0142 28.5297C33.9306 28.5018 33.8471 28.474 33.7357 28.4462C33.68 28.4183 33.6243 28.4183 33.5686 28.3905C33.318 28.2791 33.0673 28.1677 32.8167 28.0563H32.7889C32.7053 28.0284 32.6496 28.0006 32.5661 27.9449C32.4547 27.8892 32.3154 27.8056 32.204 27.7499C32.0369 27.6664 31.8698 27.555 31.7027 27.4714C31.5078 27.36 31.3407 27.2208 31.1736 27.1094C31.0622 27.0259 30.9508 26.9423 30.8394 26.8588C30.6445 26.7195 30.4774 26.5803 30.3103 26.4132C30.2268 26.3575 30.1432 26.2739 30.0875 26.1904C29.9204 26.0233 29.7255 25.8562 29.5584 25.6891C29.3356 25.4663 29.1406 25.2157 28.9457 24.965C28.89 24.9094 28.8622 24.8537 28.8065 24.7701C28.9179 24.5195 29.0571 24.2688 29.1964 24.0182C29.6976 23.1549 30.3382 22.0966 31.48 21.651C33.0116 21.0662 34.6269 21.9852 36.5206 23.0435C37.2725 23.4891 38.0801 23.9346 38.9156 24.2967C40.865 25.16 43.0372 25.5777 45.4322 25.5499C45.3487 25.6334 45.2651 25.717 45.2094 25.8005C45.1259 25.8841 45.0145 25.9955 44.9309 26.079C44.7638 26.2461 44.5968 26.3853 44.4297 26.5524C44.3183 26.636 44.2347 26.7195 44.1233 26.8031C43.9562 26.9423 43.7613 27.0816 43.5942 27.193C43.4828 27.2765 43.3714 27.36 43.2322 27.4157C43.0651 27.5271 42.8701 27.6385 42.703 27.7499C42.5638 27.8335 42.4245 27.8892 42.2575 27.9727C42.0904 28.0563 41.9233 28.1398 41.7562 28.2234C41.5612 28.3069 41.3941 28.3626 41.1992 28.4462C41.0599 28.5019 40.8929 28.5575 40.7536 28.6132C40.5308 28.6968 40.308 28.7525 40.0852 28.8082C39.946 28.836 39.8346 28.8917 39.6954 28.8917C39.4169 28.9474 39.1662 28.9753 38.8877 29.031C38.8042 29.031 38.6928 29.0588 38.6092 29.0867C38.2472 29.1145 37.8573 29.1424 37.4953 29.1424C37.0219 29.1424 36.632 29.1145 36.2421 29.0588ZM47.9386 35.6033C47.9664 35.7147 48.0222 35.7982 48.05 35.9096C48.0779 36.021 48.1057 36.1324 48.1335 36.216C48.1614 36.2995 48.1614 36.3552 48.1892 36.4388C48.2171 36.6337 48.2449 36.8286 48.2449 37.0236C48.2449 37.2185 48.2171 37.4135 48.1892 37.6084C48.1892 37.692 48.1614 37.7477 48.1335 37.8312C48.1057 37.9426 48.0779 38.054 48.05 38.1375C48.0222 38.2489 47.9943 38.3325 47.9386 38.4439C47.9386 38.4717 47.9108 38.4996 47.9108 38.5274C47.6044 39.2515 47.1588 39.8363 46.6576 40.3097C45.7943 39.3072 45.3208 38.1654 45.3208 36.9957C45.3208 35.8261 45.7664 34.6843 46.6576 33.6817C47.131 34.1552 47.6044 34.7678 47.9108 35.4641C47.9108 35.5755 47.9386 35.6033 47.9386 35.6033ZM43.5942 43.9022L44.9309 44.8491C45.0423 44.9327 45.2094 44.9884 45.3487 44.9884H46.0727C46.8803 44.9884 47.5209 45.6289 47.5209 46.4365C47.5209 47.2441 46.8803 47.8846 46.0727 47.8846C45.2651 47.8846 44.6246 47.2441 44.6246 46.4365C44.6246 46.1858 44.4854 45.9631 44.2904 45.8238L42.0346 44.4035C42.0625 44.4035 42.0904 44.3757 42.1182 44.3757C42.5359 44.2643 42.9537 44.125 43.3714 43.9858C43.4271 43.9301 43.5106 43.9301 43.5942 43.9022ZM46.5462 24.0739C43.9284 24.2688 41.5334 23.9068 39.4726 22.9878C38.6928 22.6536 37.9409 22.208 37.2168 21.7903C35.2117 20.6485 33.1509 19.4788 30.9508 20.3143C29.3356 20.927 28.5001 22.3473 27.9432 23.2663C27.9153 23.2941 27.9153 23.322 27.8875 23.3498C27.2748 22.1802 26.857 20.8991 26.69 19.5345C29.8369 18.0028 33.1509 17.0281 36.6041 16.6104C40.4751 16.137 44.3461 16.3876 48.1614 17.3623C48.1614 17.3902 48.1614 17.418 48.1614 17.4737C48.1892 17.7522 48.2171 18.0307 48.2171 18.337C48.2171 20.4535 47.6044 22.403 46.5462 24.0739ZM47.9108 15.8306C44.1233 14.9395 40.2802 14.7167 36.437 15.1901C33.0395 15.6078 29.7533 16.5547 26.6343 17.975C26.6621 16.7218 26.9406 15.4965 27.3583 14.3825C28.0267 14.5217 28.6951 14.6053 29.3356 14.6053C30.0597 14.6053 30.7559 14.5217 31.3964 14.3268C32.7889 13.9369 33.6522 13.2128 34.7661 12.3217C35.3509 11.8483 36.0193 11.2913 36.9105 10.6786C38.2751 9.73175 39.7232 8.92413 41.227 8.25576C44.5689 9.5368 47.0753 12.3495 47.9108 15.8306ZM28.3887 12.4331C28.4723 12.2938 28.5837 12.1546 28.6951 12.0153C28.7786 11.904 28.8343 11.8204 28.9179 11.709C29.0293 11.5698 29.1128 11.4305 29.2242 11.3191C29.3077 11.2077 29.3913 11.1242 29.5027 11.0128C29.6976 10.8178 29.8926 10.5951 30.0875 10.428C30.1711 10.3444 30.2546 10.2609 30.3381 10.2052C30.4774 10.0938 30.6166 9.98238 30.7559 9.87098C30.8394 9.81529 30.923 9.7596 30.9787 9.7039C31.2293 9.50896 31.5078 9.34186 31.7863 9.14692C31.8698 9.09122 31.9534 9.03553 32.0369 9.00768C32.204 8.92413 32.3711 8.81274 32.5104 8.72919C32.5939 8.67349 32.7053 8.64564 32.7889 8.58995C33.0395 8.47855 33.318 8.3393 33.5965 8.25576C33.7357 8.20006 33.8471 8.14436 33.9864 8.11651C34.1256 8.06081 34.2927 8.03297 34.4319 7.97727C34.6269 7.92157 34.8218 7.86587 35.0168 7.83802C35.156 7.81018 35.2674 7.78233 35.4066 7.75448C35.6573 7.69878 35.9079 7.67093 36.1864 7.64308C36.2699 7.64308 36.3813 7.61524 36.4649 7.61524C36.7712 7.58739 37.1054 7.55954 37.4396 7.55954C37.7738 7.55954 38.0801 7.58739 38.4143 7.61524C38.5814 7.64309 38.7206 7.64308 38.8877 7.67093C38.9713 7.67093 39.0827 7.69878 39.1662 7.69878C38.108 8.25576 37.1054 8.86843 36.1586 9.50895C35.2117 10.1495 34.5155 10.7065 33.9028 11.2077C32.8446 12.071 32.1483 12.628 31.0344 12.9344C30.0875 13.2128 29.1128 13.2407 28.0267 13.0458C28.1102 12.8508 28.2495 12.6559 28.3887 12.4331C28.3609 12.4609 28.3887 12.4609 28.3887 12.4331ZM8.08695 18.5598C8.44898 18.0585 9.00596 17.7244 9.61863 17.6408C9.73003 17.613 9.84142 17.613 9.92496 17.613C10.4262 17.613 10.9275 17.7801 11.3453 18.1142L28.3052 31.7602C28.1659 31.8716 28.0267 31.983 27.8875 32.0943C27.8875 32.0943 27.8875 32.0943 27.8596 32.0943L27.7761 32.15C27.7482 32.15 27.7482 32.1779 27.7204 32.1779C27.3583 32.4842 27.052 32.7906 26.7735 33.0969C26.7735 33.1248 26.7456 33.1248 26.7178 33.1526C26.5507 33.264 26.4393 33.4311 26.3558 33.626C26.3279 33.6817 26.2722 33.7374 26.2444 33.7931L8.64392 21.7624C8.14264 21.4282 7.80845 20.8991 7.69706 20.2865C7.61351 19.6738 7.75276 19.0611 8.08695 18.5598Z" fill="#93989f"/>
</svg>
