<svg width="60" height="58" viewBox="0 0 60 58" fill="none" xmlns="http://www.w3.org/2000/svg">

<path d="M47.4416 24.37L27.1955 14.233C26.8892 14.0659 26.5271 14.0659 26.193 14.233L5.94686 24.37C5.36203 24.6484 5 25.4282 5 26.2637C5 27.127 5.38988 27.8789 5.94686 28.1574L15.8332 33.1145V39.4362C15.8332 43.3629 25.5803 43.5021 26.6942 43.5021C27.8082 43.5021 37.5553 43.3907 37.5553 39.4362V33.1423L39.7275 32.0562V34.3955C39.7275 35.5095 40.368 36.4285 41.1756 36.4285H42.6238C43.4314 36.4285 44.0719 35.5095 44.0719 34.3955V31.36C44.0719 30.8866 43.9884 30.441 43.8491 30.0233L47.4695 28.2131C48.0543 27.9346 48.4163 27.1548 48.4163 26.3194C48.3885 25.4282 48.0264 24.6763 47.4416 24.37ZM36.1071 37.2361C33.3501 35.4816 27.5297 35.3981 26.6942 35.3981C25.8588 35.3981 20.0384 35.4538 17.2813 37.2361V28.408C17.7269 27.6283 21.1245 26.2915 26.6942 26.2915C32.264 26.2915 35.6616 27.6283 36.1071 28.408V37.2361ZM26.6942 41.497C21.3473 41.497 17.9776 40.2716 17.337 39.464C17.9776 38.6843 21.3194 37.4311 26.6942 37.4311C32.0691 37.4311 35.4109 38.6564 36.0514 39.464C35.4109 40.2438 32.0412 41.497 26.6942 41.497ZM40.0617 29.7448L37.5553 30.998V28.3245C37.5553 24.3978 27.8082 24.2586 26.6942 24.2586C25.5803 24.2586 15.8332 24.37 15.8332 28.3245V30.998L6.42029 26.2915L26.6942 16.1546L41.1478 23.3952V28.4916C40.7022 28.7144 40.3123 29.16 40.0617 29.7448ZM42.6238 34.3955H41.1756V31.36C41.1756 30.803 41.5098 30.3575 41.8997 30.3575C42.2896 30.3575 42.6238 30.803 42.6238 31.36V34.3955ZM42.6238 28.4637V24.1193L46.9682 26.2915L42.6238 28.4637Z" fill="#93989f"/>
</svg>
