<svg width="60" height="58" viewBox="0 0 60 58" fill="none" xmlns="http://www.w3.org/2000/svg">

<path d="M38.7626 26.2194H37.3145V27.6675H38.7626V26.2194Z" fill="#7a7c7f"/>
<path d="M38.7626 23.323H37.3145V24.7711H38.7626V23.323Z" fill="#7a7c7f"/>
<path d="M38.7626 29.1156H37.3145V30.5637H38.7626V29.1156Z" fill="#7a7c7f"/>
<path d="M38.7626 32.0118H37.3145V33.46H38.7626V32.0118Z" fill="#7a7c7f"/>
<path d="M38.7626 34.9081H37.3145V36.3562H38.7626V34.9081Z" fill="#7a7c7f"/>
<path d="M38.7626 37.8044H37.3145V39.2526H38.7626V37.8044Z" fill="#7a7c7f"/>
<path d="M38.7626 40.7007H37.3145V42.1488H38.7626V40.7007Z" fill="#7a7c7f"/>
<path d="M35.17 24.0471H16.3442V25.4953H35.17V24.0471Z" fill="#7a7c7f"/>
<path d="M35.17 39.9766H16.3442V41.4247H35.17V39.9766Z" fill="#7a7c7f"/>
<path d="M50.3477 24.0471H40.9348V25.4953H50.3477V24.0471Z" fill="#7a7c7f"/>
<path d="M50.3477 39.9766H40.9348V41.4247H50.3477V39.9766Z" fill="#7a7c7f"/>
<path d="M54.6922 20.4268H12.7241C12.3342 20.4268 12 20.7609 12 21.1508V26.9434C12 27.3333 12.3342 27.6675 12.7241 27.6675C15.509 27.6675 17.7926 29.9232 17.7926 32.7359C17.7926 35.5487 15.5368 37.8044 12.7241 37.8044C12.3342 37.8044 12 38.1386 12 38.5285V44.321C12 44.7109 12.3342 45.0451 12.7241 45.0451H54.6922C55.0821 45.0451 55.4163 44.7109 55.4163 44.321V38.5285C55.4163 38.1386 55.0821 37.8044 54.6922 37.8044C51.9074 37.8044 49.6238 35.5487 49.6238 32.7359C49.6238 29.9232 51.8795 27.6675 54.6922 27.6675C55.0821 27.6675 55.4163 27.3333 55.4163 26.9434V21.1508C55.4163 20.7609 55.0821 20.4268 54.6922 20.4268ZM53.9682 26.2472C50.4035 26.637 47.8136 29.8675 48.2313 33.4322C48.5655 36.4677 50.9605 38.8348 53.9682 39.169V43.5413H13.4481V39.169C17.0128 38.7791 19.6027 35.5487 19.185 31.984C18.8508 28.9485 16.4558 26.5813 13.4481 26.2472V21.8749H53.9682V26.2472Z" fill="#7a7c7f"/>
</svg>
