<svg width="60" height="58" viewBox="0 0 60 58" fill="none" xmlns="http://www.w3.org/2000/svg">

<path d="M28.208 31.4992H26.2585V29.4106C26.2585 29.0207 25.98 28.7144 25.618 28.7144H23.0281C22.666 28.7144 22.3875 29.0207 22.3875 29.4106V31.4992H20.4381C20.0761 31.4992 19.7976 31.8056 19.7976 32.1955V35.0082C19.7976 35.3981 20.0761 35.7044 20.4381 35.7044H22.3875V37.7931C22.3875 38.183 22.666 38.4893 23.0281 38.4893H25.618C25.98 38.4893 26.2585 38.183 26.2585 37.7931V35.7044H28.208C28.57 35.7044 28.8485 35.3981 28.8485 35.0082V32.1955C28.8485 31.8056 28.57 31.4992 28.208 31.4992ZM27.5674 34.2841H25.618C25.256 34.2841 24.9775 34.5905 24.9775 34.9803V37.069H23.6686V34.9803C23.6686 34.5905 23.3901 34.2841 23.0281 34.2841H21.0787V32.8917H23.0281C23.3901 32.8917 23.6686 32.5853 23.6686 32.1955V30.1068H24.9775V32.1955C24.9775 32.5853 25.256 32.8917 25.618 32.8917H27.5674V34.2841Z" fill="#93989f"/>
<path d="M49.5681 37.0968H36.6184V25.2054C36.6184 25.0383 36.5627 24.8712 36.4513 24.7598L32.7474 20.0255V17.4913H33.3879C33.7499 17.4913 34.0284 17.1849 34.0284 16.7951V11.1974C34.0284 10.8076 33.7499 10.5012 33.3879 10.5012H15.2583C14.8963 10.5012 14.6178 10.8076 14.6178 11.1974V16.7951C14.6178 17.1849 14.8963 17.4913 15.2583 17.4913H15.8988V20.0255L12.1671 24.732C12.0557 24.8712 12 25.0105 12 25.1776V43.3907C12 45.3122 13.4481 46.8996 15.2305 46.8996H27.5396V51.1048C27.5396 52.6643 28.7093 53.9175 30.1296 53.9175H49.5681C50.9884 53.9175 52.158 52.6643 52.158 51.1048V39.9096C52.158 38.35 51.0162 37.0968 49.5681 37.0968ZM15.8988 11.8937H32.7474V16.0988H15.8988V11.8937ZM31.4385 17.4913V19.5799H17.2077V17.4913H31.4385ZM16.8457 21.0002H31.8005L34.5854 24.5092H14.0608L16.8457 21.0002ZM15.2583 45.5072C14.1722 45.5072 13.3089 44.5603 13.3089 43.4185V42.7223H27.5675V45.535H15.2583V45.5072ZM27.5675 39.9096V41.302H13.3089V25.9016H35.3373V37.0968H30.1574C28.7093 37.0968 27.5675 38.35 27.5675 39.9096ZM50.877 51.1048C50.877 51.8846 50.2921 52.4972 49.5681 52.4972H30.1574C29.4334 52.4972 28.8485 51.8567 28.8485 51.1048V39.9096C28.8485 39.1298 29.4334 38.5171 30.1574 38.5171H49.5959C50.32 38.5171 50.9048 39.1577 50.9048 39.9096V51.1048H50.877Z" fill="#93989f"/>
<path d="M32.079 39.9095C31.2992 39.9095 30.5751 40.4108 30.2966 41.2184C29.9903 41.9982 30.1574 42.9172 30.7144 43.502C31.2713 44.1147 32.1068 44.2818 32.8309 43.9476C33.555 43.6134 34.0284 42.8615 34.0284 41.9982C34.0284 40.8286 33.1651 39.9095 32.079 39.9095ZM32.079 42.6944C31.8283 42.6944 31.5777 42.5273 31.4941 42.2488C31.3827 41.9982 31.4384 41.6919 31.6334 41.4969C31.8283 41.302 32.1068 41.2463 32.3296 41.3577C32.5802 41.4691 32.7195 41.7197 32.7195 41.9982C32.7473 42.3881 32.441 42.6944 32.079 42.6944Z" fill="#93989f"/>
<path d="M37.2589 39.9095C36.4791 39.9095 35.7551 40.4108 35.4766 41.2184C35.1702 41.9982 35.3373 42.9172 35.8943 43.502C36.4513 44.1147 37.2867 44.2818 38.0108 43.9476C38.7349 43.6134 39.2083 42.8615 39.2083 41.9982C39.2083 40.8286 38.345 39.9095 37.2589 39.9095ZM37.2589 42.6944C37.0083 42.6944 36.7576 42.5273 36.6741 42.2488C36.5627 41.9982 36.6184 41.6919 36.8133 41.4969C37.0083 41.302 37.2867 41.2463 37.5095 41.3577C37.7602 41.4691 37.8994 41.7197 37.8994 41.9982C37.9273 42.3881 37.6209 42.6944 37.2589 42.6944Z" fill="#93989f"/>
<path d="M42.4667 39.9095C41.6869 39.9095 40.9628 40.4108 40.6843 41.2184C40.378 41.9982 40.5451 42.9172 41.1021 43.502C41.659 44.1147 42.4945 44.2818 43.2186 43.9476C43.9426 43.6134 44.4161 42.8615 44.4161 41.9982C44.3882 40.8286 43.5249 39.9095 42.4667 39.9095ZM42.4667 42.6944C42.216 42.6944 41.9654 42.5273 41.8818 42.2488C41.7704 41.9982 41.8261 41.6919 42.0211 41.4969C42.216 41.302 42.4945 41.2463 42.7173 41.3577C42.9679 41.4691 43.1072 41.7197 43.1072 41.9982C43.1072 42.3881 42.8008 42.6944 42.4667 42.6944Z" fill="#93989f"/>
<path d="M47.6463 39.9095C46.8666 39.9095 46.1425 40.4108 45.864 41.2184C45.5577 41.9982 45.7248 42.9172 46.2818 43.502C46.8387 44.1147 47.6742 44.2818 48.3983 43.9476C49.1223 43.6134 49.5958 42.8615 49.5958 41.9982C49.5679 40.8286 48.7046 39.9095 47.6463 39.9095ZM47.6463 42.6944C47.3957 42.6944 47.1451 42.5273 47.0615 42.2488C46.9501 41.9982 47.0058 41.6919 47.2008 41.4969C47.3957 41.302 47.6742 41.2463 47.897 41.3577C48.1476 41.4691 48.2869 41.7197 48.2869 41.9982C48.2869 42.3881 47.9805 42.6944 47.6463 42.6944Z" fill="#93989f"/>
<path d="M32.079 46.8997C31.2992 46.8997 30.5751 47.4009 30.2966 48.2086C29.9903 48.9883 30.1574 49.9073 30.7144 50.4922C31.2713 51.1048 32.1068 51.2719 32.8309 50.9377C33.555 50.6036 34.0284 49.8516 34.0284 48.9883C34.0284 47.8465 33.1651 46.8997 32.079 46.8997ZM32.079 49.7124C31.8283 49.7124 31.5777 49.5453 31.4941 49.2668C31.3827 49.0162 31.4384 48.7098 31.6334 48.5149C31.8283 48.3199 32.1068 48.2643 32.3296 48.3756C32.5524 48.487 32.7195 48.7377 32.7195 49.0162C32.7473 49.3782 32.441 49.7124 32.079 49.7124Z" fill="#93989f"/>
<path d="M37.2589 46.8997C36.4791 46.8997 35.7551 47.4009 35.4766 48.2086C35.1702 48.9883 35.3373 49.9073 35.8943 50.4922C36.4513 51.1048 37.2867 51.2719 38.0108 50.9377C38.7349 50.6036 39.2083 49.8516 39.2083 48.9883C39.2083 47.8465 38.345 46.8997 37.2589 46.8997ZM37.2589 49.7124C37.0083 49.7124 36.7576 49.5453 36.6741 49.2668C36.5627 49.0162 36.6184 48.7098 36.8133 48.5149C37.0083 48.3199 37.2867 48.2643 37.5095 48.3756C37.7323 48.487 37.8994 48.7377 37.8994 49.0162C37.9273 49.3782 37.6209 49.7124 37.2589 49.7124Z" fill="#93989f"/>
<path d="M42.4667 46.8997C41.6869 46.8997 40.9628 47.4009 40.6843 48.2086C40.378 48.9883 40.5451 49.9073 41.1021 50.4922C41.659 51.1048 42.4945 51.2719 43.2186 50.9377C43.9426 50.6036 44.4161 49.8516 44.4161 48.9883C44.3882 47.8465 43.5249 46.8997 42.4667 46.8997ZM42.4667 49.7124C42.216 49.7124 41.9654 49.5453 41.8818 49.2668C41.7704 49.0162 41.8261 48.7098 42.0211 48.5149C42.216 48.3199 42.4945 48.2643 42.7173 48.3756C42.9679 48.487 43.1072 48.7377 43.1072 49.0162C43.1072 49.3782 42.8008 49.7124 42.4667 49.7124Z" fill="#93989f"/>
<path d="M47.6463 46.8997C46.8666 46.8997 46.1425 47.4009 45.864 48.2086C45.5577 48.9883 45.7248 49.9073 46.2818 50.4922C46.8387 51.1048 47.6742 51.2719 48.3983 50.9377C49.1223 50.6036 49.5958 49.8516 49.5958 48.9883C49.5679 47.8465 48.7046 46.8997 47.6463 46.8997ZM47.6463 49.7124C47.3957 49.7124 47.1451 49.5453 47.0615 49.2668C46.9501 49.0162 47.0058 48.7098 47.2008 48.5149C47.3957 48.3199 47.6742 48.2643 47.897 48.3756C48.1476 48.487 48.2869 48.7377 48.2869 49.0162C48.2869 49.3782 47.9805 49.7124 47.6463 49.7124Z" fill="#93989f"/>
<path d="M42.4667 31.2207C42.049 31.6663 41.8262 32.279 41.8262 32.9195C41.8262 33.56 42.049 34.1727 42.4667 34.6183L42.8566 35.036C43.2743 35.4816 43.8313 35.7322 44.4161 35.7322C45.0009 35.7322 45.5579 35.4816 45.9756 35.036L48.9555 31.8334C49.3732 31.3878 49.596 30.7751 49.596 30.1346C49.596 29.4941 49.3732 28.8814 48.9555 28.4358L48.5656 28.0181C47.7023 27.1269 46.3098 27.1269 45.4465 28.0181L42.4667 31.2207ZM45.0566 34.0056C44.6946 34.3676 44.1376 34.3676 43.7477 34.0056L43.3579 33.5879C42.9958 33.198 42.9958 32.5853 43.3579 32.1954L44.3883 31.0815L46.0592 32.8916L45.0566 34.0056ZM46.9782 28.6865C47.2288 28.6865 47.4516 28.7979 47.6187 28.965L48.0086 29.3827C48.3706 29.7726 48.3706 30.3853 48.0086 30.7751L46.9782 31.8891L45.3073 30.0789L46.3377 28.965C46.5048 28.7979 46.7554 28.6865 46.9782 28.6865Z" fill="#93989f"/>
<path d="M42.188 23.7851C42.6057 24.2307 43.1627 24.4814 43.7475 24.4814C44.3323 24.4814 44.8893 24.2307 45.307 23.7851L45.6969 23.3674C46.1147 22.9218 46.3374 22.3091 46.3374 21.6686C46.3374 21.0281 46.1147 20.4154 45.6969 19.9698L42.7171 16.7951C41.8538 15.9039 40.4613 15.9039 39.598 16.7951L39.2082 17.2128C38.7904 17.6584 38.5676 18.2711 38.5676 18.9116C38.5676 19.5521 38.7904 20.1648 39.2082 20.6104L42.188 23.7851ZM45.0564 21.6965C45.0564 21.9471 44.9729 22.1978 44.7779 22.3927L44.388 22.8104C44.026 23.1725 43.469 23.1725 43.0791 22.8104L42.0487 21.6965L43.7197 19.8863L44.7501 21.0003C44.945 21.1673 45.0564 21.418 45.0564 21.6965ZM40.1272 18.1875L40.517 17.7698C40.8791 17.3799 41.4639 17.3799 41.8259 17.7698L42.8563 18.8837L41.1854 20.6939L40.155 19.58C39.7651 19.1901 39.7651 18.5774 40.1272 18.1875Z" fill="#93989f"/>
</svg>
