<svg width="60" height="58" viewBox="0 0 60 58" fill="none" xmlns="http://www.w3.org/2000/svg">

<path d="M49.9986 16.8622C49.7201 16.7508 49.4137 16.8065 49.2188 17.0292L44.3731 21.8749H39.611V17.1128L44.4567 12.2671C44.6516 12.0722 44.7351 11.738 44.6238 11.4873C44.5124 11.2088 44.2339 11.0417 43.9554 11.0417H38.8869C38.692 11.0417 38.497 11.1253 38.3856 11.2645L33.3171 16.333C33.1779 16.4723 33.0943 16.6394 33.0943 16.8343V23.0446L28.0259 28.1131L16.3851 16.4723L15.7167 13.7709C15.661 13.5481 15.4939 13.3532 15.2711 13.2697L9.47853 11.0974C9.20005 10.986 8.92157 11.0696 8.72663 11.2645L7.27849 12.7127C7.08355 12.9076 6.99999 13.214 7.11139 13.4924L9.28361 19.285C9.36715 19.5078 9.56209 19.6749 9.78488 19.7306L12.4862 20.399L24.127 32.0398L19.0307 37.0804H12.8204C12.6255 37.0804 12.4305 37.1639 12.3191 37.3032L7.22279 42.3438C7.08354 42.4831 7 42.6502 7 42.8451V47.9136C7 48.1921 7.16709 48.4706 7.44557 48.582C7.72406 48.6934 8.0304 48.6377 8.22534 48.4149L13.071 43.5692H17.8332V48.3313L12.9875 53.177C12.7926 53.372 12.709 53.7061 12.8204 53.9568C12.9318 54.2353 13.2103 54.4024 13.4888 54.4024H18.5573C18.7522 54.4024 18.9471 54.3188 19.0585 54.1796L24.127 49.1111C24.2663 48.9718 24.3498 48.8047 24.3498 48.6098V42.3995L27.9702 38.7792L30.3652 41.1742C30.6436 41.4527 31.1171 41.4527 31.3956 41.1742L32.3424 40.2273L33.4842 41.3691L32.5374 42.316C32.2589 42.5945 32.2589 43.0679 32.5374 43.3464L43.3984 54.2074C43.5377 54.3467 43.7326 54.4302 43.8997 54.4302C44.0946 54.4302 44.2617 54.3467 44.401 54.2074L50.1935 48.4149C50.472 48.1364 50.472 47.6629 50.1935 47.3845L39.3325 36.5234C39.054 36.2449 38.5806 36.2449 38.3021 36.5234L37.3552 37.4703L36.2134 36.3285L37.1603 35.3816C37.4388 35.1031 37.4388 34.6297 37.1603 34.3512L34.7653 31.9562L38.3856 28.3359H44.5959C44.7909 28.3359 44.9858 28.2523 45.0972 28.1131L50.1657 23.0446C50.3049 22.9053 50.3885 22.7383 50.3885 22.5433V17.4748C50.4442 17.252 50.2492 16.9735 49.9986 16.8622ZM13.3217 19.2015C13.2381 19.1179 13.0989 19.0344 12.9875 19.0065L10.4532 18.366L8.58739 13.381L9.36715 12.6013L14.3521 14.4672L14.9926 17.0014C15.0205 17.1406 15.104 17.252 15.1875 17.3356L26.9676 29.1156L25.1017 30.9815L13.3217 19.2015ZM35.6564 34.9082L34.7096 35.855C34.4311 36.1335 34.4311 36.607 34.7096 36.8855L36.8818 39.0577C37.1603 39.3362 37.6337 39.3362 37.9122 39.0577L38.859 38.1108L48.6897 47.9414L43.9275 52.7036L34.0969 42.8729L35.0438 41.9261C35.3223 41.6476 35.3223 41.1742 35.0438 40.8957L32.8715 38.7235C32.5931 38.445 32.1196 38.445 31.8412 38.7235L30.8943 39.6703L29.0284 37.8045L33.7906 33.0423L35.6564 34.9082ZM48.996 22.2927L44.3453 26.9434H38.135C37.94 26.9434 37.7451 27.027 37.6337 27.1662L33.2893 31.5106L27.4967 37.3032L23.1523 41.6476C23.0131 41.7868 22.9295 41.9539 22.9295 42.1489V48.3592L18.2788 53.0099H15.2711L19.1142 49.1668C19.2535 49.0275 19.337 48.8605 19.337 48.6655V42.8729C19.337 42.4831 19.0028 42.1489 18.613 42.1489H12.8204C12.6255 42.1489 12.4305 42.2324 12.3191 42.3717L8.47598 46.2148V43.2071L13.1267 38.5564H19.337C19.532 38.5564 19.7269 38.4728 19.8383 38.3336L25.6309 32.541L28.5271 29.6448L34.3197 23.8522C34.4589 23.713 34.5425 23.5459 34.5425 23.3509V17.1406L39.1932 12.4899H42.2009L38.3578 16.333C38.2185 16.4723 38.135 16.6394 38.135 16.8343V22.599C38.135 22.9889 38.4692 23.3231 38.859 23.3231H44.6516C44.8466 23.3231 45.0415 23.2395 45.1529 23.1003L48.996 19.2572V22.2927Z" fill="#93989f"/>
<path d="M41.5403 43.0683L40.5164 44.0923L44.8486 48.4245L45.8726 47.4005L41.5403 43.0683Z" fill="#93989f"/>
<path d="M38.6509 40.1815L37.627 41.2054L39.0645 42.643L40.0884 41.619L38.6509 40.1815Z" fill="#93989f"/>
<path d="M32.8151 29.5368L31.929 28.6506L24.643 35.9366L25.5291 36.8228L32.8151 29.5368Z" fill="#93989f"/>
</svg>
