<svg width="60" height="58" viewBox="0 0 60 58" fill="none" xmlns="http://www.w3.org/2000/svg">

<path d="M30.5277 47.2162C30.834 47.2162 31.0568 46.9656 31.0568 46.6871V45.8238C31.0568 45.1276 29.9985 45.1276 29.9985 45.8238V46.6871C29.9985 46.9656 30.2213 47.2162 30.5277 47.2162Z" fill="#93989f"/>
<path d="M28.1326 47.2162C28.439 47.2162 28.6618 46.9656 28.6618 46.6871V45.8238C28.6618 45.1276 27.6035 45.1276 27.6035 45.8238V46.6871C27.6035 46.9656 27.8542 47.2162 28.1326 47.2162Z" fill="#93989f"/>
<path d="M25.7376 47.2162C26.044 47.2162 26.2668 46.9656 26.2668 46.6871V45.8238C26.2668 45.1276 25.2085 45.1276 25.2085 45.8238V46.6871C25.2085 46.9656 25.4591 47.2162 25.7376 47.2162Z" fill="#93989f"/>
<path d="M23.3704 45.2947C23.0641 45.2947 22.8413 45.5453 22.8413 45.8238V46.6871C22.8413 47.3833 23.8996 47.3833 23.8996 46.6871V45.8238C23.8996 45.5175 23.6489 45.2947 23.3704 45.2947Z" fill="#93989f"/>
<path d="M20.9754 45.2947C20.6691 45.2947 20.4463 45.5453 20.4463 45.8238V46.6871C20.4463 47.3833 21.5045 47.3833 21.5045 46.6871V45.8238C21.5045 45.5175 21.2818 45.2947 20.9754 45.2947Z" fill="#93989f"/>
<path d="M32.8948 47.2162C33.2012 47.2162 33.424 46.9656 33.424 46.6871V45.8238C33.424 45.1276 32.3657 45.1276 32.3657 45.8238V46.6871C32.3657 46.9656 32.6164 47.2162 32.8948 47.2162Z" fill="#93989f"/>
<path d="M35.2899 47.2162C35.5962 47.2162 35.819 46.9656 35.819 46.6871V45.8238C35.819 45.1276 34.7607 45.1276 34.7607 45.8238V46.6871C34.7607 46.9656 34.9835 47.2162 35.2899 47.2162Z" fill="#93989f"/>
<path d="M37.6849 47.2162C37.9912 47.2162 38.214 46.9656 38.214 46.6871V45.8238C38.214 45.1276 37.1558 45.1276 37.1558 45.8238V46.6871C37.1558 46.9656 37.3786 47.2162 37.6849 47.2162Z" fill="#93989f"/>
<path d="M40.0518 47.2162C40.3582 47.2162 40.581 46.9656 40.581 46.6871V45.8238C40.581 45.1276 39.5227 45.1276 39.5227 45.8238V46.6871C39.5227 46.9656 39.7733 47.2162 40.0518 47.2162Z" fill="#93989f"/>
<path d="M42.4469 47.2162C42.7532 47.2162 42.976 46.9656 42.976 46.6871V45.8238C42.976 45.1276 41.9177 45.1276 41.9177 45.8238V46.6871C41.9177 46.9656 42.1405 47.2162 42.4469 47.2162Z" fill="#93989f"/>
<path d="M53.1687 44.4314C53.3358 44.32 53.4472 44.125 53.4193 43.9022L51.1357 26.3853C50.9408 24.8258 50.6623 23.2941 50.2724 21.7624C50.0218 20.7599 49.7433 19.7573 49.437 18.7826C48.8243 16.861 47.7382 15.1344 46.2622 13.7977V13.6027C46.2622 12.9901 45.9002 12.4052 45.3153 12.1546L44.4799 11.7926C42.4748 10.9014 40.3582 10.233 38.2139 9.78743V6.94685C38.2139 6.64051 37.9632 6.41772 37.6848 6.41772H25.7098C25.4034 6.41772 25.1806 6.64051 25.1806 6.94685V9.78743C23.0363 10.233 20.9198 10.9014 18.9146 11.7926L18.0792 12.1546C17.4944 12.4052 17.1323 12.9622 17.1323 13.6027V13.7977C15.6563 15.1623 14.5702 16.8889 13.9576 18.7826C13.6512 19.7573 13.3727 20.7599 13.1221 21.7624C12.7601 23.2941 12.4816 24.8258 12.2588 26.3853L10.003 43.9301C9.97518 44.1807 10.1423 44.4314 10.3929 44.5149L10.1423 47.3833C10.1144 47.6897 10.3372 47.9403 10.6435 47.9682L15.8234 48.2467H15.8513C16.1019 48.2467 16.3247 48.0517 16.3804 47.8011L16.9374 44.9048H16.9652C17.188 44.9048 17.4108 44.7656 17.4665 44.5428L17.6058 44.125C17.8007 44.32 18.0235 44.4592 18.2463 44.5706V48.4973C18.2463 48.8036 18.4969 49.0264 18.7754 49.0264H44.5913C44.8976 49.0264 45.1204 48.7758 45.1204 48.4973V44.5706C45.371 44.4871 45.5938 44.32 45.7609 44.125L45.9002 44.5428C45.9559 44.7656 46.1786 44.9048 46.4014 44.9048H46.4293H46.5964L47.1534 47.8289C47.209 48.0796 47.4318 48.2745 47.6825 48.2745H47.7103L52.8902 47.996C53.1965 47.9682 53.4193 47.7175 53.3915 47.4112L53.1687 44.4314ZM15.4335 47.1606L11.2562 46.9378L11.4512 44.5985L15.8791 44.8491L15.4335 47.1606ZM17.1323 42.0921L16.6032 43.8187L11.1448 43.5124L11.8132 38.3882L17.1602 38.6945L17.1323 42.0921ZM17.1323 37.5249V37.6084L11.9246 37.3021L12.8158 30.3956L17.1323 30.6462V35.0742C17.1323 35.5197 17.2994 35.9653 17.6336 36.2995C17.3273 36.6337 17.1323 37.0793 17.1323 37.5249ZM17.1323 29.6158L12.955 29.3652L13.317 26.5524C13.4841 25.1878 13.7348 23.8232 14.0411 22.4586L17.1045 22.6257V27.3043C17.1045 27.7499 17.2716 28.1955 17.6058 28.5297C17.3551 28.8082 17.1602 29.1981 17.1323 29.6158ZM17.1602 21.5675L14.2917 21.4004C14.4867 20.6206 14.7095 19.8409 14.9601 19.0889C15.4057 17.6686 16.1298 16.3876 17.1323 15.2737V19.4788C17.1323 19.9244 17.2994 20.37 17.6336 20.7042C17.4108 20.9548 17.2437 21.2611 17.1602 21.5675ZM36.1531 7.44813L31.6973 10.9292L27.2414 7.44813H36.1531ZM37.1556 8.00511V11.152L32.2264 14.7167V11.8761L37.1556 8.00511ZM26.2667 8.00511L31.1681 11.8761V14.7445L26.2389 11.1799V8.00511H26.2667ZM18.1906 13.6027C18.1906 13.4078 18.302 13.2128 18.4969 13.1293L19.3324 12.7673C21.2261 11.9318 23.1755 11.3191 25.1806 10.8735V11.4584C25.1806 11.6255 25.2642 11.7925 25.4034 11.8761L31.1681 16.0534V20.2029H18.8868C18.4969 20.2029 18.1906 19.8966 18.1906 19.5067V13.6027ZM18.1906 21.9295C18.1906 21.5396 18.4969 21.2333 18.8868 21.2333H31.1681V27.9727H18.8868C18.4969 27.9727 18.1906 27.6664 18.1906 27.2765V21.9295ZM18.1906 29.7272C18.1906 29.3373 18.4969 29.031 18.8868 29.031H31.1681V35.7704H18.8868C18.4969 35.7704 18.1906 35.464 18.1906 35.0742V29.7272ZM44.09 47.9403H19.3324V44.6542H22.5628C23.2591 44.6542 23.2591 43.5959 22.5628 43.5959H18.8868H18.859H18.8311C18.4691 43.5681 18.1906 43.2617 18.1906 42.9275V37.5527C18.1906 37.1628 18.4969 36.8565 18.8868 36.8565H31.1681V43.5959H25.1528C24.4566 43.5959 24.4566 44.6542 25.1528 44.6542H44.09V47.9403ZM45.2318 42.8997C45.2318 43.2617 44.9533 43.5681 44.5913 43.5681H44.5634H44.5356H32.2542V36.8286H44.5356C44.9254 36.8286 45.2318 37.135 45.2318 37.5249V42.8997ZM45.2318 35.102C45.2318 35.4919 44.9254 35.7982 44.5356 35.7982H32.2542V29.0588H44.5356C44.9254 29.0588 45.2318 29.3652 45.2318 29.755V35.102ZM45.2318 27.3043C45.2318 27.6942 44.9254 28.0006 44.5356 28.0006H32.2542V21.2612H44.5356C44.9254 21.2612 45.2318 21.5675 45.2318 21.9574V27.3043ZM45.2318 19.5067C45.2318 19.8966 44.9254 20.2029 44.5356 20.2029H32.2542V16.0534L38.0189 11.8761C38.1582 11.7647 38.2417 11.6255 38.2417 11.4584V10.8735C40.2468 11.3191 42.1963 11.9318 44.09 12.7673L44.9254 13.1293C45.1204 13.2128 45.2318 13.4078 45.2318 13.6027V19.5067ZM46.29 19.5067V15.3015C47.2648 16.3876 48.0167 17.6965 48.4622 19.1168C48.7129 19.8687 48.9078 20.6485 49.1306 21.4282L46.2622 21.5953C46.2065 21.2611 46.0394 20.9827 45.8166 20.732C46.0951 20.3978 46.29 19.9523 46.29 19.5067ZM46.29 27.3043V22.6257L49.3534 22.4586C49.6597 23.7954 49.9104 25.16 50.0775 26.5524L50.4395 29.3652L46.2622 29.6158C46.2343 29.1981 46.0672 28.8082 45.7609 28.5297C46.0951 28.1955 46.29 27.7499 46.29 27.3043ZM45.7888 36.3274C46.0951 35.9932 46.29 35.5754 46.29 35.102V30.674L50.6066 30.4234L51.4978 37.3299L46.29 37.6363V37.5527C46.29 37.0793 46.0951 36.6337 45.7888 36.3274ZM46.8192 43.8187L46.29 42.0921V38.6667L51.637 38.3603L52.3054 43.4845L46.8192 43.8187ZM48.1281 47.1606L47.6825 44.8491L52.1104 44.5985L52.3054 46.9656L48.1281 47.1606Z" fill="#93989f"/>
</svg>
