<svg width="60" height="58" viewBox="0 0 60 58" fill="none" xmlns="http://www.w3.org/2000/svg">

<path d="M47.9352 31.8994V29.8107C47.9352 27.8891 46.3757 26.3018 44.4263 26.3018H32.5348C31.4209 26.3018 30.3905 26.8309 29.7221 27.6942C29.0537 26.803 28.0233 26.3018 26.9094 26.3018H15.0179C13.0963 26.3018 11.509 27.8613 11.509 29.8107V31.8994C9.58738 31.8994 8 33.4589 8 35.4083V48.0238C8 48.4137 8.30634 48.7201 8.69622 48.7201H50.7201C51.11 48.7201 51.4163 48.4137 51.4163 48.0238V35.4083C51.4163 33.4589 49.8568 31.8994 47.9352 31.8994ZM15.0179 47.2998H9.42029V35.4083C9.42029 34.2387 10.3672 33.3197 11.509 33.3197H12.9014C14.071 33.3197 14.9901 34.2665 14.9901 35.4083V47.2998H15.0179ZM12.9292 31.8994V29.8107C12.9292 28.6411 13.8761 27.722 15.0179 27.722H26.9094C28.079 27.722 28.998 28.6689 28.998 29.8107V38.2211C28.3853 37.7755 27.6613 37.5248 26.9094 37.5248H18.499C17.7471 37.5248 16.9952 37.7755 16.4103 38.2211V35.4083C16.4103 33.4589 14.8508 31.8994 12.9292 31.8994ZM29.0259 41.0059V43.0946H16.4103V41.0059C16.4103 39.8363 17.3572 38.9173 18.499 38.9173H26.9094C28.079 38.8894 29.0259 39.8363 29.0259 41.0059ZM43.0338 47.2998H16.4103V44.487H43.0338V47.2998ZM43.0338 43.0946H30.4183V41.0059C30.4183 39.8363 31.3652 38.9173 32.507 38.9173H40.9173C42.087 38.9173 43.006 39.8641 43.006 41.0059V43.0946H43.0338ZM43.0338 35.4083V38.2211C42.4211 37.7755 41.6971 37.5248 40.9452 37.5248H32.5348C31.7829 37.5248 31.031 37.7755 30.4462 38.2211V29.8107C30.4462 28.6411 31.393 27.722 32.5348 27.722H44.4263C45.5959 27.722 46.5149 28.6689 46.5149 29.8107V31.8994C44.5933 31.8994 43.0338 33.4589 43.0338 35.4083ZM50.0239 47.2998H44.4263V35.4083C44.4263 34.2387 45.3731 33.3197 46.5149 33.3197H47.9074C49.077 33.3197 49.996 34.2665 49.996 35.4083V47.2998H50.0239Z" fill="#93989f"/>
<path d="M39.6362 7.64307H19.8079C19.3623 7.64307 18.9724 8.0051 18.9724 8.47853V21.7067C18.9724 22.1523 19.3344 22.5422 19.8079 22.5422H39.6362C40.0818 22.5422 40.4717 22.1802 40.4717 21.7067V8.47853C40.4717 8.03295 40.1097 7.64307 39.6362 7.64307ZM23.2333 20.8713L25.6004 18.0307L27.9676 20.8713H23.2333ZM30.1119 20.8713L28.3853 18.8104L31.755 14.7724L36.3222 20.8713H30.1119ZM38.8008 20.8713H38.4109L32.4512 12.9343C32.312 12.7394 32.0614 12.6002 31.8107 12.6002C31.5601 12.6002 31.3094 12.7116 31.1423 12.9065L27.2992 17.5294L26.2131 16.2205C26.046 16.0256 25.8232 15.9142 25.5726 15.9142C25.3219 15.9142 25.0992 16.0256 24.9321 16.2205L21.0611 20.8713H20.6155V9.314H38.8008V20.8713Z" fill="#93989f"/>
<path d="M25.6004 15.0787C26.6029 15.0787 27.4941 14.466 27.884 13.547C28.2739 12.628 28.0511 11.5419 27.3548 10.8457C26.6586 10.1495 25.5725 9.92668 24.6535 10.3166C23.7345 10.7064 23.1218 11.5976 23.1218 12.6002C23.1218 13.9926 24.2358 15.0787 25.6004 15.0787ZM25.6004 11.7926C25.9346 11.7926 26.2409 11.9875 26.3523 12.2938C26.4915 12.6002 26.408 12.9622 26.1852 13.185C25.9624 13.4078 25.6004 13.4913 25.294 13.3521C24.9877 13.2128 24.7928 12.9344 24.7928 12.6002C24.7649 12.1546 25.1269 11.7926 25.6004 11.7926Z" fill="#93989f"/>
</svg>
