<svg width="60" height="58" viewBox="0 0 60 58" fill="none" xmlns="http://www.w3.org/2000/svg">

<path d="M16.3419 29.1043C15.6178 29.1043 15.033 29.6891 15.033 30.4132V47.4288C13.7241 48.8491 13 50.6593 13 52.6087V52.7201C13 53.0821 13.3063 53.3885 13.6684 53.3885H40.8767C41.2387 53.3885 41.545 53.0821 41.545 52.7201V52.6087C41.545 50.6314 40.7931 48.7656 39.4285 47.3453V30.441C39.4285 29.8005 38.9829 29.2714 38.3703 29.16L44.5527 19.58C44.5806 19.5521 44.5806 19.4964 44.6084 19.4686C44.6363 19.4129 44.6363 19.3851 44.6641 19.3294L45.6388 13.6482C45.6945 13.3976 45.5553 13.1191 45.3325 12.9798C45.1097 12.8406 44.8312 12.8406 44.6084 12.9798L39.9577 16.1824C39.9298 16.2103 39.902 16.2381 39.902 16.266C39.8741 16.2938 39.8184 16.3217 39.7906 16.3774L31.9372 29.1043H31.603V15.709H32.6334V21.3066C32.6334 21.6687 32.9397 21.975 33.3018 21.975C33.6638 21.975 33.9702 21.6687 33.9702 21.3066V15.0685C33.9702 14.7065 33.6638 14.4001 33.3018 14.4001H31.603V11.7266C31.603 10.7798 30.8232 10 29.8764 10H28.0384C27.0915 10 26.3117 10.7798 26.3117 11.7266V29.1043H25.2813L21.4103 12.3115C21.3825 12.1444 21.2711 12.0051 21.1319 11.8937C20.9926 11.8102 20.7977 11.7823 20.6306 11.8102L14.1697 13.2583C13.8076 13.3419 13.5848 13.7039 13.6684 14.0381L16.7596 27.684L17.0938 29.1043H16.3419ZM17.8735 30.441C17.9014 30.441 17.9014 30.441 17.8735 30.441C17.9014 30.441 17.9014 30.441 17.9014 30.441H26.8409H26.8687H26.8966H30.8232H30.8511H30.8789H32.2157H38.0639V47.0668H16.314V30.441H17.8735ZM40.1804 52.1074H14.3367C14.4481 50.715 15.033 49.4061 15.9798 48.3757H38.5374C39.4842 49.4061 40.069 50.715 40.1804 52.1074ZM43.4945 18.0762L41.4615 16.7116L44.0236 14.9292L43.4945 18.0762ZM40.4868 17.6584L43.0489 19.3851L36.7829 29.1043H33.4132L40.4868 17.6584ZM27.9548 11.3089H29.7928C30.0156 11.3089 30.2106 11.5038 30.2106 11.7266V14.4001H27.5371V11.7266C27.5371 11.5038 27.732 11.3089 27.9548 11.3089ZM27.5371 15.709H30.2106V29.1043H27.5371V15.709ZM18.1799 28.046L19.0153 27.8511C19.3774 27.7675 19.6002 27.4055 19.5166 27.0713C19.4331 26.7093 19.0989 26.4865 18.7369 26.57L17.9014 26.765L17.3723 24.4535L18.2077 24.2586C18.5698 24.1751 18.7926 23.813 18.709 23.4788C18.6255 23.1168 18.2634 22.894 17.9292 22.9776L17.0938 23.1725L16.5646 20.861L17.4001 20.6661C17.7621 20.5826 17.9849 20.2205 17.9014 19.8863C17.8178 19.5521 17.4558 19.3015 17.1216 19.3851L16.2862 19.58L15.757 17.2685L16.5925 17.0736C16.9545 16.9901 17.1773 16.628 17.0938 16.2938C17.0102 15.9318 16.6482 15.709 16.314 15.7926L15.4785 15.9875L15.1165 14.428L20.2964 13.2583L23.8889 29.1321H18.4584L18.1799 28.046Z" fill="#93989f"/>
</svg>
