<svg width="60" height="58" viewBox="0 0 60 58" fill="none" xmlns="http://www.w3.org/2000/svg">

<path d="M48.1606 39.6692C49.4138 39.6692 50.4163 38.6667 50.4163 37.4135V35.9096C50.4163 35.4919 50.0821 35.1577 49.6644 35.1577H46.6567V34.4336C46.6567 25.7727 39.611 18.7269 30.95 18.7269V17.2231H31.7019C32.1196 17.2231 32.4538 16.8889 32.4538 16.4712C32.4538 16.0534 32.1196 15.7192 31.7019 15.7192H25.7144C25.2967 15.7192 24.9625 16.0534 24.9625 16.4712C24.9625 16.8889 25.2967 17.2231 25.7144 17.2231H26.4663V18.7269C17.8053 18.7269 10.7596 25.7727 10.7596 34.4336V35.1856H7.75192C7.33419 35.1856 7 35.5198 7 35.9375V37.4413C7 38.6945 8.00256 39.6971 9.25576 39.6971H13.1267H22.9852H48.3276L48.1606 39.6692ZM27.9423 17.2231H29.4462V18.7269H27.9423V17.2231ZM12.2077 34.4336C12.2077 26.5803 18.5851 20.2029 26.4385 20.2029H30.9221C38.7755 20.2029 45.1529 26.5803 45.1529 34.4336V35.1856H12.2077V34.4336ZM48.9125 37.4135C48.9125 37.8312 48.5783 38.1654 48.1606 38.1654H9.22791C8.81017 38.1654 8.47599 37.8312 8.47599 37.4135V36.6616H48.9125V37.4135Z" fill="#93989f"/>
</svg>
