<svg width="60" height="58" viewBox="0 0 60 58" fill="none" xmlns="http://www.w3.org/2000/svg">

<path d="M52.6922 23.7926H42.1097L41.8312 21.5646V18.7241C41.8312 18.3342 41.497 18 41.1071 18H22.3092C21.9193 18 21.5851 18.3342 21.5851 18.7241V21.5646L21.3066 23.7926H10.7241C10.3342 23.7926 10 24.1267 10 24.5166V27.4129C10 27.8028 10.3342 28.137 10.7241 28.137H10.8912L11.4481 30.3927V41.1702H10.7241C10.3342 41.1702 10 41.5044 10 41.8943V44.7906C10 45.1805 10.3342 45.5146 10.7241 45.5146H52.6922C53.0821 45.5146 53.4163 45.1805 53.4163 44.7906V41.8943C53.4163 41.5044 53.0821 41.1702 52.6922 41.1702H51.9682V30.3927L52.5252 28.137H52.6922C53.0821 28.137 53.4163 27.8028 53.4163 27.4129V24.5166C53.4163 24.1267 53.0821 23.7926 52.6922 23.7926ZM41.9983 28.137H51.0492L50.6871 29.5851H40.4109V28.4712C40.94 28.499 41.497 28.3598 41.9983 28.137ZM40.3831 36.1017V31.0332H50.52V36.1017H40.3831ZM50.52 37.5499V41.1702H40.3831V37.5499H50.52ZM39.659 19.476H40.3831V20.9241H39.659V19.476ZM39.659 22.3444H40.4666L41.0514 26.9395C40.6616 27.0509 40.2438 27.0509 39.8261 26.9673C39.7704 26.9673 39.7147 26.9395 39.659 26.9116V22.3444ZM36.7627 19.476H38.2109V20.9241H36.7627V19.476ZM36.7627 22.3444H38.2109V26.9116C37.7374 27.0509 37.2361 27.0509 36.7627 26.9116V22.3444ZM33.8664 19.476H35.3146V20.9241H33.8664V19.476ZM33.8664 22.3444H35.3146V26.9116C34.8412 27.0509 34.3399 27.0509 33.8664 26.9116V22.3444ZM30.998 19.476H32.4461V20.9241H30.998V19.476ZM30.998 22.3444H32.4461V26.9116C31.9727 27.0509 31.4714 27.0509 30.998 26.9116V22.3444ZM28.1017 19.476H29.5499V20.9241H28.1017V19.476ZM28.1017 22.3444H29.5499V26.9116C29.0764 27.0509 28.5752 27.0509 28.1017 26.9116V22.3444ZM25.2055 19.476H26.6536V20.9241H25.2055V19.476ZM25.2055 22.3444H26.6536V26.9116C26.1802 27.0509 25.6789 27.0509 25.2055 26.9116V22.3444ZM24.4814 28.2205C25.4004 28.5826 26.4587 28.5826 27.3777 28.2205C28.2967 28.5826 29.3549 28.5826 30.2739 28.2205C31.193 28.5826 32.2512 28.5826 33.1702 28.2205C34.0892 28.5826 35.1475 28.5826 36.0665 28.2205C36.9855 28.5826 38.0438 28.5826 38.9628 28.2205V41.1702H24.4814V28.2205ZM23.0332 19.476H23.7573V20.9241H23.0332V19.476ZM22.9497 22.3444H23.7573V26.9116C23.7016 26.9395 23.6459 26.9395 23.5902 26.9673C23.2003 27.0509 22.7548 27.0509 22.3649 26.9395L22.9497 22.3444ZM21.418 28.137C21.9193 28.3598 22.4763 28.4712 23.0332 28.4712V29.5851H12.7292L12.3671 28.137H21.418ZM12.8963 36.1017V31.0332H23.0332V36.1017H12.8963ZM23.0332 37.5499V41.1702H12.8963V37.5499H23.0332ZM11.4481 25.2407H21.1117L20.9446 26.6888H11.4481V25.2407ZM51.9682 44.0665H11.4481V42.6184H51.9682V44.0665ZM51.9682 26.6888H42.4717L42.3046 25.2407H51.9682V26.6888Z" fill="#93989f"/>
<path d="M37.4868 29.5851H35.3146C35.0082 29.5851 34.7297 29.7801 34.6184 30.0864L34.0614 31.7573H27.3777C27.1549 31.7573 26.9321 31.8687 26.7928 32.0637C26.6536 32.2586 26.6257 32.4814 26.6814 32.7042L28.1296 37.0486C28.241 37.355 28.4916 37.5499 28.8258 37.5499H33.8943C34.2563 37.5499 34.5627 37.2993 34.6184 36.9372L35.3424 32.6485L35.8715 31.0333H37.5146C37.9045 31.0333 38.2387 30.6991 38.2387 30.3092C38.2387 29.9193 37.9045 29.5851 37.4868 29.5851ZM33.2538 36.1018H29.3271L28.3802 33.2055H33.755L33.2538 36.1018Z" fill="#93989f"/>
<path d="M30.2738 39.5272C30.2738 39.917 29.9396 40.2512 29.5498 40.2512C29.1599 40.2512 28.8257 39.917 28.8257 39.5272C28.8257 39.1373 29.1599 38.8031 29.5498 38.8031C29.9396 38.8031 30.2738 39.1373 30.2738 39.5272Z" fill="#93989f"/>
<path d="M35.203 39.5272C35.203 39.917 34.8688 40.2512 34.479 40.2512C34.0891 40.2512 33.7549 39.917 33.7549 39.5272C33.7549 39.1373 34.0891 38.8031 34.479 38.8031C34.8688 38.8031 35.203 39.1373 35.203 39.5272Z" fill="#93989f"/>
</svg>
